<?xml version="1.0" encoding="UTF-8"?>
<svg id="Layer_1" data-name="Layer 1" xmlns="http://www.w3.org/2000/svg" viewBox="0 0 386.13 132.85">
  <defs>
    <style>
      .cls-1 {
        fill: none;
        stroke: #f1f0ef;
        stroke-miterlimit: 10;
        stroke-width: .75px;
      }
    </style>
  </defs>
  <path class="cls-1" d="M263.99,38.56c-1.44-9.19-12.47-14.71-21.79-19.38-10.5-5.26-18.63-5.91-21.79-6.03-11.32-.47-22.78-.94-29.52,12.36-.76,1.5-6.92,13.65-3.93,25.41,2.54,10.01,10.3,14.22,20.23,19.63,6.36,3.46,13.96,7.59,23.35,5.78,8.42-1.62,13.57-7.11,19.7-13.64,8.23-8.77,15.02-16.01,13.75-24.12Z"/>
  <path class="cls-1" d="M95.62,97.96c-.01,1.04-3.71,1.81-8.19,2.74-3.34.69-6.15,1.28-10.18,1.31-4.5.04-7.73-.63-10.43-1.19-4.22-.87-7.51-1.56-7.95-2.86-.51-1.53,3.26-2.93,3.72-3.1,4.13-1.53,9.42-1.24,14.65-.95,1.46.08,5.19.32,9.68,1.19,3.99.77,8.71,1.68,8.69,2.86Z"/>
  <path class="cls-1" d="M98.48,97.99c-.01,1.2-4.29,2.09-9.47,3.17-3.86.8-7.1,1.48-11.77,1.52-5.2.04-8.93-.73-12.06-1.38-4.88-1.01-8.68-1.8-9.19-3.31-.59-1.77,3.77-3.38,4.31-3.58,4.77-1.77,10.89-1.43,16.94-1.1,1.69.09,6,.37,11.2,1.38,4.61.89,10.06,1.94,10.05,3.31Z"/>
  <path class="cls-1" d="M101.71,97.96c-.02,1.59-5.67,2.77-12.53,4.19-5.11,1.06-9.4,1.95-15.57,2-6.88.06-11.81-.97-15.94-1.82-6.45-1.34-11.48-2.38-12.15-4.37-.78-2.34,4.98-4.47,5.69-4.74,6.31-2.33,14.4-1.89,22.4-1.46,2.23.12,7.94.49,14.81,1.82,6.1,1.18,13.31,2.57,13.29,4.37Z"/>
  <path class="cls-1" d="M103.44,97.95c-.02,1.69-6.03,2.94-13.32,4.45-5.43,1.13-9.99,2.08-16.55,2.13-7.32.06-12.56-1.03-16.95-1.94-6.86-1.42-12.21-2.53-12.91-4.65-.83-2.49,5.3-4.75,6.05-5.03,6.7-2.48,15.31-2.01,23.81-1.55,2.37.13,8.44.53,15.74,1.94,6.48,1.25,14.15,2.73,14.12,4.65Z"/>
  <path class="cls-1" d="M109.9,99.26c-.03,2.22-7.91,3.86-17.47,5.84-7.13,1.48-13.1,2.72-21.71,2.79-9.6.08-16.48-1.35-22.24-2.54-9-1.87-16.02-3.32-16.94-6.1-1.09-3.26,6.95-6.24,7.94-6.61,8.8-3.26,20.09-2.64,31.24-2.03,3.11.17,11.08.69,20.65,2.54,8.51,1.64,18.56,3.59,18.53,6.1Z"/>
  <path class="cls-1" d="M94.16,97.97c0,.72-2.55,1.24-5.63,1.88-2.3.48-4.22.88-7,.9-3.09.03-5.31-.43-7.17-.82-2.9-.6-5.16-1.07-5.46-1.97-.35-1.05,2.24-2.01,2.56-2.13,2.84-1.05,6.47-.85,10.07-.66,1,.05,3.57.22,6.66.82,2.74.53,5.98,1.16,5.97,1.97Z"/>
  <path class="cls-1" d="M88.3,99.04c0,.38-1.36.66-3.01,1.01-1.23.25-2.26.47-3.74.48-1.65.01-2.84-.23-3.83-.44-1.55-.32-2.76-.57-2.92-1.05-.19-.56,1.2-1.07,1.37-1.14,1.51-.56,3.46-.45,5.38-.35.54.03,1.91.12,3.55.44,1.46.28,3.2.62,3.19,1.05Z"/>
  <path class="cls-1" d="M121.57,101.61c-.03,2.88-10.28,5.01-22.7,7.59-9.26,1.92-17.02,3.54-28.2,3.63-12.47.1-21.4-1.75-28.89-3.3-11.68-2.42-20.81-4.31-22.01-7.92-1.41-4.24,9.03-8.1,10.32-8.58,11.43-4.23,26.09-3.43,40.58-2.64,4.04.22,14.39.9,26.82,3.3,11.05,2.14,24.11,4.66,24.07,7.92Z"/>
  <path class="cls-1" d="M201.85,106.94c6.39,0,11.11,1.48,16.84,3.26,4.27,1.33,7.84,2.44,8.05,4.05.23,1.79-3.88,3.07-7.32,4.15-5.37,1.68-9.57,2.99-17.57,3.16-9.4.2-17.97-1.3-19.03-1.48-9.38-1.64-7.61-3.75-5.86-5.83.49-.58,1.99-2.07,7.32-3.85,4.74-1.59,10.33-3.46,17.57-3.46Z"/>
  <path class="cls-1" d="M202.02,105.8c7.39,0,12.85,1.71,19.46,3.77,4.93,1.54,9.07,2.83,9.31,4.68.27,2.07-4.48,3.55-8.46,4.8-6.21,1.94-11.06,3.45-20.31,3.65-10.87.23-20.78-1.5-22-1.71-10.85-1.9-8.8-4.33-6.77-6.74.56-.67,2.3-2.39,8.46-4.45,5.48-1.83,11.95-4,20.31-4Z"/>
  <path class="cls-1" d="M201.88,104.52c9.77,0,16.99,2.26,25.74,4.98,6.52,2.03,11.99,3.74,12.31,6.19.35,2.74-5.93,4.7-11.19,6.34-8.22,2.57-14.63,4.57-26.86,4.83-14.37.31-27.48-1.98-29.1-2.27-14.34-2.51-11.63-5.73-8.95-8.91.75-.89,3.04-3.16,11.19-5.89,7.24-2.43,15.8-5.29,26.86-5.29Z"/>
  <path class="cls-1" d="M201.82,103.83c10.39,0,18.06,2.4,27.36,5.3,6.93,2.16,12.75,3.97,13.08,6.58.38,2.91-6.3,5-11.9,6.74-8.73,2.73-15.55,4.86-28.55,5.14-15.28.33-29.21-2.11-30.93-2.41-15.25-2.67-12.36-6.09-9.52-9.47.79-.94,3.23-3.36,11.9-6.26,7.7-2.58,16.79-5.63,28.55-5.62Z"/>
  <path class="cls-1" d="M209.83,101.26c13.63.01,23.7,3.15,35.9,6.95,9.1,2.83,16.73,5.21,17.17,8.64.49,3.82-8.27,6.55-15.61,8.85-11.46,3.58-20.41,6.37-37.46,6.74-20.05.43-38.33-2.76-40.58-3.16-20-3.5-16.22-7.99-12.49-12.43,1.04-1.24,4.24-4.41,15.61-8.22,10.1-3.38,22.04-7.38,37.46-7.37Z"/>
  <path class="cls-1" d="M201.94,107.52c4.39,0,7.64,1.01,11.57,2.24,2.93.91,5.39,1.68,5.53,2.78.16,1.23-2.67,2.11-5.03,2.85-3.69,1.15-6.58,2.05-12.08,2.17-6.46.14-12.36-.89-13.08-1.02-6.45-1.13-5.23-2.58-4.03-4.01.34-.4,1.37-1.42,5.03-2.65,3.26-1.09,7.1-2.38,12.08-2.38Z"/>
  <path class="cls-1" d="M198.99,109.85c2.35,0,4.08.54,6.18,1.2,1.57.49,2.88.9,2.96,1.49.08.66-1.42,1.13-2.69,1.52-1.97.62-3.51,1.1-6.45,1.16-3.45.07-6.6-.48-6.99-.54-3.44-.6-2.79-1.38-2.15-2.14.18-.21.73-.76,2.69-1.41,1.74-.58,3.79-1.27,6.45-1.27Z"/>
  <path class="cls-1" d="M125.3,103.11c-.04,3.53-12.6,6.14-27.82,9.3-11.34,2.36-20.86,4.33-34.56,4.45-15.28.13-26.23-2.14-35.41-4.04-14.32-2.97-25.5-5.29-26.98-9.71-1.73-5.2,11.07-9.93,12.64-10.52,14.01-5.18,31.97-4.2,49.74-3.24,4.95.27,17.63,1.1,32.88,4.04,13.54,2.62,29.55,5.71,29.5,9.71Z"/>
  <path class="cls-1" d="M100.82,16.84c4.27,0,7.43,2.35,11.25,5.2,2.85,2.12,5.24,3.9,5.38,6.46.15,2.86-2.59,4.9-4.89,6.62-3.59,2.68-6.4,4.77-11.74,5.04-6.28.32-12.01-2.07-12.72-2.36-6.27-2.62-5.08-5.98-3.91-9.3.33-.93,1.33-3.3,4.89-6.15,3.17-2.53,6.91-5.52,11.74-5.52Z"/>
  <path class="cls-1" d="M100.93,15.03c4.94,0,8.59,2.72,13.01,6.01,3.3,2.45,6.06,4.51,6.22,7.47.18,3.3-3,5.67-5.66,7.65-4.15,3.09-7.39,5.51-13.57,5.83-7.26.37-13.89-2.39-14.7-2.73-7.25-3.03-5.88-6.91-4.52-10.75.38-1.07,1.54-3.81,5.66-7.1,3.66-2.93,7.98-6.39,13.57-6.38Z"/>
  <path class="cls-1" d="M100.84,12.98c6.53.01,11.35,3.6,17.2,7.95,4.36,3.24,8.01,5.96,8.23,9.88.24,4.37-3.96,7.5-7.48,10.12-5.49,4.09-9.78,7.29-17.95,7.71-9.61.5-18.36-3.16-19.44-3.61-9.58-4-7.77-9.14-5.98-14.21.5-1.41,2.03-5.04,7.48-9.39,4.84-3.87,10.56-8.44,17.95-8.43Z"/>
  <path class="cls-1" d="M100.8,11.88c6.94.01,12.07,3.83,18.28,8.45,4.63,3.45,8.52,6.34,8.74,10.5.25,4.64-4.21,7.97-7.95,10.75-5.84,4.35-10.39,7.75-19.08,8.19-10.21.53-19.52-3.36-20.67-3.84-10.19-4.25-8.26-9.71-6.36-15.11.53-1.5,2.16-5.36,7.95-9.99,5.14-4.11,11.22-8.98,19.08-8.96Z"/>
  <path class="cls-1" d="M106.15,7.78c9.11.02,15.84,5.02,23.99,11.09,6.08,4.52,11.18,8.32,11.47,13.78.33,6.09-5.53,10.46-10.43,14.11-7.66,5.71-13.64,10.16-25.04,10.75-13.4.69-25.61-4.41-27.12-5.04-13.37-5.58-10.84-12.74-8.35-19.82.7-1.97,2.83-7.03,10.43-13.1,6.75-5.4,14.73-11.78,25.04-11.76Z"/>
  <path class="cls-1" d="M100.88,17.77c2.94,0,5.1,1.62,7.73,3.57,1.96,1.46,3.6,2.68,3.7,4.44.11,1.96-1.78,3.37-3.36,4.55-2.47,1.84-4.4,3.28-8.07,3.47-4.32.22-8.26-1.42-8.74-1.62-4.31-1.8-3.5-4.11-2.69-6.39.22-.64.91-2.27,3.36-4.22,2.18-1.74,4.75-3.8,8.07-3.79Z"/>
  <path class="cls-1" d="M115.8.38c11.83.02,20.57,6.52,31.16,14.4,7.9,5.87,14.52,10.8,14.9,17.89.43,7.91-7.18,13.58-13.55,18.33-9.95,7.41-17.71,13.2-32.52,13.97-17.4.9-33.27-5.73-35.23-6.55-17.36-7.25-14.08-16.55-10.84-25.75.9-2.56,3.68-9.13,13.55-17.02C92.05,8.64,102.41.35,115.8.38Z"/>
  <path class="cls-1" d="M249.83,38.94c.69,4.4-2.99,8.32-7.45,13.08-3.33,3.54-6.12,6.52-10.68,7.4-5.09.98-9.21-1.26-12.66-3.14-5.39-2.93-9.59-5.22-10.97-10.64-1.62-6.38,1.72-12.96,2.13-13.78,3.65-7.21,9.86-6.95,16-6.7,1.71.07,6.12.42,11.81,3.27,5.06,2.53,11.03,5.53,11.82,10.51Z"/>
  <path class="cls-1" d="M252.99,38.34c.91,5.82-3.95,11.01-9.86,17.3-4.4,4.69-8.09,8.62-14.12,9.78-6.73,1.3-12.18-1.67-16.74-4.15-7.12-3.87-12.69-6.9-14.51-14.07-2.14-8.43,2.27-17.14,2.82-18.22,4.83-9.53,13.04-9.19,21.16-8.86,2.26.09,8.1.56,15.62,4.33,6.69,3.35,14.59,7.31,15.63,13.89Z"/>
  <path class="cls-1" d="M247.01,39.29c.6,3.81-2.59,7.2-6.45,11.31-2.88,3.07-5.29,5.64-9.24,6.4-4.4.85-7.97-1.09-10.95-2.71-4.66-2.53-8.3-4.51-9.49-9.2-1.4-5.52,1.49-11.21,1.84-11.92,3.16-6.23,8.53-6.01,13.84-5.8,1.48.06,5.3.36,10.22,2.83,4.37,2.19,9.54,4.78,10.22,9.09Z"/>
  <path class="cls-1" d="M334.77,120.03c3.59-.21,6.19-1.17,9.35-2.34,2.35-.87,4.33-1.6,4.39-2.5.07-1-2.27-1.58-4.24-2.06-3.07-.76-5.47-1.35-9.96-1.19-5.29.19-10.05,1.29-10.64,1.43-5.22,1.21-4.15,2.32-3.1,3.41.29.31,1.18,1.08,4.23,1.9,2.71.73,5.91,1.59,9.97,1.35Z"/>
  <path class="cls-1" d="M334.9,120.66c4.15-.24,7.16-1.35,10.81-2.71,2.72-1.01,5-1.85,5.08-2.89.08-1.15-2.63-1.82-4.9-2.38-3.55-.87-6.32-1.56-11.52-1.37-6.11.22-11.62,1.49-12.3,1.65-6.03,1.4-4.8,2.68-3.59,3.94.34.35,1.37,1.25,4.89,2.19,3.13.84,6.83,1.83,11.53,1.56Z"/>
  <path class="cls-1" d="M334.86,121.37c5.49-.32,9.47-1.79,14.29-3.58,3.6-1.33,6.62-2.45,6.72-3.82.11-1.53-3.48-2.41-6.48-3.15-4.69-1.16-8.36-2.06-15.23-1.82-8.08.29-15.37,1.97-16.27,2.18-7.97,1.85-6.35,3.54-4.75,5.21.45.47,1.81,1.65,6.47,2.9,4.14,1.11,9.04,2.42,15.25,2.07Z"/>
  <path class="cls-1" d="M334.85,121.76c5.83-.34,10.06-1.9,15.2-3.8,3.82-1.42,7.03-2.6,7.14-4.06.12-1.62-3.7-2.56-6.89-3.35-4.99-1.23-8.88-2.19-16.19-1.93-8.59.31-16.33,2.1-17.29,2.32-8.48,1.96-6.75,3.76-5.05,5.54.48.5,1.92,1.75,6.88,3.08,4.4,1.18,9.61,2.58,16.21,2.2Z"/>
  <path class="cls-1" d="M339.43,122.92c7.65-.44,13.21-2.5,19.94-4.99,5.02-1.86,9.23-3.42,9.37-5.33.16-2.13-4.85-3.36-9.04-4.4-6.55-1.61-11.66-2.87-21.25-2.53-11.27.4-21.43,2.75-22.69,3.04-11.12,2.57-8.86,4.94-6.62,7.27.62.65,2.52,2.3,9.02,4.05,5.78,1.55,12.61,3.38,21.27,2.88Z"/>
  <path class="cls-1" d="M334.81,119.71c2.47-.14,4.26-.81,6.43-1.61,1.62-.6,2.97-1.1,3.02-1.72.05-.69-1.56-1.08-2.91-1.42-2.11-.52-3.76-.93-6.85-.82-3.63.13-6.91.89-7.31.98-3.59.83-2.86,1.59-2.13,2.34.2.21.81.74,2.91,1.3,1.86.5,4.06,1.09,6.86.93Z"/>
  <path class="cls-1" d="M347.68,125.03c9.94-.57,17.15-3.24,25.9-6.48,6.52-2.41,11.99-4.44,12.17-6.92.2-2.76-6.3-4.37-11.74-5.71-8.5-2.1-15.14-3.73-27.6-3.29-14.64.52-27.84,3.58-29.47,3.95-14.45,3.34-11.51,6.41-8.6,9.45.81.85,3.27,2.99,11.72,5.25,7.5,2.01,16.37,4.39,27.62,3.74Z"/>
  <path class="cls-1" d="M307.65,53.16c-.87-3.86,2.59-7.65,6.79-12.25,3.13-3.43,5.75-6.31,10.22-7.46,4.98-1.29,9.14.36,12.63,1.74,5.44,2.16,9.69,3.85,11.28,8.56,1.87,5.54-1.13,11.67-1.51,12.43-3.29,6.71-9.43,7-15.5,7.29-1.69.08-6.06.13-11.8-1.93-5.1-1.83-11.13-4-12.11-8.37Z"/>
  <path class="cls-1" d="M304.45,53.79c-1.01-4.46,2.99-8.85,7.84-14.16,3.62-3.96,6.65-7.29,11.81-8.63,5.76-1.49,10.57.41,14.6,2.01,6.29,2.5,11.2,4.45,13.05,9.89,2.17,6.4-1.31,13.5-1.74,14.37-3.8,7.76-10.9,8.09-17.92,8.42-1.96.09-7,.15-13.64-2.23-5.89-2.12-12.86-4.63-14-9.67Z"/>
  <path class="cls-1" d="M300.88,54.71c-1.34-5.9,3.96-11.7,10.37-18.73,4.78-5.24,8.79-9.64,15.62-11.41,7.61-1.98,13.97.55,19.3,2.66,8.32,3.3,14.81,5.88,17.25,13.08,2.86,8.47-1.73,17.85-2.3,19-5.03,10.26-14.42,10.7-23.69,11.14-2.59.12-9.26.2-18.03-2.95-7.79-2.8-17.01-6.12-18.52-12.79Z"/>
  <path class="cls-1" d="M298.95,55.19c-1.42-6.27,4.21-12.43,11.03-19.91,5.08-5.57,9.35-10.25,16.6-12.13,8.09-2.1,14.85.58,20.52,2.83,8.84,3.51,15.75,6.25,18.34,13.91,3.04,9-1.84,18.97-2.45,20.2-5.35,10.91-15.32,11.38-25.18,11.84-2.75.13-9.84.21-19.17-3.14-8.29-2.98-18.08-6.5-19.69-13.6Z"/>
  <path class="cls-1" d="M290.65,52.01c-1.86-8.22,5.52-16.32,14.47-26.13,6.67-7.31,12.27-13.45,21.78-15.92,10.62-2.76,19.49.76,26.92,3.71,11.61,4.61,20.66,8.2,24.06,18.25,3.99,11.81-2.42,24.89-3.21,26.51-7.02,14.32-20.11,14.93-33.05,15.53-3.61.17-12.92.28-25.16-4.12-10.87-3.91-23.72-8.53-25.83-17.84Z"/>
  <path class="cls-1" d="M309.27,52.73c-.6-2.65,1.78-5.26,4.66-8.42,2.15-2.36,3.95-4.33,7.02-5.13,3.42-.89,6.28.25,8.68,1.2,3.74,1.48,6.66,2.64,7.76,5.88,1.29,3.81-.78,8.02-1.03,8.54-2.26,4.62-6.48,4.81-10.65,5.01-1.16.05-4.16.09-8.11-1.33-3.5-1.26-7.65-2.75-8.33-5.75Z"/>
  <path class="cls-1" d="M316.2,53.01c-.32-1.42.95-2.81,2.49-4.5,1.15-1.26,2.11-2.31,3.75-2.74,1.83-.47,3.35.13,4.63.64,2,.79,3.56,1.41,4.14,3.14.69,2.03-.42,4.28-.55,4.56-1.21,2.46-3.46,2.57-5.69,2.67-.62.03-2.22.05-4.33-.71-1.87-.67-4.08-1.47-4.45-3.07Z"/>
</svg>