<?xml version="1.0" encoding="UTF-8"?>
<svg id="Layer_1" data-name="Layer 1" xmlns="http://www.w3.org/2000/svg" viewBox="0 0 182.07 175.62">
  <defs>
    <style>
      .cls-1 {
        fill: none;
        stroke: #f1f0ef;
        stroke-miterlimit: 10;
      }
    </style>
  </defs>
  <path class="cls-1" d="M176.05,90.41c1.5.86,3.31,1.9,5.52,2.82v-5.96c-.73-.1-1.51-.18-2.4-.25-3.53-.28-6.42-.14-8.2,0,1.19.91,2.9,2.14,5.08,3.39Z"/>
  <path class="cls-1" d="M173.7,68.53c-2.88.15-3.02,1.09-5.86,1.51-2.38.35-2.87-.23-7.81-.38-1.67-.05-3.03-.03-3.91,0,.85.51,7.37,4.35,11.72,4.53.93.04,1.95,0,1.95,0,2.72-.1,4.61-.58,5.47-.75,2.66-.55,3.71.1,6.3.49v-4.63c-.93-.11-2.1-.23-3.57-.39-3.65-.39-3.89-.4-4.3-.38Z"/>
  <path class="cls-1" d="M173.7,56.08c-2.11,1.03-1.76,2.29-3.91,4.15-2.81,2.44-6.47,2.95-7.03,3.02-2.17.27-3.46-.14-5.86.75-.33.12-2.45.93-2.34,1.51.09.48,1.64.49,4.69.75,4.4.39,4.15.64,6.64.75,2.57.12,2.66-.15,7.42-.38,4.25-.2,6.5-.31,8.26-.05v-13.71c-1.09.66-1.74,1.37-3.57,2.07-2.19.83-2.79.4-4.3,1.13Z"/>
  <path class="cls-1" d="M181.51,79.47s.03.02.05.03v-2.11c-1.25-.02-2.57-.07-3.96-.18.84.53,2.19,1.35,3.91,2.26Z"/>
  <path class="cls-1" d="M135.03,71.17c-5.85-.71-10.84.1-14.84.75-5.17.84-5.47,1.49-10.94,2.26-2.02.29-6.27.81-11.72.75-2.77-.03-7.05-.09-12.5-1.13-2.18-.42-3.93-.91-7.42-1.89-4.25-1.19-5.63-1.77-7.03-2.64-1.7-1.05-1.49-1.33-2.73-1.89-2.51-1.12-4.97-.75-7.42-.38-1.5.23-3.07.48-4.69,1.51-.88.56-.82.74-1.56,1.13-2.27,1.2-4.83.54-5.47.38-1.81-.47-2.83-1.36-4.3-2.64-.54-.47-.88-.84-.78-1.13.16-.46,1.42-.52,2.34-.38,1.07.17,1.27.54,2.73,1.13,1.27.52,2.14.87,3.13.75,1.01-.11,1.35-.62,2.73-1.51,2.69-1.74,4.32-1.73,4.3-2.26-.04-.79-3.65-1.44-7.03-1.51-4.84-.1-8.59,1.01-10.16,1.51-9.2,2.94-9,5.94-15.63,7.54-2.98.72-6.67.48-14.06,0-5.13-.33-8.03-.87-11.47-.69v9.08c4.46.1,6.78.18,7.18.29,1.54.44,4.26,1.41,7.03.75.47-.11,1.85-.44,1.95-1.13.02-.11.03-.47-.78-1.13-.52-.43-2.12-1.74-4.3-1.51-1.64.17-1.76,1.03-3.52,1.13-1.25.07-2.67-.27-2.73-.75-.02-.15.08-.44,1.56-1.13,2.03-.94,3.26-1.51,5.08-1.51,2.5,0,4.24,1.11,5.47,1.89,1.12.71,3.85,2.44,3.52,4.15-.15.78-.9,1.32-1.17,1.51-1.02.73-2.17.74-2.73.75-2.76.09-2.88.83-5.86,1.13-2.02.2-1.78-.15-8.2-.75-.47-.04-1.34-.12-2.49-.15v5.87c2.91.13,5.89-.45,7.96-.82,5.65-1.01,8.47-1.52,10.94-1.51,6.58.02,12.24,2.16,12.5,2.26,2.46.95,4.31,2.03,7.81,2.64,2.11.37,3.89.4,5.08.38-.18-.17-.45-.43-.78-.75-3.12-3.03-3.36-3.55-4.3-4.15-.74-.48-2.06-.69-4.69-1.13-3.33-.55-6.25-.75-6.25-.75-2.93-.2-3.68-.05-4.69-.75-1.31-.92-1.76-2.39-1.95-3.02-.26-.84-.64-2.08,0-3.02.3-.45.78-.74,2.34-1.13,3.2-.8,4.37-.38,7.03-1.13,1.2-.34,1.8-.51,2.34-.75,1.05-.48,1.66-.96,1.95-.75.3.22.04,1.02,0,1.13-.49,1.47-2.16,2.63-3.91,3.02-.82.18-1.06.06-2.73.38-1.59.3-1.88.51-1.95.75-.15.52.75,1.2,1.17,1.51,1.6,1.18,3.29,1.47,3.52,1.51,4.77.76,6.15.04,8.59.75,1.59.46,1.32.86,6.25,4.53,3.69,2.75,5.54,4.12,7.03,4.53,3.21.87,6.1-.01,9.77-1.13,1.65-.5,2.86-1.01,7.81-3.39,9.29-4.48,8.67-4.46,10.16-4.9,4.48-1.34,8.25-.95,13.67-.38,4.03.42,6.22,1.02,11.72,2.26,9.38,2.12,14.07,3.18,18.36,3.77,11.83,1.62,11.36-1.04,20.7.75,4.56.88,9.29,2.47,18.75,5.66,3.04,1.02,6.82,2.35,12.11,2.64,1.76.1,3.35.06,4.74-.04v-.88c-2.92-.71-4.93-1.84-6.3-2.86-2.47-1.82-3.79-3.93-7.81-6.04-1.53-.8-2.76-1.24-3.52-1.51-4.57-1.62-6.75-1.11-12.89-1.89-2.44-.31-6.41-.81-11.33-2.26-3.66-1.08-4.29-1.63-6.64-1.89-3.94-.43-6.25.69-9.77,1.51-5.27,1.23-9.39.89-15.63.38-8.23-.68-7.93-2.17-14.84-2.26-5.66-.07-6.59.92-12.11.38-5.5-.54-5.69-1.64-9.77-1.51-4.92.16-5.45,1.79-10.94,1.89-2.77.05-5.32.1-8.2-1.13-3.68-1.57-4.34-3.68-6.64-3.39-2.29.28-3.69,2.63-5.86,2.26-.65-.11-2.6-.5-1.95-.38,0,0,2.78-3.74,5.86-4.53,3.04-.78,4.07,1.91,9.77,3.02,1.06.21,4.37.81,8.2,0,5.36-1.14,5.68-3.77,9.38-3.77,2.46,0,2.49,1.16,8.98,3.77,3.56,1.43,5.33,2.14,7.42,2.26,3.76.22,4.14-1.29,8.98-1.89,4.75-.58,8.9.31,10.94.75,4,.86,4.07,1.56,6.25,1.51,3.58-.09,4.76-2.01,8.98-3.77,1.04-.43,5.95-2.39,11.33-1.89,3.33.32,3.93,1.3,12.11,4.9,5.75,2.53,8.62,3.8,11.72,4.53,3.34.79,8.44,1.4,15.24,0-2.3-1.05-5.79-2.57-10.16-4.15-3.93-1.42-5.33-1.72-13.28-4.15-12.03-3.67-11.7-3.86-14.06-4.15Z"/>
  <path class="cls-1" d="M58.85,122.47c-3.63.68-5.4-1.04-8.59-.38-.66.14-1.63.43-2.73,1.13,4.26.45,7.82,1.19,10.55,1.89,2.8.72,6.49,1.68,10.94,3.77,3.88,1.83,3.55,2.27,6.25,3.39,5.55,2.32,10.69,2.05,13.67,1.89,3.72-.2,8.72-.47,13.67-3.39,4.34-2.57,3.86-4.35,8.98-7.17,4.82-2.65,8.66-2.96,9.77-3.02,2.05-.11,5.77-.32,8.59,1.89,1.16.91.94,1.26,1.95,1.89,3.16,1.95,7.78.06,9.77-.75,3.6-1.47,3.86-2.6,7.03-4.15,2.27-1.11,5.45-2.15,9.77-2.26-4.51-1.22-8.09-1.29-10.55-1.13-3.21.21-5.29.88-8.59,0-.7-.19-2.94-.84-5.08-2.64-1-.84-3.19-2.69-2.73-4.15.49-1.58,3.62-1.29,3.91-2.64.24-1.13-1.67-2.66-3.52-3.39-2.75-1.1-4.69-.17-8.59,0-3.74.17-3.55-.72-7.81-.75-3.72-.03-4.16.5-6.25,0-2.76-.66-2.58-1.72-5.86-2.64-2.21-.62-4.23-1.19-6.25-.38-1.34.54-2.11,1.46-3.13,1.13-.68-.22-1.27-.93-1.17-1.51.09-.56.8-.84,2.73-1.51,2.8-.97,4.2-1.46,4.69-1.51,1.83-.18,3.2.2,5.08.75,3.18.93,3.23,1.6,5.47,2.26,3.28.98,6.26.47,8.98,0,3.33-.57,3.22-1.15,6.25-1.51,2.48-.3,3.21.01,7.03,0,.51,0,3.8-.02,7.03-.38,2.51-.28,6.01-.87,10.16-2.26-2.88-.26-7.38-.66-12.89-1.13-16.71-1.42-17.12-1.25-21.49-1.89-10.75-1.56-10.85-2.93-20.31-3.77-10.53-.94-14.86.35-17.97,2.64-2.45,1.81-3.87,4.04-4.69,5.66,3.99-.96,6.67-.09,7.81.38,2.26.93,3.86,2.52,5.86,4.53,2.38,2.38,2.06,2.77,3.52,3.77,2.89,1.99,6.3,1.93,7.81,1.89,3.94-.12,4.05-1.52,8.2-1.89,3.4-.3,5.97.41,8.59,1.13,3.5.97,6.73,1.86,7.42,4.15.28.92.1,1.92-.39,2.64-.99,1.43-3.4,1.95-4.3,1.13-.27-.25-.51-.71-.39-1.13.27-.98,2.21-.85,2.34-1.51.1-.5-.88-1.17-3.13-2.26-2.81-1.36-4.21-2.04-5.47-2.26-2.45-.43-3.11.41-7.42,1.13-3.02.51-5.72.96-8.98.38-3.86-.69-6.67-2.51-7.42-3.02-2.78-1.88-2.54-2.84-4.69-3.77-2.28-.99-3.93-.52-7.81-.38-2.11.08-5.18.07-8.98-.38.46.24,1.17.7,1.56,1.51.23.47.35,1.09,0,3.02-.43,2.37-.8,2.41-.78,3.39.03,1.44.83,2.91,1.95,3.77,1.47,1.13,3.23.99,5.86.75,4.12-.37,4.06-1.32,7.42-1.51,1.14-.06.65.07,7.03.38,2.27.11,2.94.12,3.91,0,2.43-.3,3.13-1.01,5.08-1.51,3.49-.9,6.63-.02,7.81.38,1.71.58,4.92,1.67,5.86,4.53.16.47.76,2.57-.39,4.15-1.08,1.47-2.78,1.25-8.2,2.26-3.97.74-5.98,1.13-7.42,2.26-2.16,1.69-1.56,2.98-3.52,4.15-2.69,1.61-6.18.59-8.2,0-3.05-.89-5.25-2.5-6.64-3.77,0-.06,0-1.02.78-1.51.69-.43,1.69-.29,2.34.38,1.35.99,2.62,1.55,3.52,1.89,1.39.51,2.46.91,3.91.75,1.81-.2,3.04-1.14,3.52-1.51,1.13-.89,1.12-1.41,1.95-2.26,1.61-1.64,3.87-1.94,6.25-2.26,3.34-.45,4.35.26,6.25-.75.28-.15,2.51-1.36,2.34-2.64-.21-1.65-4.39-3.14-7.81-2.26-1.88.48-1.75,1.22-3.91,2.26-5.44,2.63-11.82.6-12.5.38-1.62-.54-2.02-.95-3.52-1.13-2.47-.3-3.66.57-6.25,1.13-.53.12-4.83,1-9.38-.38-2.13-.65-4.45-1.35-5.47-3.39-.8-1.6-.73-3.9,0-5.66.52-1.24,1.2-1.81,1.17-3.02-.02-1.14-.66-2.06-1.17-2.64-1.06.05-2.7.09-4.69,0-3.43-.16-4.32-.54-5.86,0-1.71.6-1.56,1.41-3.91,3.02-.53.36-1.58,1.04-5.86,2.64-3.49,1.31-5.24,1.96-6.64,2.26-1.5.33-2.11.3-11.72,0-4.53-.14-5.74-.18-7.81-.38-3.36-.33-4.18-.62-5.86-.75-1.58-.13-3.59-.08-6.01.46v2.13c.43.02.86.04,1.32.05,5.18.18,6.92-.04,10.16,0,11.73.13,13.67,3.21,19.53,1.13,2.74-.97,3.08-1.91,6.25-2.64,2.87-.66,7.11-.92,9.38-.75.75.05,1.38.16,2.34,0,1.2-.2,1.65-.61,2.34-.38.66.22,1.28.95,1.17,1.51-.19,1-2.68,1.31-4.3,1.51-4.83.58-5.65-.62-8.59,0-3.57.76-2.99,2.66-6.64,3.39-3.17.64-4.24-.66-7.81.38-.79.23-2.33.69-3.91,1.89-1.94,1.47-1.54,2.25-3.13,3.39-1.71,1.24-2.91.86-6.64,1.89-1.89.52-3.37,1.11-4.3,1.51.38.43,1.02,1.04,1.95,1.51.64.32,1.37.56,3.91.75,2.54.2,3.81.29,5.08,0,.93-.22,2.15-.52,3.13-1.51.59-.6.66-1.02,1.17-1.89.8-1.33,1.71-2.13,2.73-3.02,1.93-1.67,4.05-2.46,6.64-3.39,2.13-.77,4.99-1.78,8.98-2.26,2.22-.27,5.01-.58,8.59,0,4.33.71,7.05,2.28,8.59,3.39.9.65,3.11,2.25,2.73,3.39-.24.72-1.41.96-2.34,1.13Z"/>
  <path class="cls-1" d="M180.34,117.94c-2.4.31-2.2,1.08-5.86,1.89-1.2.26-2.75.43-5.86.75-2.73.29-4.11.43-5.08.38-1.92-.1-2.55-.44-4.69-.38-.85.02-1.86.06-3.13.38-.45.11-2.05.53-3.52,1.51-2.53,1.69-2.21,3.4-4.3,5.28-1.83,1.64-4,2.06-5.08,2.26-1.92.36-4.08.25-12.11-3.02-6.66-2.71-6.48-3.17-8.59-3.39-5.29-.57-9.69,1.91-10.94,2.64-3.21,1.87-2.98,2.98-6.64,5.66-1.35.98-5.07,3.66-10.16,4.9-5.83,1.42-10.69.3-15.24-.75-5.27-1.22-9.62-3.19-11.72-4.15-4.08-1.87-5.39-2.95-9.38-4.15-3.44-1.03-6.31-1.37-7.81-1.51-1.62-.14-3.99-.34-7.03,0-2.4.27-3.75.71-7.81,1.13-1.81.19-3.52.3-4.69-.75-.1-.09-1.02-.92-.78-1.51.4-.98,3.39.22,7.42-.75,1.05-.25,2.26-.8,4.69-1.89,3.47-1.56,3.29-1.79,4.69-2.26,4.39-1.48,8.49.07,8.59-.38.07-.29-1.61-.88-2.34-1.13-2.78-.97-5.22-1.82-8.59-1.89-2.57-.05-4.32.38-7.42,1.13-4.36,1.06-6.54,1.6-8.59,3.39-2.01,1.76-3.01,3.94-3.52,5.66.58.3,1.38.69,2.34,1.13,4.42,2.01,8.13,3,9.77,3.39,4.65,1.13,6.97,1.7,10.16,1.51,1.44-.09,3.38-.34,5.86.38,1.84.53,3.63,1.51,3.52,1.89-.15.49-3.39-.49-8.98-.75-4.37-.2-4.32.3-7.81,0-3.2-.28-5.64-.91-9.38-1.89-4.27-1.11-3.95-1.32-6.64-1.89-4.34-.91-4.81-.29-9.38-1.13-3.23-.6-3.08-.93-7.81-1.89-3.24-.66-4.88-.82-6.01-.81v48.19h181.07v-57.27c-.4,0-.81.03-1.22.09Z"/>
  <path class="cls-1" d="M173.31,116.81c4.24-.12,6-1.36,8.26-1.71v-13.18c-2.66.19-4.19.21-5.52.18-5.8-.11-8.58-.89-9.38-1.13-1.19-.36-4.33-1.39-4.69-1.51-3.78-1.24-4.07-1.41-5.08-1.51-1.84-.17-1.51.33-5.86.75-2.52.25-3.69.18-4.69,1.13-.6.57-.92,1.3-1.17,1.89-.67,1.55-.29,1.99-.78,3.02-.93,1.94-3.38,2.6-3.52,2.64-1.58.41-2.12-.23-3.52.38-.28.12-1.72.75-1.95,1.89-.33,1.62,2.02,3.18,2.34,3.39,2.48,1.65,5.33,1.37,8.2,1.13,6.3-.53,9.45-.79,11.72-.75,8.14.12,8.39,3.59,15.63,3.39Z"/>
  <path class="cls-1" d="M4.16,53.06c4.19-.65,8.02-1.24,12.5-3.39,4.96-2.38,5.17-4.01,10.16-6.04,1.78-.72,5.65-2.26,10.55-2.26,4.7,0,6.11,1.41,14.45,3.77,8.35,2.37,8.19,1.3,12.89,3.02,2.76,1.01,3.88,1.76,14.84,9.05,9.45,6.29,14.27,9.41,18.75,8.68,3.02-.5,5.08-1.51,5.08-1.51,2.85-1.4,3.36-2.77,6.25-3.77,1.24-.43,2.26-.54,4.3-.75,4.13-.44,3.77.4,7.03,0,.67-.08,1.82-.26,2.73.38.32.22.9.74.78,1.13-.23.73-2.79.31-6.64.38-3.23.06-5.7.1-8.2,1.13-1.37.56-3.24,1.62-5.08,3.77,1.45.4,3.63.84,6.25.75,3.51-.11,4.98-1.06,8.2-1.89,7.36-1.88,8.61.83,14.84-1.13,3.63-1.14,3.56-2.17,8.2-3.77,3.67-1.26,6.87-1.71,8.98-1.89-5.75-4.18-10.21-4.8-13.28-4.53-3.58.32-4.21,1.74-10.16,2.64-4,.6-7.38,1.07-10.94-.38-2.85-1.16-2.74-2.3-5.86-3.39-2.56-.9-4.69-.86-8.2-.75-4.6.14-5.31.83-9.77.75-5.76-.09-6.74-1.28-7.03-1.89-.21-.44-.35-1.17,0-1.51.5-.5,1.79.08,2.73.38.49.15,1.44.41,6.64,0,4.91-.39,5.63-.74,10.16-1.13,5.49-.47,6.82-.16,7.42,0,2.92.79,3.2,2,5.86,3.02,2.73,1.04,5.24.71,10.16,0,7.88-1.14,7.97-2.55,12.11-2.26,1.22.08,5.44.37,9.38,3.02,3.06,2.05,3.15,3.65,5.86,4.53,3.48,1.12,6.91-.36,7.81-.75,2.96-1.28,2.9-2.59,6.64-5.28,1.33-.96,4.16-2.96,8.2-4.15.64-.19,1.6-.46,2.79-.68V.5H.5v52.98c1.03-.07,2.17-.19,3.66-.42Z"/>
  <path class="cls-1" d="M14.71,117.56c.77-.52,1.27-1.11,1.56-1.51-7.5-1.47-12.48-1.83-15.77-1.56v5.23c1.71-.56,2.79-.87,4.05-1.04,4.62-.6,7.43.71,10.16-1.13Z"/>
  <path class="cls-1" d="M15.1,107c3.31.32,3.77.58,6.25.75,1.72.12,5.33.36,9.38-.38,6.12-1.11,11.12-4.04,10.94-4.53-.07-.18-.88.03-5.08.75-3.77.65-5.65.97-7.03,1.13-4.86.55-4.21-.44-9.77,0,0,0-3.93.31-8.2-.38-.24-.04-.99,0-1.17-.38-.04-.09-.07-.25,0-.38.32-.53,2.09.46,4.3,0,.28-.06.35-.09,1.17-.38,2.44-.84,3.66-1.26,4.69-1.51,2.21-.53,4.05-.44,5.47-.38,2.17.1,2.07.38,3.52.38,3.29-.02,6.69-1.51,6.64-2.64-.02-.38-.66-.76-1.95-1.51-1.57-.9-2.35-1.35-3.13-1.51-1.63-.33-2.57.56-5.47,1.89-1.91.87-3.47,1.37-6.64,2.26-4.47,1.26-8.21,1.19-10.94,1.13-1.08-.02-3.38-.16-7.57-.71v2.65c2.95.26,6.03.77,6.01,1.08-.02.23-1.79.21-5.86.38-.05,0-.1,0-.15,0v2.22c2.06-.25,4.04-.3,6.01-.34,3.75-.09,6.94.22,8.59.38Z"/>
  <path class="cls-1" d="M8.07,98.33c3.69-.07,6.65-.77,9.77-1.51,3.58-.85,6.5-1.84,8.59-2.64-1.75-.28-4.32-.57-7.42-.38-3.56.22-4.5.86-8.59,1.51-3.23.51-6.36,1.01-9.91.68v1.38c4.58.77,5.31,1,7.57.96Z"/>
  <path class="cls-1" d="M64.71,54.57c-3.3-2.06-7.54-3.26-16.02-5.66-2.89-.82-4.71-1.25-7.03-1.51-2.69-.3-6.14-.64-9.77.75-.96.37-.63.36-3.13,1.51-3.35,1.54-4.47,1.81-6.25,2.64-3.05,1.43-3.05,2.2-6.25,4.15-1.99,1.21-5.04,3.07-8.98,3.77-.77.14-2.89.06-6.79-.15v7.56c4.81-.62,9.77-.43,14.21-.25,3.51.14,6.54.42,10.55-.75,2.94-.86,5.6-2.26,5.47-2.64-.12-.37-2.7.55-7.03.75-1.96.09-2.72-.03-8.2-.38-2.86-.18-5.18-.3-6.64-.38-.86-.1-1.36-.9-1.17-1.51.16-.53.84-.92,1.56-.75,5.5.73,10.06.63,13.28.38,3.09-.25,6.1-.72,9.38-1.89,3.29-1.17,5.62-2.59,5.47-3.02-.24-.67-6.83.14-9.77-.75-.31-.1-1.15-.35-1.17-.75-.02-.28.36-.54.78-.75,1.54-.79,3.17-.75,3.91-.75,1.02,0,.19-.11,4.69-.75,5.32-.77,7.98-1.15,9.77-1.13,4.42.05,7.89,1.16,11.33,2.26,2.45.79,4.23,1.55,5.86,2.26,3.05,1.33,6.49,3.04,10.16,5.28-3.01-3.93-6.11-6.23-8.2-7.54Z"/>
</svg>