<?xml version="1.0" encoding="UTF-8"?>
<svg id="Layer_1" data-name="Layer 1" xmlns="http://www.w3.org/2000/svg" viewBox="0 0 110.54 106.6">
  <defs>
    <style>
      .cls-1 {
        fill: none;
        stroke: #f1f0ef;
        stroke-miterlimit: 10;
        stroke-width: .05px;
      }
    </style>
  </defs>
  <path class="cls-1" d="M107.14,54.89c.91.53,2.02,1.16,3.37,1.72v-3.64c-.44-.06-.92-.11-1.46-.16-2.16-.17-3.92-.09-5.01,0,.72.56,1.77,1.3,3.1,2.07Z"/>
  <path class="cls-1" d="M105.71,41.54c-1.76.09-1.85.67-3.58.92-1.45.21-1.75-.14-4.77-.23-1.02-.03-1.85-.02-2.38,0,.52.31,4.5,2.66,7.15,2.76.57.02,1.19,0,1.19,0,1.66-.06,2.81-.35,3.34-.46,1.62-.33,2.27.06,3.85.3v-2.82c-.57-.06-1.28-.14-2.18-.24-2.22-.24-2.37-.24-2.62-.23Z"/>
  <path class="cls-1" d="M105.71,33.94c-1.29.63-1.08,1.39-2.38,2.53-1.71,1.49-3.95,1.8-4.29,1.84-1.33.17-2.11-.08-3.58.46-.2.08-1.5.57-1.43.92.05.29,1,.3,2.86.46,2.68.24,2.53.39,4.05.46,1.57.07,1.62-.09,4.53-.23,2.59-.12,3.97-.19,5.04-.03v-8.36c-.67.4-1.06.84-2.18,1.26-1.33.51-1.7.24-2.62.69Z"/>
  <path class="cls-1" d="M110.48,48.21s.02.01.03.02v-1.29c-.77-.01-1.57-.04-2.42-.11.51.32,1.33.83,2.38,1.38Z"/>
  <path class="cls-1" d="M82.11,43.15c-3.57-.43-6.62.06-9.06.46-3.16.51-3.34.91-6.67,1.38-1.23.17-3.83.49-7.15.46-1.69-.02-4.3-.05-7.63-.69-1.33-.25-2.4-.55-4.53-1.15-2.6-.73-3.44-1.08-4.29-1.61-1.04-.64-.91-.81-1.67-1.15-1.53-.69-3.03-.46-4.53-.23-.92.14-1.87.29-2.86.92-.54.34-.5.45-.95.69-1.39.73-2.95.33-3.34.23-1.11-.29-1.73-.83-2.62-1.61-.33-.29-.54-.51-.48-.69.1-.28.87-.32,1.43-.23.65.1.78.33,1.67.69.78.31,1.3.53,1.91.46.62-.07.83-.38,1.67-.92,1.64-1.06,2.64-1.06,2.62-1.38-.02-.48-2.23-.88-4.29-.92-2.95-.06-5.24.62-6.2.92-5.61,1.79-5.49,3.62-9.53,4.6-1.82.44-4.07.29-8.58,0-3.13-.2-4.9-.53-7-.42v5.54c2.72.06,4.13.11,4.38.18.94.27,2.6.86,4.29.46.29-.07,1.13-.27,1.19-.69.01-.07.02-.28-.48-.69-.32-.26-1.3-1.06-2.62-.92-1,.11-1.07.63-2.15.69-.76.04-1.63-.17-1.67-.46-.01-.09.05-.27.95-.69,1.24-.57,1.99-.92,3.1-.92,1.53,0,2.59.68,3.34,1.15.68.43,2.35,1.49,2.15,2.53-.09.48-.55.8-.72.92-.62.44-1.32.45-1.67.46-1.69.06-1.76.51-3.58.69-1.23.12-1.09-.09-5.01-.46-.29-.03-.82-.07-1.52-.09v3.58c1.77.08,3.6-.27,4.86-.5,3.45-.62,5.17-.93,6.67-.92,4.02.01,7.47,1.32,7.63,1.38,1.5.58,2.63,1.24,4.77,1.61,1.29.22,2.37.25,3.1.23-.11-.11-.28-.26-.48-.46-1.9-1.85-2.05-2.16-2.62-2.53-.45-.29-1.25-.42-2.86-.69-2.03-.34-3.81-.46-3.81-.46-1.79-.12-2.25-.03-2.86-.46-.8-.56-1.08-1.46-1.19-1.84-.16-.51-.39-1.27,0-1.84.18-.27.48-.45,1.43-.69,1.95-.49,2.66-.23,4.29-.69.73-.21,1.1-.31,1.43-.46.64-.29,1.01-.59,1.19-.46.19.13.02.62,0,.69-.3.9-1.32,1.61-2.38,1.84-.5.11-.65.04-1.67.23-.97.18-1.15.31-1.19.46-.09.32.46.73.72.92.97.72,2.01.9,2.15.92,2.91.46,3.75.03,5.24.46.97.28.81.52,3.81,2.76,2.25,1.68,3.38,2.52,4.29,2.76,1.96.53,3.72,0,5.96-.69,1.01-.31,1.74-.61,4.77-2.07,5.67-2.73,5.29-2.72,6.2-2.99,2.74-.82,5.04-.58,8.34-.23,2.46.26,3.79.62,7.15,1.38,5.72,1.3,8.58,1.94,11.2,2.3,7.22.99,6.93-.64,12.63.46,2.78.54,5.67,1.51,11.44,3.45,1.85.62,4.16,1.43,7.39,1.61,1.07.06,2.05.04,2.89-.02v-.54c-1.78-.44-3.01-1.12-3.85-1.74-1.51-1.11-2.31-2.4-4.77-3.68-.93-.49-1.68-.76-2.15-.92-2.79-.99-4.12-.67-7.87-1.15-1.49-.19-3.91-.5-6.91-1.38-2.23-.66-2.62-1-4.05-1.15-2.4-.26-3.81.42-5.96.92-3.22.75-5.73.54-9.53.23-5.02-.41-4.84-1.33-9.06-1.38-3.45-.04-4.02.56-7.39.23-3.36-.33-3.47-1-5.96-.92-3,.1-3.33,1.09-6.67,1.15-1.69.03-3.24.06-5.01-.69-2.24-.96-2.65-2.24-4.05-2.07-1.4.17-2.25,1.6-3.58,1.38-.4-.07-1.59-.31-1.19-.23,0,0,1.7-2.28,3.58-2.76,1.86-.48,2.48,1.17,5.96,1.84.65.13,2.66.5,5.01,0,3.27-.69,3.47-2.3,5.72-2.3,1.5,0,1.52.71,5.48,2.3,2.17.87,3.25,1.31,4.53,1.38,2.29.13,2.53-.79,5.48-1.15,2.9-.36,5.43.19,6.67.46,2.44.53,2.48.95,3.81.92,2.18-.05,2.91-1.23,5.48-2.3.63-.26,3.63-1.46,6.91-1.15,2.03.19,2.4.8,7.39,2.99,3.51,1.54,5.26,2.32,7.15,2.76,2.04.48,5.15.85,9.3,0-1.4-.64-3.53-1.57-6.2-2.53-2.4-.87-3.25-1.05-8.1-2.53-7.34-2.24-7.14-2.36-8.58-2.53Z"/>
  <path class="cls-1" d="M35.63,74.45c-2.21.41-3.3-.64-5.24-.23-.4.08-.99.26-1.67.69,2.6.27,4.77.73,6.44,1.15,1.71.44,3.96,1.02,6.67,2.3,2.37,1.12,2.17,1.38,3.81,2.07,3.38,1.42,6.52,1.25,8.34,1.15,2.27-.12,5.32-.28,8.34-2.07,2.65-1.57,2.36-2.65,5.48-4.37,2.94-1.62,5.28-1.8,5.96-1.84,1.25-.07,3.52-.19,5.24,1.15.71.55.57.77,1.19,1.15,1.93,1.19,4.75.04,5.96-.46,2.2-.9,2.36-1.59,4.29-2.53,1.39-.68,3.32-1.31,5.96-1.38-2.75-.74-4.94-.79-6.44-.69-1.96.13-3.23.53-5.24,0-.43-.11-1.79-.51-3.1-1.61-.61-.52-1.94-1.64-1.67-2.53.3-.96,2.21-.79,2.38-1.61.15-.69-1.02-1.62-2.15-2.07-1.68-.67-2.86-.11-5.24,0-2.28.1-2.17-.44-4.77-.46-2.27-.02-2.54.3-3.81,0-1.69-.4-1.57-1.05-3.58-1.61-1.35-.38-2.58-.73-3.81-.23-.82.33-1.29.89-1.91.69-.42-.13-.77-.57-.72-.92.06-.34.49-.51,1.67-.92,1.71-.59,2.56-.89,2.86-.92,1.11-.11,1.95.12,3.1.46,1.94.57,1.97.97,3.34,1.38,2,.6,3.82.28,5.48,0,2.03-.35,1.97-.7,3.81-.92,1.52-.18,1.96,0,4.29,0,.31,0,2.32-.01,4.29-.23,1.53-.17,3.67-.53,6.2-1.38-1.76-.16-4.5-.41-7.87-.69-10.2-.86-10.45-.76-13.11-1.15-6.56-.95-6.62-1.79-12.4-2.3-6.42-.57-9.07.21-10.96,1.61-1.5,1.1-2.36,2.46-2.86,3.45,2.43-.58,4.07-.06,4.77.23,1.38.57,2.35,1.54,3.58,2.76,1.45,1.45,1.26,1.69,2.15,2.3,1.76,1.22,3.84,1.18,4.77,1.15,2.4-.07,2.47-.93,5.01-1.15,2.08-.18,3.64.25,5.24.69,2.14.59,4.11,1.13,4.53,2.53.17.56.06,1.17-.24,1.61-.6.88-2.07,1.19-2.62.69-.17-.15-.31-.43-.24-.69.17-.6,1.35-.52,1.43-.92.06-.31-.54-.72-1.91-1.38-1.71-.83-2.57-1.25-3.34-1.38-1.5-.26-1.9.25-4.53.69-1.84.31-3.49.59-5.48.23-2.36-.42-4.07-1.53-4.53-1.84-1.7-1.15-1.55-1.73-2.86-2.3-1.39-.61-2.4-.32-4.77-.23-1.29.05-3.16.05-5.48-.23.28.15.72.43.95.92.14.29.22.66,0,1.84-.26,1.45-.49,1.47-.48,2.07.02.88.51,1.78,1.19,2.3.9.69,1.97.61,3.58.46,2.51-.23,2.47-.81,4.53-.92.69-.04.4.04,4.29.23,1.38.07,1.8.07,2.38,0,1.48-.19,1.91-.62,3.1-.92,2.13-.55,4.05-.01,4.77.23,1.04.35,3,1.02,3.58,2.76.09.29.47,1.57-.24,2.53-.66.9-1.7.76-5.01,1.38-2.42.45-3.65.69-4.53,1.38-1.32,1.03-.95,1.82-2.15,2.53-1.64.98-3.77.36-5.01,0-1.86-.54-3.2-1.52-4.05-2.3,0-.04,0-.62.48-.92.42-.26,1.03-.18,1.43.23.83.6,1.6.95,2.15,1.15.85.31,1.5.56,2.38.46,1.1-.12,1.86-.69,2.15-.92.69-.54.68-.86,1.19-1.38.98-1,2.36-1.19,3.81-1.38,2.04-.28,2.65.16,3.81-.46.17-.09,1.53-.83,1.43-1.61-.13-1.01-2.68-1.92-4.77-1.38-1.15.3-1.07.75-2.38,1.38-3.32,1.6-7.21.37-7.63.23-.99-.33-1.23-.58-2.15-.69-1.51-.18-2.23.35-3.81.69-.33.07-2.95.61-5.72-.23-1.3-.39-2.71-.82-3.34-2.07-.49-.98-.45-2.38,0-3.45.32-.76.73-1.1.72-1.84-.01-.7-.4-1.26-.72-1.61-.65.03-1.64.06-2.86,0-2.09-.09-2.64-.33-3.58,0-1.04.36-.95.86-2.38,1.84-.32.22-.96.63-3.58,1.61-2.13.8-3.2,1.2-4.05,1.38-.92.2-1.29.18-7.15,0-2.76-.09-3.51-.11-4.77-.23-2.05-.2-2.55-.38-3.58-.46-.96-.08-2.19-.05-3.66.28v1.3c.26.01.53.02.8.03,3.16.11,4.22-.02,6.2,0,7.16.08,8.34,1.96,11.92.69,1.67-.59,1.88-1.17,3.81-1.61,1.75-.4,4.34-.56,5.72-.46.46.03.84.1,1.43,0,.73-.12,1.01-.37,1.43-.23.41.14.78.58.72.92-.12.61-1.63.8-2.62.92-2.95.35-3.45-.38-5.24,0-2.18.46-1.82,1.62-4.05,2.07-1.93.39-2.59-.4-4.77.23-.48.14-1.42.42-2.38,1.15-1.19.9-.94,1.37-1.91,2.07-1.04.75-1.78.53-4.05,1.15-1.15.32-2.06.68-2.62.92.23.26.62.63,1.19.92.39.2.84.34,2.38.46,1.55.12,2.33.18,3.1,0,.57-.13,1.31-.31,1.91-.92.36-.37.4-.62.72-1.15.49-.81,1.04-1.3,1.67-1.84,1.18-1.02,2.47-1.5,4.05-2.07,1.3-.47,3.04-1.09,5.48-1.38,1.35-.16,3.06-.36,5.24,0,2.64.43,4.3,1.39,5.24,2.07.55.4,1.9,1.37,1.67,2.07-.15.44-.86.58-1.43.69Z"/>
  <path class="cls-1" d="M109.76,71.69c-1.46.19-1.34.66-3.58,1.15-.73.16-1.68.26-3.58.46-1.66.18-2.51.26-3.1.23-1.17-.06-1.56-.27-2.86-.23-.52.01-1.13.04-1.91.23-.28.07-1.25.32-2.15.92-1.54,1.03-1.35,2.08-2.62,3.22-1.12,1-2.44,1.26-3.1,1.38-1.17.22-2.49.15-7.39-1.84-4.07-1.66-3.95-1.93-5.24-2.07-3.23-.35-5.91,1.17-6.67,1.61-1.96,1.14-1.82,1.82-4.05,3.45-.82.6-3.1,2.23-6.2,2.99-3.55.87-6.53.18-9.3-.46-3.21-.74-5.87-1.95-7.15-2.53-2.49-1.14-3.29-1.8-5.72-2.53-2.1-.63-3.85-.84-4.77-.92-.99-.09-2.44-.21-4.29,0-1.47.17-2.29.44-4.77.69-1.11.11-2.15.18-2.86-.46-.06-.06-.62-.56-.48-.92.24-.6,2.07.13,4.53-.46.64-.15,1.38-.49,2.86-1.15,2.12-.95,2.01-1.09,2.86-1.38,2.68-.9,5.18.04,5.24-.23.04-.17-.98-.54-1.43-.69-1.7-.59-3.19-1.11-5.24-1.15-1.57-.03-2.64.23-4.53.69-2.66.65-3.99.97-5.24,2.07-1.23,1.07-1.83,2.4-2.15,3.45.35.18.84.42,1.43.69,2.7,1.23,4.96,1.83,5.96,2.07,2.84.69,4.25,1.04,6.2.92.88-.05,2.07-.21,3.58.23,1.12.33,2.22.92,2.15,1.15-.09.3-2.07-.3-5.48-.46-2.67-.12-2.63.19-4.77,0-1.95-.17-3.44-.56-5.72-1.15-2.61-.68-2.41-.81-4.05-1.15-2.65-.56-2.93-.17-5.72-.69-1.97-.36-1.88-.56-4.77-1.15-1.98-.4-2.98-.5-3.66-.5v29.4h110.49v-34.94c-.24,0-.49.02-.75.05Z"/>
  <path class="cls-1" d="M105.47,71c2.59-.07,3.66-.83,5.04-1.04v-8.04c-1.62.12-2.55.13-3.37.11-3.54-.06-5.24-.55-5.72-.69-.72-.22-2.64-.85-2.86-.92-2.3-.76-2.49-.86-3.1-.92-1.12-.11-.92.2-3.58.46-1.54.15-2.25.11-2.86.69-.37.35-.56.79-.72,1.15-.41.95-.17,1.21-.48,1.84-.57,1.18-2.06,1.59-2.15,1.61-.96.25-1.3-.14-2.15.23-.17.07-1.05.46-1.19,1.15-.2.99,1.23,1.94,1.43,2.07,1.52,1.01,3.25.84,5.01.69,3.84-.32,5.77-.48,7.15-.46,4.97.08,5.12,2.19,9.53,2.07Z"/>
  <path class="cls-1" d="M2.26,32.1c2.56-.4,4.89-.76,7.63-2.07,3.03-1.45,3.15-2.44,6.2-3.68,1.09-.44,3.45-1.38,6.44-1.38,2.87,0,3.73.86,8.82,2.3,5.09,1.44,5,.8,7.87,1.84,1.69.61,2.37,1.07,9.06,5.52,5.77,3.84,8.71,5.74,11.44,5.29,1.84-.3,3.1-.92,3.1-.92,1.74-.86,2.05-1.69,3.81-2.3.75-.26,1.38-.33,2.62-.46,2.52-.27,2.3.25,4.29,0,.41-.05,1.11-.16,1.67.23.19.13.55.45.48.69-.14.45-1.7.19-4.05.23-1.97.04-3.48.06-5.01.69-.84.34-1.98.99-3.1,2.3.89.24,2.21.51,3.81.46,2.14-.07,3.04-.65,5.01-1.15,4.49-1.15,5.25.51,9.06-.69,2.22-.7,2.17-1.33,5.01-2.3,2.24-.77,4.19-1.04,5.48-1.15-3.51-2.55-6.23-2.93-8.1-2.76-2.19.19-2.57,1.06-6.2,1.61-2.44.37-4.5.65-6.67-.23-1.74-.71-1.67-1.4-3.58-2.07-1.56-.55-2.86-.52-5.01-.46-2.8.08-3.24.5-5.96.46-3.52-.06-4.11-.78-4.29-1.15-.13-.27-.21-.71,0-.92.31-.3,1.09.05,1.67.23.3.09.88.25,4.05,0,2.99-.24,3.44-.45,6.2-.69,3.35-.29,4.16-.1,4.53,0,1.78.48,1.96,1.22,3.58,1.84,1.67.64,3.2.43,6.2,0,4.81-.69,4.87-1.55,7.39-1.38.75.05,3.32.23,5.72,1.84,1.87,1.25,1.92,2.23,3.58,2.76,2.12.69,4.21-.22,4.77-.46,1.8-.78,1.77-1.58,4.05-3.22.81-.59,2.54-1.81,5.01-2.53.39-.12.98-.28,1.7-.42V.03H.03v32.33c.63-.04,1.32-.11,2.23-.26Z"/>
  <path class="cls-1" d="M8.7,71.46c.47-.32.77-.68.95-.92-4.58-.9-7.61-1.12-9.62-.95v3.19c1.04-.34,1.7-.53,2.47-.63,2.82-.37,4.53.43,6.2-.69Z"/>
  <path class="cls-1" d="M8.93,65.01c2.02.2,2.3.35,3.81.46,1.05.07,3.25.22,5.72-.23,3.73-.68,6.79-2.47,6.67-2.76-.04-.11-.54.02-3.1.46-2.3.4-3.45.59-4.29.69-2.97.34-2.57-.27-5.96,0,0,0-2.4.19-5.01-.23-.15-.02-.61,0-.72-.23-.03-.06-.04-.16,0-.23.19-.32,1.28.28,2.62,0,.17-.03.21-.06.72-.23,1.49-.51,2.23-.77,2.86-.92,1.35-.32,2.47-.27,3.34-.23,1.32.06,1.26.23,2.15.23,2.01,0,4.08-.92,4.05-1.61-.01-.23-.4-.47-1.19-.92-.96-.55-1.43-.83-1.91-.92-1-.2-1.57.34-3.34,1.15-1.17.53-2.12.84-4.05,1.38-2.73.77-5.01.72-6.67.69-.66-.01-2.06-.1-4.62-.44v1.62c1.8.16,3.68.47,3.66.66,0,.14-1.09.13-3.58.23-.03,0-.06,0-.09,0v1.36c1.26-.15,2.46-.18,3.66-.21,2.29-.05,4.24.13,5.24.23Z"/>
  <path class="cls-1" d="M4.64,59.72c2.25-.04,4.06-.47,5.96-.92,2.18-.52,3.97-1.12,5.24-1.61-1.07-.17-2.64-.35-4.53-.23-2.17.13-2.75.52-5.24.92-1.97.31-3.88.62-6.05.41v.84c2.8.47,3.24.61,4.62.58Z"/>
  <path class="cls-1" d="M39.21,33.02c-2.01-1.26-4.6-1.99-9.77-3.45-1.76-.5-2.87-.76-4.29-.92-1.64-.18-3.74-.39-5.96.46-.59.22-.38.22-1.91.92-2.04.94-2.73,1.1-3.81,1.61-1.86.87-1.86,1.34-3.81,2.53-1.22.74-3.08,1.87-5.48,2.3-.47.08-1.77.04-4.14-.09v4.62c2.93-.38,5.96-.26,8.67-.15,2.14.09,3.99.25,6.44-.46,1.79-.52,3.42-1.38,3.34-1.61-.08-.22-1.65.34-4.29.46-1.19.06-1.66-.02-5.01-.23-1.75-.11-3.16-.18-4.05-.23-.53-.06-.83-.55-.72-.92.1-.32.52-.56.95-.46,3.36.45,6.14.39,8.1.23,1.89-.15,3.72-.44,5.72-1.15,2.01-.71,3.43-1.58,3.34-1.84-.15-.41-4.17.08-5.96-.46-.19-.06-.7-.21-.72-.46-.01-.17.22-.33.48-.46.94-.48,1.93-.46,2.38-.46.62,0,.11-.06,2.86-.46,3.24-.47,4.87-.7,5.96-.69,2.7.03,4.81.71,6.91,1.38,1.5.48,2.58.95,3.58,1.38,1.86.81,3.96,1.86,6.2,3.22-1.84-2.4-3.73-3.8-5.01-4.6Z"/>
</svg>