<?xml version="1.0" encoding="UTF-8"?>
<svg id="Layer_1" data-name="Layer 1" xmlns="http://www.w3.org/2000/svg" viewBox="0 0 440.05 174.95">
  <defs>
    <style>
      .cls-1 {
        stroke-width: .25px;
      }

      .cls-1, .cls-2 {
        fill: none;
        stroke: #f1f0ef;
        stroke-miterlimit: 10;
      }

      .cls-2 {
        stroke-width: .5px;
      }
    </style>
  </defs>
  <g>
    <path class="cls-2" d="M304.95,90.07c1.5.86,3.31,1.89,5.52,2.82v-5.95c-.73-.1-1.5-.18-2.39-.25-3.53-.28-6.41-.14-8.2,0,1.19.91,2.9,2.13,5.07,3.39Z"/>
    <path class="cls-2" d="M302.61,68.21c-2.87.15-3.02,1.09-5.85,1.51-2.38.35-2.87-.23-7.81-.38-1.66-.05-3.02-.03-3.9,0,.85.51,7.36,4.35,11.71,4.52.93.04,1.95,0,1.95,0,2.72-.1,4.61-.58,5.46-.75,2.65-.55,3.71.1,6.3.49v-4.62c-.93-.11-2.1-.23-3.56-.39-3.64-.39-3.88-.4-4.29-.38Z"/>
    <path class="cls-2" d="M302.61,55.78c-2.11,1.03-1.76,2.28-3.9,4.15-2.8,2.44-6.46,2.94-7.02,3.01-2.17.27-3.46-.14-5.85.75-.33.12-2.45.93-2.34,1.51.09.48,1.64.49,4.68.75,4.39.39,4.15.64,6.63.75,2.57.12,2.66-.15,7.41-.38,4.24-.2,6.49-.31,8.25-.05v-13.69c-1.09.66-1.74,1.37-3.56,2.07-2.18.83-2.78.4-4.29,1.13Z"/>
    <path class="cls-2" d="M310.42,79.14s.03.02.05.03v-2.11c-1.25-.02-2.57-.07-3.95-.17.84.53,2.18,1.35,3.9,2.26Z"/>
    <path class="cls-2" d="M263.97,70.85c-5.84-.71-10.83.1-14.83.75-5.17.84-5.47,1.49-10.93,2.26-2.02.29-6.26.81-11.71.75-2.77-.03-7.04-.09-12.49-1.13-2.18-.42-3.92-.91-7.42-1.88-4.25-1.19-5.63-1.77-7.02-2.64-1.7-1.05-1.48-1.32-2.73-1.88-2.5-1.12-4.96-.75-7.42-.38-1.5.23-3.06.48-4.68,1.51-.88.56-.82.74-1.56,1.13-2.27,1.2-4.83.54-5.46.38-1.81-.47-2.83-1.35-4.29-2.64-.53-.47-.88-.84-.78-1.13.16-.46,1.42-.52,2.34-.38,1.07.17,1.27.54,2.73,1.13,1.27.52,2.13.86,3.12.75,1.01-.11,1.35-.62,2.73-1.51,2.69-1.74,4.32-1.73,4.29-2.26-.04-.79-3.65-1.44-7.02-1.51-4.84-.1-8.58,1.01-10.15,1.51-9.19,2.93-8.99,5.93-15.61,7.54-2.98.72-6.67.48-14.05,0-5.13-.33-8.02-.87-11.46-.69v9.07c4.46.1,6.77.18,7.17.29,1.54.44,4.25,1.41,7.02.75.47-.11,1.85-.44,1.95-1.13.02-.11.03-.47-.78-1.13-.52-.43-2.12-1.74-4.29-1.51-1.64.17-1.76,1.03-3.51,1.13-1.25.07-2.67-.27-2.73-.75-.02-.15.08-.44,1.56-1.13,2.02-.94,3.26-1.51,5.07-1.51,2.5,0,4.23,1.11,5.46,1.88,1.12.71,3.85,2.44,3.51,4.15-.15.78-.9,1.31-1.17,1.51-1.02.73-2.17.74-2.73.75-2.76.09-2.88.83-5.85,1.13-2.02.2-1.78-.15-8.2-.75-.47-.04-1.34-.12-2.49-.15v5.87c2.91.13,5.89-.44,7.95-.81,5.64-1.01,8.46-1.52,10.93-1.51,6.58.02,12.23,2.16,12.49,2.26,2.46.95,4.3,2.03,7.81,2.64,2.11.37,3.89.4,5.07.38-.18-.17-.45-.43-.78-.75-3.11-3.03-3.35-3.54-4.29-4.15-.74-.48-2.05-.69-4.68-1.13-3.33-.55-6.24-.75-6.24-.75-2.93-.2-3.68-.05-4.68-.75-1.31-.92-1.76-2.39-1.95-3.01-.25-.83-.63-2.08,0-3.01.3-.45.78-.74,2.34-1.13,3.19-.8,4.36-.38,7.02-1.13,1.2-.34,1.8-.51,2.34-.75,1.05-.48,1.66-.96,1.95-.75.3.22.04,1.02,0,1.13-.49,1.47-2.16,2.63-3.9,3.01-.82.18-1.06.06-2.73.38-1.58.3-1.88.51-1.95.75-.15.52.75,1.19,1.17,1.51,1.59,1.18,3.29,1.47,3.51,1.51,4.76.76,6.14.04,8.59.75,1.59.46,1.32.86,6.24,4.52,3.69,2.75,5.54,4.12,7.02,4.52,3.21.87,6.1-.01,9.76-1.13,1.65-.5,2.85-1,7.81-3.39,9.28-4.47,8.67-4.46,10.15-4.9,4.48-1.34,8.24-.95,13.66-.38,4.03.42,6.21,1.02,11.71,2.26,9.37,2.12,14.05,3.18,18.34,3.77,11.82,1.62,11.35-1.04,20.68.75,4.56.88,9.28,2.47,18.73,5.65,3.03,1.02,6.81,2.35,12.1,2.64,1.75.1,3.35.06,4.74-.04v-.88c-2.92-.71-4.92-1.84-6.3-2.85-2.47-1.82-3.79-3.92-7.81-6.03-1.53-.8-2.76-1.24-3.51-1.51-4.56-1.61-6.74-1.1-12.88-1.88-2.43-.31-6.4-.81-11.32-2.26-3.66-1.08-4.29-1.63-6.63-1.88-3.93-.42-6.24.69-9.76,1.51-5.27,1.23-9.38.89-15.61.38-8.22-.67-7.92-2.17-14.83-2.26-5.66-.07-6.59.92-12.1.38-5.5-.54-5.69-1.64-9.76-1.51-4.91.16-5.45,1.79-10.93,1.88-2.77.05-5.31.1-8.2-1.13-3.68-1.56-4.33-3.68-6.63-3.39-2.29.28-3.69,2.63-5.85,2.26-.65-.11-2.6-.5-1.95-.38,0,0,2.78-3.73,5.85-4.52,3.04-.78,4.06,1.91,9.76,3.01,1.06.21,4.36.81,8.2,0,5.36-1.14,5.68-3.77,9.37-3.77,2.45,0,2.49,1.16,8.98,3.77,3.55,1.43,5.33,2.14,7.42,2.26,3.75.22,4.14-1.29,8.98-1.88,4.74-.58,8.89.31,10.93.75,3.99.86,4.07,1.56,6.24,1.51,3.57-.09,4.76-2.01,8.98-3.77,1.04-.43,5.95-2.39,11.32-1.88,3.33.31,3.93,1.3,12.1,4.9,5.74,2.53,8.61,3.79,11.71,4.52,3.34.79,8.43,1.4,15.22,0-2.29-1.05-5.78-2.57-10.15-4.15-3.93-1.42-5.32-1.72-13.27-4.15-12.02-3.67-11.69-3.86-14.05-4.15Z"/>
    <path class="cls-2" d="M187.87,122.1c-3.62.68-5.4-1.04-8.59-.38-.66.14-1.63.43-2.73,1.13,4.25.45,7.82,1.19,10.54,1.88,2.8.71,6.49,1.68,10.93,3.77,3.88,1.83,3.55,2.26,6.24,3.39,5.54,2.32,10.68,2.04,13.66,1.88,3.72-.2,8.71-.47,13.66-3.39,4.34-2.56,3.86-4.34,8.98-7.16,4.82-2.65,8.65-2.95,9.76-3.01,2.05-.11,5.77-.32,8.59,1.88,1.16.9.94,1.26,1.95,1.88,3.15,1.95,7.77.06,9.76-.75,3.6-1.47,3.86-2.6,7.02-4.15,2.27-1.11,5.44-2.15,9.76-2.26-4.5-1.22-8.08-1.29-10.54-1.13-3.2.21-5.29.88-8.59,0-.7-.19-2.94-.83-5.07-2.64-1-.84-3.18-2.69-2.73-4.15.49-1.58,3.62-1.29,3.9-2.64.24-1.12-1.67-2.65-3.51-3.39-2.75-1.1-4.69-.17-8.59,0-3.74.17-3.55-.72-7.81-.75-3.72-.03-4.16.5-6.24,0-2.76-.66-2.58-1.71-5.85-2.64-2.2-.62-4.22-1.19-6.24-.38-1.34.54-2.11,1.45-3.12,1.13-.68-.22-1.27-.93-1.17-1.51.09-.56.8-.84,2.73-1.51,2.8-.97,4.2-1.46,4.68-1.51,1.82-.18,3.2.2,5.07.75,3.17.93,3.23,1.6,5.46,2.26,3.28.97,6.25.47,8.98,0,3.32-.57,3.22-1.15,6.24-1.51,2.48-.3,3.2.01,7.02,0,.51,0,3.8-.02,7.02-.38,2.51-.28,6.01-.87,10.15-2.26-2.88-.26-7.37-.66-12.88-1.13-16.7-1.41-17.1-1.25-21.46-1.88-10.74-1.56-10.84-2.92-20.29-3.77-10.52-.94-14.84.35-17.95,2.64-2.45,1.81-3.87,4.03-4.68,5.65,3.98-.96,6.67-.09,7.81.38,2.26.93,3.85,2.52,5.85,4.52,2.37,2.38,2.06,2.77,3.51,3.77,2.89,1.99,6.29,1.93,7.81,1.88,3.94-.12,4.05-1.52,8.2-1.88,3.4-.3,5.96.41,8.59,1.13,3.5.97,6.73,1.86,7.42,4.15.28.92.1,1.92-.39,2.64-.98,1.43-3.39,1.95-4.29,1.13-.27-.25-.51-.71-.39-1.13.27-.97,2.2-.85,2.34-1.51.1-.5-.88-1.17-3.12-2.26-2.8-1.36-4.21-2.04-5.46-2.26-2.45-.43-3.11.41-7.42,1.13-3.02.51-5.72.96-8.98.38-3.86-.69-6.66-2.5-7.42-3.01-2.78-1.88-2.54-2.83-4.68-3.77-2.27-.99-3.93-.52-7.81-.38-2.11.08-5.18.07-8.98-.38.46.24,1.17.7,1.56,1.51.23.47.35,1.09,0,3.01-.43,2.37-.8,2.41-.78,3.39.03,1.43.83,2.91,1.95,3.77,1.47,1.13,3.22.99,5.85.75,4.12-.37,4.05-1.32,7.42-1.51,1.14-.06.65.07,7.02.38,2.27.11,2.94.12,3.9,0,2.43-.3,3.12-1.01,5.07-1.51,3.49-.9,6.63-.02,7.81.38,1.71.58,4.92,1.66,5.85,4.52.15.47.76,2.57-.39,4.15-1.07,1.47-2.78,1.25-8.2,2.26-3.96.74-5.98,1.13-7.42,2.26-2.15,1.69-1.56,2.97-3.51,4.15-2.69,1.61-6.17.59-8.2,0-3.05-.89-5.24-2.49-6.63-3.77,0-.06,0-1.02.78-1.51.69-.43,1.69-.29,2.34.38,1.35.98,2.61,1.55,3.51,1.88,1.39.51,2.46.91,3.9.75,1.81-.2,3.04-1.14,3.51-1.51,1.13-.88,1.12-1.41,1.95-2.26,1.61-1.63,3.87-1.94,6.24-2.26,3.34-.45,4.35.26,6.24-.75.28-.15,2.5-1.36,2.34-2.64-.21-1.65-4.38-3.14-7.81-2.26-1.88.48-1.75,1.22-3.9,2.26-5.43,2.63-11.81.6-12.49.38-1.62-.54-2.02-.95-3.51-1.13-2.47-.3-3.65.57-6.24,1.13-.53.12-4.82,1-9.37-.38-2.12-.64-4.44-1.35-5.46-3.39-.8-1.6-.73-3.9,0-5.65.52-1.24,1.2-1.81,1.17-3.01-.02-1.14-.66-2.06-1.17-2.64-1.06.05-2.69.09-4.68,0-3.42-.16-4.32-.54-5.85,0-1.71.6-1.56,1.4-3.9,3.01-.53.36-1.57,1.04-5.85,2.64-3.49,1.31-5.24,1.96-6.63,2.26-1.5.32-2.11.3-11.71,0-4.53-.14-5.74-.18-7.81-.38-3.35-.32-4.18-.62-5.85-.75-1.57-.13-3.58-.08-6,.46v2.13c.43.02.86.04,1.32.05,5.17.18,6.91-.04,10.15,0,11.72.13,13.66,3.2,19.51,1.13,2.73-.97,3.08-1.91,6.24-2.64,2.87-.66,7.1-.92,9.37-.75.75.05,1.38.16,2.34,0,1.2-.2,1.65-.61,2.34-.38.66.22,1.28.95,1.17,1.51-.19,1-2.68,1.31-4.29,1.51-4.82.58-5.64-.62-8.59,0-3.57.75-2.99,2.65-6.63,3.39-3.17.64-4.24-.66-7.81.38-.79.23-2.33.69-3.9,1.88-1.94,1.47-1.54,2.25-3.12,3.39-1.71,1.24-2.91.86-6.63,1.88-1.89.52-3.37,1.11-4.29,1.51.38.43,1.02,1.04,1.95,1.51.64.32,1.37.56,3.9.75,2.54.2,3.81.29,5.07,0,.93-.22,2.15-.51,3.12-1.51.59-.6.65-1.02,1.17-1.88.8-1.33,1.71-2.13,2.73-3.01,1.93-1.67,4.05-2.46,6.63-3.39,2.13-.77,4.99-1.78,8.98-2.26,2.21-.27,5.01-.58,8.59,0,4.33.71,7.04,2.28,8.59,3.39.9.65,3.11,2.25,2.73,3.39-.24.72-1.41.96-2.34,1.13Z"/>
    <path class="cls-2" d="M309.24,117.58c-2.39.31-2.2,1.08-5.85,1.88-1.2.26-2.75.43-5.85.75-2.73.29-4.11.43-5.07.38-1.92-.1-2.55-.44-4.68-.38-.85.02-1.85.06-3.12.38-.45.11-2.05.53-3.51,1.51-2.52,1.68-2.21,3.4-4.29,5.28-1.83,1.64-4,2.06-5.07,2.26-1.91.36-4.07.25-12.1-3.01-6.66-2.71-6.47-3.16-8.59-3.39-5.29-.57-9.68,1.91-10.93,2.64-3.21,1.87-2.98,2.98-6.63,5.65-1.34.98-5.07,3.66-10.15,4.9-5.82,1.42-10.68.3-15.22-.75-5.26-1.22-9.61-3.19-11.71-4.15-4.07-1.87-5.39-2.95-9.37-4.14-3.43-1.03-6.3-1.37-7.81-1.51-1.62-.14-3.99-.34-7.02,0-2.4.27-3.75.71-7.81,1.13-1.81.19-3.52.3-4.68-.75-.1-.09-1.02-.92-.78-1.51.4-.98,3.39.22,7.41-.75,1.04-.25,2.26-.8,4.68-1.88,3.47-1.55,3.29-1.79,4.68-2.26,4.39-1.48,8.48.07,8.59-.38.07-.29-1.61-.88-2.34-1.13-2.78-.97-5.22-1.82-8.59-1.88-2.57-.05-4.32.38-7.42,1.13-4.35,1.06-6.53,1.59-8.59,3.39-2.01,1.76-3,3.94-3.51,5.65.58.3,1.38.69,2.34,1.13,4.42,2.01,8.12,2.99,9.76,3.39,4.64,1.13,6.96,1.7,10.15,1.51,1.44-.09,3.38-.34,5.85.38,1.83.53,3.63,1.51,3.51,1.88-.15.49-3.39-.49-8.98-.75-4.37-.2-4.31.3-7.81,0-3.2-.28-5.63-.91-9.37-1.88-4.27-1.11-3.95-1.32-6.63-1.88-4.34-.91-4.8-.28-9.37-1.13-3.22-.6-3.08-.92-7.81-1.88-3.24-.66-4.88-.82-6-.81v48.14h180.89v-57.21c-.4,0-.81.03-1.22.09Z"/>
    <path class="cls-2" d="M302.22,116.45c4.24-.11,6-1.35,8.25-1.71v-13.17c-2.66.19-4.18.2-5.52.18-5.8-.11-8.57-.89-9.37-1.13-1.19-.35-4.32-1.39-4.68-1.51-3.77-1.24-4.07-1.41-5.07-1.51-1.84-.17-1.51.33-5.85.75-2.52.25-3.69.18-4.68,1.13-.6.57-.91,1.29-1.17,1.88-.67,1.55-.29,1.99-.78,3.01-.93,1.93-3.37,2.6-3.51,2.64-1.58.41-2.12-.23-3.51.38-.28.12-1.72.75-1.95,1.88-.33,1.62,2.02,3.18,2.34,3.39,2.48,1.65,5.32,1.37,8.2,1.13,6.29-.53,9.44-.79,11.71-.75,8.13.12,8.38,3.59,15.61,3.39Z"/>
    <path class="cls-2" d="M133.24,52.76c4.19-.65,8.01-1.24,12.49-3.39,4.96-2.38,5.16-4,10.15-6.03,1.78-.72,5.65-2.26,10.54-2.26,4.7,0,6.11,1.41,14.44,3.77,8.34,2.36,8.18,1.3,12.88,3.01,2.76,1.01,3.87,1.76,14.83,9.04,9.44,6.28,14.25,9.4,18.73,8.67,3.02-.5,5.07-1.51,5.07-1.51,2.85-1.4,3.36-2.77,6.24-3.77,1.23-.43,2.25-.54,4.29-.75,4.13-.44,3.77.4,7.02,0,.67-.08,1.82-.26,2.73.38.32.22.9.74.78,1.13-.23.73-2.78.31-6.63.38-3.23.06-5.7.1-8.2,1.13-1.37.56-3.24,1.62-5.07,3.77,1.45.4,3.62.83,6.24.75,3.51-.11,4.97-1.06,8.2-1.88,7.35-1.88,8.6.83,14.83-1.13,3.63-1.14,3.56-2.17,8.2-3.77,3.66-1.26,6.86-1.71,8.98-1.88-5.75-4.18-10.2-4.79-13.27-4.52-3.58.32-4.2,1.74-10.15,2.64-3.99.6-7.37,1.07-10.93-.38-2.85-1.16-2.74-2.3-5.85-3.39-2.56-.9-4.69-.86-8.2-.75-4.59.13-5.3.83-9.76.75-5.76-.09-6.74-1.28-7.02-1.88-.21-.44-.35-1.17,0-1.51.5-.5,1.79.08,2.73.38.49.15,1.44.41,6.63,0,4.9-.39,5.63-.74,10.15-1.13,5.48-.47,6.81-.16,7.42,0,2.91.79,3.2,2,5.85,3.01,2.73,1.04,5.24.71,10.15,0,7.87-1.14,7.97-2.54,12.1-2.26,1.22.08,5.43.37,9.37,3.01,3.05,2.05,3.15,3.65,5.85,4.52,3.48,1.12,6.9-.36,7.81-.75,2.95-1.28,2.9-2.58,6.63-5.28,1.33-.96,4.15-2.96,8.2-4.15.64-.19,1.6-.46,2.78-.68V.25h-180.89v52.93c1.03-.07,2.17-.19,3.66-.42Z"/>
    <path class="cls-2" d="M143.77,117.2c.77-.52,1.27-1.11,1.56-1.51-7.49-1.47-12.46-1.83-15.76-1.55v5.23c1.7-.56,2.79-.87,4.05-1.04,4.61-.6,7.42.71,10.15-1.13Z"/>
    <path class="cls-2" d="M144.16,106.65c3.31.32,3.76.58,6.24.75,1.72.12,5.32.35,9.37-.38,6.11-1.11,11.11-4.04,10.93-4.52-.07-.18-.88.03-5.07.75-3.76.65-5.65.97-7.02,1.13-4.86.55-4.21-.44-9.76,0,0,0-3.92.31-8.2-.38-.24-.04-.99,0-1.17-.38-.04-.09-.07-.25,0-.38.32-.53,2.09.46,4.29,0,.28-.06.35-.09,1.17-.38,2.44-.84,3.66-1.26,4.68-1.51,2.2-.52,4.05-.44,5.46-.38,2.17.1,2.07.38,3.51.38,3.28-.02,6.69-1.51,6.63-2.64-.02-.38-.66-.76-1.95-1.51-1.57-.9-2.35-1.35-3.12-1.51-1.63-.33-2.57.56-5.46,1.88-1.91.87-3.47,1.37-6.63,2.26-4.47,1.26-8.21,1.18-10.93,1.13-1.07-.02-3.38-.16-7.56-.71v2.65c2.95.26,6.02.77,6,1.08-.02.23-1.79.21-5.85.38-.05,0-.1,0-.15,0v2.22c2.06-.25,4.03-.3,6-.34,3.75-.09,6.94.22,8.59.38Z"/>
    <path class="cls-2" d="M137.14,97.98c3.69-.07,6.64-.77,9.76-1.51,3.58-.85,6.49-1.84,8.59-2.64-1.74-.28-4.32-.57-7.42-.38-3.56.22-4.5.86-8.59,1.51-3.22.51-6.35,1.01-9.9.68v1.38c4.58.77,5.3,1,7.56.96Z"/>
    <path class="cls-2" d="M193.73,54.27c-3.3-2.06-7.53-3.26-16-5.65-2.89-.82-4.7-1.25-7.02-1.51-2.69-.3-6.13-.64-9.76.75-.96.37-.63.36-3.12,1.51-3.34,1.54-4.47,1.8-6.24,2.64-3.04,1.43-3.04,2.2-6.24,4.15-1.99,1.21-5.04,3.07-8.98,3.77-.77.14-2.89.06-6.78-.15v7.56c4.8-.62,9.76-.43,14.2-.25,3.51.14,6.53.42,10.54-.75,2.94-.86,5.59-2.26,5.46-2.64-.12-.37-2.7.55-7.02.75-1.95.09-2.72-.03-8.2-.38-2.86-.18-5.17-.3-6.63-.38-.86-.1-1.36-.9-1.17-1.51.16-.53.84-.92,1.56-.75,5.5.73,10.05.63,13.27.38,3.09-.25,6.1-.72,9.37-1.88,3.29-1.17,5.62-2.59,5.46-3.01-.24-.67-6.83.14-9.76-.75-.31-.1-1.15-.35-1.17-.75-.02-.28.36-.54.78-.75,1.54-.79,3.16-.75,3.9-.75,1.02,0,.19-.11,4.68-.75,5.31-.77,7.97-1.15,9.76-1.13,4.42.05,7.88,1.16,11.32,2.26,2.45.79,4.22,1.55,5.85,2.26,3.04,1.32,6.49,3.04,10.15,5.28-3.01-3.93-6.1-6.23-8.2-7.54Z"/>
  </g>
  <path class="cls-1" d="M128.81,153.08c-6.02,1.19-15.44,2.66-27.13,2.75-22.53.19-32.68-4.89-55-6.13-10.44-.58-25.94-.46-46.65,3.12"/>
  <path class="cls-1" d="M129.58,157.13c-3.79.46-9.82,1.32-16.17,2.86-13.44,3.27-13.61,6.05-19.98,6.47-12.71.83-20.21-9.69-43.75-12.69-16.33-2.08-34.87.16-49.66,2.88"/>
  <path class="cls-1" d="M129.58,152.43c-6.48,1.07-16.26,2.31-28.16,2.29-21.82-.05-31.49-4.31-51.74-5.65-11.17-.74-27.56-.72-49.66,2.88"/>
  <path class="cls-1" d="M129.58,155.98c-3.79.46-9.82,1.32-16.17,2.86-13.44,3.27-13.61,6.05-19.98,6.47-12.71.83-20.21-9.69-43.75-12.69-16.33-2.08-34.87.16-49.66,2.88"/>
  <path class="cls-1" d="M129.58,155.67c-3.87.49-9.61,1.3-16.17,2.52-14.28,2.67-14.96,4.06-20.58,4.38-14,.81-21.07-7.2-41.75-9.99-9.77-1.32-25.56-1.88-51.05,2.26"/>
  <path class="cls-1" d="M129.58,154.88c-3.67.8-9.1,1.8-16.17,2.52,0,0-9.71,1-19.22.96-19.09-.08-26.96-4.64-43.11-6.56-9.93-1.18-25.97-1.71-51.05,2.26"/>
  <path class="cls-1" d="M1.17,42.12c6.02-1.28,15.44-2.85,27.13-2.96,22.53-.2,32.68,5.25,55,6.59,10.44.63,25.94.5,46.65-3.35"/>
  <path class="cls-1" d="M.41,37.76c3.79-.5,9.82-1.42,16.17-3.08,13.44-3.51,13.61-6.5,19.98-6.95,12.71-.89,20.21,10.41,43.75,13.64,16.33,2.24,34.87-.17,49.66-3.1"/>
  <path class="cls-1" d="M.41,42.82c6.48-1.15,16.26-2.48,28.16-2.46,21.82.05,31.49,4.63,51.74,6.07,11.17.79,27.56.77,49.66-3.1"/>
  <path class="cls-1" d="M.41,39c3.79-.5,9.82-1.42,16.17-3.08,13.44-3.51,13.61-6.5,19.98-6.95,12.71-.89,20.21,10.41,43.75,13.64,16.33,2.24,34.87-.17,49.66-3.1"/>
  <path class="cls-1" d="M.41,39.34c3.87-.53,9.61-1.39,16.17-2.71,14.28-2.87,14.96-4.36,20.58-4.71,14-.87,21.07,7.73,41.75,10.74,9.77,1.42,25.56,2.02,51.05-2.43"/>
  <path class="cls-1" d="M.41,40.18c3.67-.86,9.1-1.93,16.17-2.71,0,0,9.71-1.07,19.22-1.03,19.09.08,26.96,4.99,43.11,7.05,9.93,1.27,25.97,1.84,51.05-2.43"/>
  <path class="cls-1" d="M311.24,33.85c6.02,1.4,15.44,3.12,27.13,3.23,22.53.22,32.68-5.74,55-7.21,10.44-.68,25.94-.54,46.65,3.66"/>
  <path class="cls-1" d="M310.47,38.62c3.79.54,9.82,1.55,16.17,3.36,13.44,3.84,13.61,7.11,19.98,7.6,12.71.98,20.21-11.38,43.75-14.91,16.33-2.44,34.87.19,49.66,3.38"/>
  <path class="cls-1" d="M310.47,33.09c6.48,1.26,16.26,2.71,28.16,2.68,21.82-.05,31.49-5.06,51.74-6.63,11.17-.87,27.56-.84,49.66,3.38"/>
  <path class="cls-1" d="M310.47,37.27c3.79.54,9.82,1.55,16.17,3.36,13.44,3.84,13.61,7.11,19.98,7.6,12.71.98,20.21-11.38,43.75-14.91,16.33-2.44,34.87.19,49.66,3.38"/>
  <path class="cls-1" d="M310.47,36.89c3.87.58,9.61,1.52,16.17,2.96,14.28,3.13,14.96,4.77,20.58,5.15,14,.95,21.07-8.45,41.75-11.73,9.77-1.55,25.56-2.21,51.05,2.66"/>
  <path class="cls-1" d="M310.47,35.97c3.67.94,9.1,2.11,16.17,2.96,0,0,9.71,1.17,19.22,1.12,19.09-.09,26.96-5.46,43.11-7.71,9.93-1.39,25.97-2.01,51.05,2.66"/>
  <path class="cls-1" d="M439.25,157.94c-6.02-1.4-15.44-3.12-27.13-3.23-22.53-.22-32.68,5.74-55,7.21-10.44.68-25.94.54-46.65-3.66"/>
  <path class="cls-1" d="M440.02,153.18c-3.79-.54-9.82-1.55-16.17-3.36-13.44-3.84-13.61-7.11-19.98-7.6-12.71-.98-20.21,11.38-43.75,14.91-16.33,2.44-34.87-.19-49.66-3.38"/>
  <path class="cls-1" d="M440.02,158.7c-6.48-1.26-16.26-2.71-28.16-2.68-21.82.05-31.49,5.06-51.74,6.63-11.17.87-27.56.84-49.66-3.38"/>
  <path class="cls-1" d="M440.02,154.52c-3.79-.54-9.82-1.55-16.17-3.36-13.44-3.84-13.61-7.11-19.98-7.6-12.71-.98-20.21,11.38-43.75,14.91-16.33,2.44-34.87-.19-49.66-3.38"/>
  <path class="cls-1" d="M440.02,154.9c-3.87-.58-9.61-1.52-16.17-2.96-14.28-3.13-14.96-4.77-20.58-5.15-14-.95-21.07,8.45-41.75,11.73-9.77,1.55-25.56,2.21-51.05-2.66"/>
  <path class="cls-1" d="M440.02,155.82c-3.67-.94-9.1-2.11-16.17-2.96,0,0-9.71-1.17-19.22-1.12-19.09.09-26.96,5.46-43.11,7.71-9.93,1.39-25.97,2.01-51.05-2.66"/>
</svg>