<?xml version="1.0" encoding="UTF-8"?>
<svg id="Layer_1" data-name="Layer 1" xmlns="http://www.w3.org/2000/svg" viewBox="0 0 442.83 107.08">
  <defs>
    <style>
      .cls-1 {
        fill: none;
        stroke: #f1f0ef;
        stroke-miterlimit: 10;
        stroke-width: .25px;
      }
    </style>
  </defs>
  <path class="cls-1" d="M440.21,95.81c-20.44-3.01-52.44-6.73-92.15-6.98-76.52-.47-110.99,12.39-186.81,15.55-35.44,1.48-88.09,1.17-158.43-7.9"/>
  <path class="cls-1" d="M440.02,85.03c-12.86-1.17-33.35-3.34-54.91-7.25-45.66-8.29-46.22-15.33-67.86-16.39-43.16-2.11-68.64,24.56-148.58,32.17-55.46,5.27-118.41-.41-168.64-7.3"/>
  <path class="cls-1" d="M442.81,97.46c-22.01-2.71-55.24-5.86-95.63-5.79-74.12.12-106.93,10.92-175.73,14.31-37.95,1.87-93.59,1.82-168.64-7.3"/>
  <path class="cls-1" d="M442.81,88.45c-12.86-1.17-33.35-3.34-54.91-7.25-45.66-8.29-46.22-15.33-67.86-16.39-43.16-2.11-68.64,24.56-148.58,32.17-55.46,5.27-118.41-.41-168.64-7.3"/>
  <path class="cls-1" d="M442.81,89.25c-13.15-1.25-32.64-3.29-54.91-6.4-48.5-6.76-50.81-10.29-69.89-11.11-47.54-2.05-71.56,18.24-141.8,25.32-33.17,3.34-86.8,4.77-173.39-5.74"/>
  <path class="cls-1" d="M442.81,91.24c-12.46-2.02-30.91-4.56-54.91-6.4,0,0-32.96-2.52-65.27-2.43-64.83.19-91.58,11.77-146.42,16.64-33.74,2.99-88.19,4.34-173.39-5.74"/>
  <path class="cls-1" d="M.86,45.64c21.2-6.42,54.56-14.87,96.06-18.02,74.03-5.62,114.07,10.15,186.81,15.55,36.75,2.73,90.92,3.48,158.43-7.9"/>
  <path class="cls-1" d="M.86,24.41c24.49-1.87,44.43-5.03,59.02-7.86,17.58-3.41,26.19-5.64,32.54-7.54C108.13,4.32,113.14.88,127.74.17c24.5-1.2,101.78,23.93,148.58,32.17,26.54,4.67,47.49,4.53,62.71,4.35,39.72-.46,79.16-7.1,98.56-10.37,1.37-.23,2.51-.43,3.28-.56"/>
  <path class="cls-1" d="M.86,60.18c19.36-9.73,35.08-14.26,45.67-16.56,7.09-1.54,16.22-3.04,18.51-3.41,0,0,14.84-2.42,29.72-3.9,54.46-5.39,178.76,8.46,178.76,8.46,38.89,4.33,95.84,6.21,168.64-7.3"/>
  <path class="cls-1" d="M.86,27.66c22.93-1.88,41.91-4.91,56.22-7.69,17.6-3.42,26.22-5.65,32.54-7.54,11.25-3.37,17.01-6.08,24.72-7.62,0,0,5.18-.89,10.6-1.24,24-1.52,109.05,22.34,149.08,30.21,8.69,1.71,39.46,7.42,79.47,6.68,37.16-.69,67.71-6.66,88.67-12.02"/>
  <path class="cls-1" d="M.86,31.4c24.22-4.69,43.16-7.78,56.22-9.76,22.39-3.4,24.19-3.61,34.08-5.45,17.55-3.27,22.75-5.1,35.81-5.66,26.96-1.16,96.31,17.6,141.8,25.32,9.82,1.67,17.46,2.63,21.68,3.12,8.88,1.04,25.07,2.65,45.57,2.82,15.23.12,27.89-.59,36.74-1.28,13.15-1.03,22.87-2.41,34.26-4.03,13.8-1.96,25.35-3.98,33.84-5.57"/>
  <path class="cls-1" d="M.86,34.11c13.91-2.39,32.45-5.26,54.39-7.74,0,0,34.86-3.93,67.09-5.17,58.29-2.24,106.02,10.58,146.42,16.64,40.05,6.01,98.3,9.19,173.39-5.74"/>
</svg>