<?xml version="1.0" encoding="UTF-8"?>
<svg id="Layer_1" data-name="Layer 1" xmlns="http://www.w3.org/2000/svg" viewBox="0 0 432.15 107.98">
  <defs>
    <style>
      .cls-1 {
        fill: none;
        stroke: #f1f0ef;
        stroke-miterlimit: 10;
      }
    </style>
  </defs>
  <path class="cls-1" d="M421.07,57.19c-8.34-.46-8.74,2.16-14.79,1.26-4.3-.64-5.33-2.13-13.21-3.78-1.98-.41-3.64-.68-4.76-.84,2.92-1.26,4.44-2.71,5.28-3.78,1.58-2,1.17-3.14,3.17-5.04.85-.81,2.31-2.2,4.76-2.52.35-.05,3.13-.41,4.76.84.62.48.74.94,2.11,2.1.83.7,1.22.89,1.59.84.59-.09.98-.79,1.06-1.26.27-1.63-2.64-3.41-4.76-4.2-2.94-1.1-7.55-1.47-10.57.42-2.23,1.4-1.32,2.62-4.23,5.46-.83.82-2.75,2.65-5.81,3.78-1.51.56-3.66,1.08-9.51.84-5.46-.22-9.64-.91-11.62-1.26-7.49-1.31-16.06-2.86-25.89-7.14-2.33-1.01-4.15-1.93-5.28-2.52,5.33.32,9.99.23,13.74,0,6.67-.4,10-.61,13.74-1.68,3.76-1.08,5.74-2.26,9.51-2.1,2.41.1,2.38.62,5.81.84,3.06.2,2.49-.25,8.45-.42,2.09-.06,3.66-.05,4.23-.84.26-.36.34-.93,0-1.26-.73-.71-2.73.31-5.81.42-1.45.05-2.9-.25-5.81-.84-4.97-1.02-4.66-1.43-6.87-1.68-2.89-.32-5.1.21-9.51,1.26-4,.96-4.22,1.43-7.4,2.1-3.64.77-6.54.81-8.98.84-8.43.09-9.18-1.7-14.27-.84-1.16.2-3.72.73-7.4.84,0,0-1.38.04-2.64,0-5.88-.19-14.7-4.47-15.85-5.04,1.19-.03,3.03-.06,5.28,0,6.69.16,7.35.81,10.57.42,3.84-.46,4.04-1.51,7.93-1.68.56-.02.88-.02,5.81.42,4.94.44,7.43.66,8.45.84,3.84.68,3.93,1.19,6.34,1.26,1.93.05,1.99-.27,6.34-.84,4.54-.59,6.64-.52,6.87-1.26.14-.45-.5-1-1.06-1.26-1.27-.58-2.84.05-4.23.42-1.82.49-3.68.47-7.4.42-4.53-.06-4.83-1.34-10.04-2.1-2.44-.36-5.5-.24-11.62,0-6.44.25-6.56.56-10.04.42-3.37-.13-3.03-.41-8.98-.84-4.12-.3-6.22-.31-6.34-.84-.15-.65,2.72-1.54,3.17-1.68,3.24-.99,4.99-.53,7.93-.84.76-.08,5.71-.64,9.51-3.36,2.9-2.07,2.43-3.47,5.28-4.62,2.04-.82,2.86-.33,5.81-1.26,2.72-.85,3.51-1.72,5.28-2.52,3.9-1.75,8.24-1.2,11.1-.84,5.17.65,5.21,2.07,14.79,5.04,3.98,1.23,6.03,1.85,8.98,2.1,3.15.26,5.78,0,10.04-.42,5.21-.52,6.94-1.06,10.04-.42,1.22.25,4.38.91,4.76,2.52.27,1.16-1.02,2.35-2.11,2.94-1.03.55-2.37.82-6.34.42-4.82-.49-4.84-1.09-7.93-1.26-3.32-.18-6.1.37-8.45.84-3.8.75-3.32,1.17-5.28,1.26-3.68.17-5.47-1.29-8.45-.42-.89.26-2.2.82-2.11,1.26.18.92,6.35.86,7.93.84.71,0,2.76-.04,6.87-.42,5.53-.51,5.17-.76,7.4-.84,5.04-.17,5.53,1.17,11.1,1.26,2.81.04,5.61.06,8.45-1.26.58-.27,5.14-2.43,4.76-4.62-.65-3.66-14.78-4.91-16.38-5.04-7.05-.58-7.83.57-13.21-.42-1.77-.32-2.91-.67-12.68-4.62-10.49-4.23-11.24-4.67-13.74-5.04-6.22-.93-11.45.29-13.74.84-5.47,1.32-9.3,3.55-11.1,4.62-5.06,3-4.98,4.45-8.98,5.88-1.23.44-5.86,2.09-10.57.84-3.66-.97-3.79-2.75-7.93-5.04-5.32-2.94-11.03-3.27-12.68-3.36-5.59-.32-5.73,1.25-16.38,2.52-6.65.79-10.05,1.16-13.74,0-3.59-1.13-3.98-2.48-7.93-3.36-.82-.18-2.62-.53-10.04,0-6.12.44-7.1.83-13.74,1.26-7.04.46-8.32.17-8.98,0-1.28-.33-3.02-.97-3.7-.42-.47.38-.28,1.19,0,1.68.39.67,1.71,2,9.51,2.1,6.03.08,6.99-.69,13.21-.84,4.75-.11,7.63-.16,11.1.84,4.21,1.22,4.07,2.49,7.93,3.78,4.82,1.61,9.39,1.09,14.79.42,8.05-1,8.89-2.59,13.74-2.94,4.16-.3,10.18.38,17.96,5.04-2.86.2-7.19.69-12.15,2.1-6.28,1.78-6.19,2.93-11.1,4.2-8.43,2.19-10.12-.83-20.08,1.26-4.36.92-6.34,1.98-11.1,2.1-3.55.09-6.49-.4-8.45-.84,2.48-2.39,5.02-3.57,6.87-4.2,3.38-1.14,6.72-1.19,11.1-1.26,5.21-.08,8.67.39,8.98-.42.16-.43-.63-1.02-1.06-1.26-1.24-.71-2.79-.51-3.7-.42-4.41.45-3.92-.49-9.51,0-2.76.24-4.14.36-5.81.84-3.91,1.12-4.59,2.64-8.45,4.2,0,0-2.78,1.13-6.87,1.68-6.06.82-12.58-2.66-25.36-9.66-14.83-8.12-16.34-8.96-20.08-10.08-6.36-1.91-6.14-.73-17.44-3.36-11.28-2.63-13.19-4.2-19.55-4.2-6.62,0-11.86,1.71-14.27,2.52-6.75,2.26-7.02,4.07-13.74,6.72-6.06,2.4-11.24,3.06-16.91,3.78-7.88,1.01-8.6.17-20.61.84-10.33.57-15.49.86-21.13,2.52-1.6.47-6,2.27-14.79,5.88-6.1,2.5-8.7,3.65-13.21,4.62-2.73.59-5.84,1.25-10.04,1.26-4.85,0-6.23-.87-10.57-.42-3.8.4-8.01,1.62-7.93,2.52.07.69,2.63,1.25,4.76,1.26,3.34.02,4.4-1.32,7.4-1.26,2.26.05,3.72.85,4.76,1.26,6.14,2.42,16.14-1.57,24.83-5.04,8.61-3.43,10.01-5.08,16.38-6.3,4.29-.82,8.01-.91,10.57-.84-2.13,1.58-5.11,3.45-8.98,5.04-3.6,1.48-5.4,2.22-7.7,2.4-1.33.1-2.64.05-2.86.54-.26.58,1.12,1.7,2.64,2.1,1.96.51,3.89-.26,5.28-.84,6.05-2.52,7.89-3.93,11.62-5.46,1.68-.69,4.78-1.93,8.98-2.52,2.65-.37,4.25-.27,10.04,0,8.93.42,13.42.62,14.79.42,5.33-.78,9.46-2.85,12.15-4.2,4.33-2.17,4.34-3.03,8.45-4.62,2.41-.93,3.93-1.22,8.45-2.94,3.38-1.28,2.93-1.27,4.23-1.68,4.91-1.55,9.56-1.17,13.21-.84,3.14.28,5.6.77,9.51,1.68,11.47,2.67,17.2,4,21.66,6.3,2.83,1.46,7.02,4.02,11.1,8.4-4.95-2.49-9.61-4.4-13.74-5.88-2.21-.79-4.61-1.64-7.93-2.52-4.65-1.23-9.34-2.47-15.32-2.52-2.42-.02-6.02.41-13.21,1.26-6.09.72-4.97.83-6.34.84-1,0-3.2-.04-5.28.84-.57.24-1.08.53-1.06.84.03.45,1.16.73,1.59.84,3.97.99,12.88.1,13.21.84.21.48-2.95,2.06-7.4,3.36-4.43,1.29-8.5,1.83-12.68,2.1-4.36.29-10.52.4-17.96-.42-.97-.19-1.89.25-2.11.84-.25.68.42,1.57,1.59,1.68,1.98.08,5.11.22,8.98.42,7.41.38,8.45.52,11.1.42,5.86-.23,9.34-1.25,9.51-.84.17.43-3.42,1.98-7.4,2.94-5.43,1.3-9.52,1-14.27.84-7.26-.24-15.55-.51-23.25.84-3.44.6-8.46,1.83-14.27,4.62-.45.81-.17,1.7.53,2.1.89.51,2.5.24,3.17-.84,2.35-.83,5.98-1.92,10.57-2.52,6.78-.89,10.72-.05,19.55.42,9.99.54,14.99.8,19.02,0,8.97-1.79,8.7-5.13,21.13-8.4,2.12-.56,7.19-1.79,13.74-1.68,4.57.08,9.46.8,9.51,1.68.04.59-2.18.59-5.81,2.52-1.87.99-2.33,1.55-3.7,1.68-1.34.12-2.51-.27-4.23-.84-1.98-.66-2.26-1.07-3.7-1.26-1.24-.16-2.95-.1-3.17.42-.14.32.33.74,1.06,1.26,1.99,1.43,3.36,2.42,5.81,2.94.86.18,4.32.92,7.4-.42,1-.44.92-.64,2.11-1.26,2.19-1.14,4.31-1.43,6.34-1.68,3.32-.42,6.65-.83,10.04.42,1.69.62,1.4.93,3.7,2.1,1.89.97,3.76,1.61,9.51,2.94,4.73,1.09,7.09,1.63,10.04,2.1,7.38,1.16,13.15,1.23,16.91,1.26,7.37.06,13.12-.52,15.85-.84,7.39-.86,7.8-1.58,14.79-2.52,5.41-.72,12.17-1.63,20.08-.84,3.2.32,2.75.53,19.02,4.62,10.76,2.7,12.64,3.03,17.96,4.62,5.91,1.76,10.63,3.45,13.74,4.62-9.19,1.56-16.08.88-20.61,0-4.19-.81-8.08-2.22-15.85-5.04-11.06-4.01-11.87-5.11-16.38-5.46-7.27-.57-13.92,1.62-15.32,2.1-5.71,1.96-7.31,4.1-12.15,4.2-2.95.06-3.05-.72-8.45-1.68-2.76-.49-8.37-1.49-14.79-.84-6.55.66-7.07,2.34-12.15,2.1-2.83-.13-5.23-.93-10.04-2.52-8.79-2.91-8.83-4.2-12.15-4.2-5,0-5.43,2.93-12.68,4.2-5.19.91-9.66.23-11.1,0-7.71-1.23-9.09-4.23-13.21-3.36-4.16.88-7.93,5.04-7.93,5.04-.88-.14,1.76.3,2.64.42,2.93.41,4.83-2.2,7.93-2.52,3.11-.32,4.01,2.04,8.98,3.78,3.9,1.37,7.34,1.32,11.1,1.26,7.42-.11,8.14-1.92,14.79-2.1,5.51-.15,5.77,1.08,13.21,1.68,7.46.6,8.72-.5,16.38-.42,9.36.1,8.95,1.77,20.08,2.52,8.43.57,14,.95,21.13-.42,4.76-.91,7.88-2.15,13.21-1.68,3.18.28,4.03.9,8.98,2.1,6.65,1.61,12.03,2.17,15.32,2.52,8.31.87,11.26.3,17.44,2.1,1.02.3,2.69.79,4.76,1.68,5.44,2.35,7.23,4.69,10.57,6.72,2.45,1.49,6.39,3.2,12.68,3.78-2.49.31-6.16.62-10.57.42-7.16-.32-12.27-1.8-16.38-2.94-12.79-3.55-19.19-5.32-25.36-6.3-12.63-2-12,.96-28-.84-5.8-.65-12.15-1.84-24.83-4.2-7.44-1.39-10.4-2.05-15.85-2.52-7.33-.63-12.43-1.07-18.49.42-2.01.49-1.18.48-13.74,5.46-6.7,2.66-8.33,3.22-10.57,3.78-4.95,1.25-8.86,2.23-13.21,1.26-2.02-.45-4.51-1.98-9.51-5.04-6.67-4.08-6.3-4.52-8.45-5.04-3.3-.79-5.18,0-11.62-.84-.31-.04-2.6-.36-4.76-1.68-.57-.35-1.79-1.1-1.59-1.68.1-.27.5-.5,2.64-.84,2.26-.36,2.59-.22,3.7-.42,2.36-.43,4.62-1.72,5.28-3.36.05-.12.41-1.02,0-1.26-.4-.23-1.22.31-2.64.84-.73.27-1.55.46-3.17.84-3.61.84-5.19.36-9.51,1.26-2.12.44-2.76.76-3.17,1.26-.86,1.04-.35,2.43,0,3.36.26.7.87,2.33,2.64,3.36,1.36.78,2.37.61,6.34.84,0,0,3.95.22,8.45.84,3.56.49,5.34.73,6.34,1.26,1.27.67,1.6,1.24,5.81,4.62.45.36.81.65,1.06.84-1.61.03-4.02-.01-6.87-.42-4.74-.68-7.24-1.88-10.57-2.94-.35-.11-8-2.49-16.91-2.52-3.34,0-7.15.55-14.79,1.68-3.77.56-9.8,1.54-14.79.42-.37-.08-2.62-.61-4.76-2.1-.92-.64-2.42-1.69-2.11-2.52.22-.6,1.35-.99,4.76-1.26,4.6-.36,8.19-.1,9.51,0,8.68.67,8.36,1.07,11.1.84,4.03-.34,4.19-1.16,7.93-1.26.76-.02,2.32-.03,3.7-.84.36-.21,1.38-.81,1.59-1.68.46-1.9-3.24-3.83-4.76-4.62-1.66-.87-4.01-2.09-7.4-2.1-2.46,0-4.13.63-6.87,1.68-2.01.77-2.14,1.09-2.11,1.26.08.53,2.01.92,3.7.84,2.37-.11,2.54-1.07,4.76-1.26,2.94-.26,5.11,1.2,5.81,1.68,1.1.74,1.08,1.13,1.06,1.26-.13.77-2.01,1.14-2.64,1.26-3.75.73-7.43-.35-9.51-.84-.68-.16-5.39-.25-14.79-.42-8.54-.16-10.31-.15-12.68.84-1.13.48-4.83,2.02-5.28,4.62-.62,3.55,5.23,6.67,8.45,8.4,4.58,2.45,9.04,3.39,11.62,3.78,6.09.93,11.14.27,16.38-.42,5.53-.73,6.81-1.44,11.62-1.68,4.19-.21,7.68.1,10.04.42-2.83.89-6.78,2-11.62,2.94-4.21.82-8.22,1.6-13.21,1.68-3.68.06-4.35-.32-14.79-1.68-9.44-1.23-14.16-1.84-16.38-1.68-6.18.45-8.36,2.04-15.32,1.68-3.3-.17-6.14-.7-6.87-.84-4.66-.9-5.02-1.66-10.57-2.94,0,0-4.53-1.05-10.04-.84-1.47.06-2.87.2-3.17.84-.25.54.3,1.33,1.06,1.68.88.41,1.86.13,2.64,0,2.51-.42,4.72.34,7.4,1.26,2.52.87,2.96,1.67,5.28,2.94,1.91,1.04,4.93,2.32,9.51,2.94-.37.7-1.03,1.77-2.11,2.94-1.49,1.6-2.4,1.87-2.64,2.94-.27,1.21.72,1.6,1.06,3.36.33,1.69-.37,2.44-.53,3.78-.36,3.14,2.69,5.83,3.7,6.72,2.96,2.61,6.53,3.26,11.62,4.2,3.84.71,7.07,1.3,11.1.42.86-.19,3.91-.91,6.87-2.94,2.58-1.76,3.71-3.57,4.23-4.2,1.98-2.42,8.57-4.14,29.06-.84-.4.45-1.08,1.1-2.11,1.68-3.69,2.05-7.49.59-13.74,1.26-2.14.23-3.89.71-7.4,1.68-5.6,1.54-6.16,2.34-12.15,4.2-3.17.98-6.25,1.92-10.57,2.52-4.24.58-6.36.88-8.45.42-2.81-.61-4.97-2.01-7.4-1.26-.74.23-1.26.58-1.59.84,1.23.5,3.06,1.23,5.28,2.1,4.45,1.73,6.68,2.6,7.93,2.94,2.57.7,7.28,1.99,12.15.84,3.18-.75,2.9-1.7,7.93-3.36,1.97-.65,4.3-1.42,7.4-1.68,1.63-.14,3.61-.15,9.51.84,6.4,1.07,6.2,1.43,10.57,2.1,6.18.94,6.81.25,12.68,1.26,3.63.63,3.2.86,8.98,2.1,5.06,1.08,8.35,1.79,12.68,2.1,4.73.34,4.66-.23,10.57,0,7.56.29,11.95,1.38,12.15.84.16-.42-2.27-1.5-4.76-2.1-3.35-.8-5.97-.52-7.93-.42-4.31.21-7.45-.42-13.74-1.68-2.22-.44-7.23-1.54-13.21-3.78-1.3-.49-2.38-.93-3.17-1.26.69-1.91,2.03-4.34,4.76-6.3,2.78-2,5.73-2.6,11.62-3.78,4.19-.84,6.56-1.32,10.04-1.26,4.56.08,7.86,1.02,11.62,2.1.99.28,3.26.94,3.17,1.26-.14.5-5.69-1.23-11.62.42-1.89.52-1.65.79-6.34,2.52-3.28,1.21-4.93,1.82-6.34,2.1-5.45,1.08-9.5-.25-10.04.84-.32.65.92,1.58,1.06,1.68,1.58,1.17,3.89,1.05,6.34.84,5.49-.46,7.32-.96,10.57-1.26,4.11-.38,7.32-.16,9.51,0,2.04.15,5.92.53,10.57,1.68,5.39,1.33,7.16,2.54,12.68,4.62,2.84,1.07,8.72,3.26,15.85,4.62,6.14,1.17,12.73,2.43,20.61.84,6.88-1.38,11.92-4.36,13.74-5.46,4.95-2.98,4.64-4.22,8.98-6.3,1.69-.81,7.63-3.58,14.79-2.94,2.86.26,2.61.76,11.62,3.78,10.86,3.64,13.79,3.77,16.38,3.36,1.45-.23,4.39-.69,6.87-2.52,2.82-2.09,2.4-4,5.81-5.88,1.98-1.09,4.14-1.55,4.76-1.68,1.72-.36,3.08-.39,4.23-.42,2.89-.07,3.74.3,6.34.42,1.31.06,3.18-.1,6.87-.42,4.2-.36,6.31-.55,7.93-.84,4.95-.9,4.68-1.75,7.93-2.1,5.36-.58,9.85,1.36,10.57,1.68,3.47,1.54,3.29,2.8,7.4,4.62,2.79,1.24,6.43,2.24,6.87,1.68.66-.84-6.14-5.01-6.87-5.46-4.62-2.82-7.62-4.65-11.62-5.46-6.3-1.27-7.61,1.5-15.85,1.68-9.79.22-10.13-3.64-21.13-3.78-3.07-.04-7.33.25-15.85.84-3.89.27-7.73.58-11.1-1.26-.44-.24-3.61-1.98-3.17-3.78.31-1.27,2.26-1.96,2.64-2.1,1.88-.67,2.62.04,4.76-.42.19-.04,3.5-.78,4.76-2.94.67-1.15.14-1.63,1.06-3.36.35-.66.78-1.47,1.59-2.1,1.35-1.05,2.93-.98,6.34-1.26,5.88-.48,5.44-1.03,7.93-.84,1.36.11,1.76.29,6.87,1.68.49.13,4.73,1.28,6.34,1.68,1.07.26,4.83,1.14,12.68,1.26,2.89.04,6.42-.01,15.85-.84,4.88-.43,15.45-1.42,23.78-1.26,1.29.02,4.19.11,7.4,1.26,2.57.92,4.25,2.14,4.76,2.52,1.63,1.23,1.41,1.57,2.64,2.52,2.18,1.68,5.97,3.02,9.51,2.52,2.85-.4,3.49-1.7,5.28-1.26,2,.49,2.17,2.36,4.23,2.52.96.08,2.02-.24,2.64-.84.41-.39.84-1.11.53-1.68-.23-.43-.76-.55-1.59-.84-2.36-.84-2.22-1.33-3.7-1.68-.8-.19-1.78-.13-3.7,0-3.6.25-3.8.57-4.76.42-2.26-.35-2.75-2.37-4.76-4.62-3.71-4.16-9.49-5.61-10.57-5.88-2.33-.58-5.25-.53-11.1-.42-5.38.1-5.99.41-10.04.42-2.94,0-6.87.01-11.62-.84-6.59-1.18-11.32-3.39-14.79-5.04-2.95-1.4-5.26-2.76-6.87-3.78,2.41-.16,6.32-.31,11.1,0,6.79.44,8.89,1.39,19.55,2.94,4.77.69,8.74,1.27,14.27,1.68,4.16.31,6.18.3,12.68.84,7.08.58,8.98.94,11.1,1.68,2.14.75,2.96,1.34,5.81,2.1,4.04,1.08,6.37.94,7.4.84,1.51-.15,2.12-.44,3.7-.84,2.56-.65,7.83-1.99,12.68-.84,3.77.9,5.35,2.83,7.4,2.1.82-.3,1.67-1.01,1.59-1.68-.22-1.69-6.3-2.71-10.57-2.94ZM85.04,75.24c-.65.2-4.39,1.35-8.45,3.78-2.58,1.54-4.14,2.5-4.76,4.2-.74,2.05.61,3.16-.53,4.2-1.32,1.2-4.47.94-6.34.42-1.17-.33-.91-.49-2.11-.84-3.11-.89-4.98.2-6.34-.84-.66-.5-.23-.76-1.06-1.68-1.28-1.44-2.77-1.31-3.17-2.1-.59-1.16,1.67-3.27,4.23-4.62,3.45-1.83,5.88-1.46,11.1-2.52,5.37-1.09,4.45-1.83,9.51-2.94,3.6-.79,8.09-.96,16.91-1.26,5.5-.19,7.9-.16,7.93-.42.03-.36-4.76-1-8.98-1.26-3.91-.24-6.84-.13-10.04,0-5.34.22-8.74.36-13.21,1.26-2.54.51-5.19,1.23-6.87,1.68-3.29.89-4.93,1.33-5.81,1.68-2.77,1.1-3.94,2.08-5.28,1.68-.86-.26-1.48-.99-1.59-1.68-.16-1.05.85-2.11,3.7-3.78,3.12-1.84,5.36-3.15,9.51-4.2,6.29-1.59,11.71-1.24,17.96-.84,3.33.21,6.17.56,8.45.84,8.27,1.01,12.5,1.23,14.27,1.26,3.69.06,8.74.14,14.79-1.26,4.29-.99,6.4-1.55,8.98-2.52,3.92-1.47,5.19-2.46,7.4-2.1,1.05.17,2.11.68,4.23,1.68,1.75.83,2.62,1.26,2.64,1.68.07,1.25-4.53,2.92-8.98,2.94-1.95,0-1.82-.31-4.76-.42-1.92-.07-4.41-.16-7.4.42-1.39.27-3.04.74-6.34,1.68-1.11.32-1.21.36-1.59.42-2.98.51-5.38-.59-5.81,0-.1.14-.06.32,0,.42.24.42,1.26.38,1.59.42,5.78.77,11.1.42,11.1.42,7.51-.5,6.63.62,13.21,0,1.87-.18,4.42-.54,9.51-1.26,5.68-.81,6.77-1.05,6.87-.84.25.54-6.52,3.81-14.79,5.04-5.47.82-10.36.55-12.68.42-3.36-.19-3.97-.48-8.45-.84-2.23-.18-6.55-.52-11.62-.42-5.31.1-10.63.2-16.91,2.1ZM282.64,62.65c-4.37.4-8.82.42-9.51.42-5.17.02-6.15-.33-9.51,0-4.09.4-3.96,1.05-8.45,1.68-3.69.52-7.72,1.09-12.15,0-3.03-.74-3.1-1.48-7.4-2.52-2.54-.61-4.4-1.05-6.87-.84-.66.05-2.55.6-6.34,1.68-2.61.75-3.57,1.06-3.7,1.68-.13.64.66,1.44,1.59,1.68,1.37.36,2.41-.66,4.23-1.26,2.74-.91,5.47-.27,8.45.42,4.44,1.03,4.19,2.21,7.93,2.94,2.82.55,3.42-.03,8.45,0,5.77.03,5.5,1.03,10.57.84,5.28-.19,7.9-1.23,11.62,0,2.5.82,5.08,2.53,4.76,3.78-.39,1.5-4.62,1.18-5.28,2.94-.61,1.63,2.34,3.68,3.7,4.62,2.89,2.01,5.92,2.73,6.87,2.94,4.46.98,7.29.23,11.62,0,3.32-.18,8.17-.1,14.27,1.26-5.84.13-10.14,1.28-13.21,2.52-4.29,1.72-4.64,2.98-9.51,4.62-2.69.91-8.94,3.01-13.21.84-1.37-.7-1.07-1.09-2.64-2.1-3.82-2.45-8.85-2.23-11.62-2.1-1.5.07-6.69.41-13.21,3.36-6.93,3.14-6.28,5.12-12.15,7.98-6.7,3.26-13.46,3.56-18.49,3.78-4.04.18-10.99.48-18.49-2.1-3.65-1.26-3.21-1.74-8.45-3.78-6.01-2.33-11-3.4-14.79-4.2-3.68-.77-8.51-1.6-14.27-2.1,1.5-.78,2.81-1.11,3.7-1.26,4.32-.74,6.72,1.18,11.62.42,1.26-.19,2.85-.45,3.17-1.26.51-1.27-2.48-3.06-3.7-3.78-2.09-1.24-5.76-2.99-11.62-3.78-4.85-.65-8.63-.3-11.62,0-5.4.54-9.27,1.66-12.15,2.52-3.5,1.04-6.37,1.92-8.98,3.78-1.39.99-2.62,1.87-3.7,3.36-.7.96-.79,1.43-1.59,2.1-1.32,1.11-2.97,1.44-4.23,1.68-1.71.33-3.43.22-6.87,0-3.43-.22-4.42-.48-5.28-.84-1.26-.53-2.12-1.2-2.64-1.68,1.25-.45,3.26-1.1,5.81-1.68,5.04-1.14,6.67-.72,8.98-2.1,2.14-1.27,1.6-2.14,4.23-3.78,2.13-1.33,4.22-1.84,5.28-2.1,4.83-1.16,6.28.29,10.57-.42,4.94-.82,4.15-2.94,8.98-3.78,3.98-.69,5.09.64,11.62,0,2.19-.22,5.55-.57,5.81-1.68.15-.62-.69-1.43-1.59-1.68-.93-.26-1.54.2-3.17.42-1.3.18-2.15.06-3.17,0-3.07-.18-8.8.11-12.68.84-4.29.81-4.75,1.86-8.45,2.94-7.92,2.31-10.55-1.11-26.42-1.26-4.38-.04-6.74.2-13.74,0-3.81-.11-6.93-.29-8.98-.42,6.64-2.47,11.78-2.75,15.32-2.52,2.27.15,3.38.48,7.93.84,2.8.22,4.44.26,10.57.42,12.99.33,13.82.36,15.85,0,1.89-.34,4.26-1.06,8.98-2.52,5.79-1.78,7.21-2.54,7.93-2.94,3.17-1.79,2.97-2.69,5.28-3.36,2.08-.6,3.29-.17,7.93,0,2.69.1,4.9.05,6.34,0,.69.65,1.55,1.67,1.59,2.94.03,1.35-.89,1.98-1.59,3.36-.99,1.95-1.08,4.51,0,6.3,1.38,2.28,4.52,3.06,7.4,3.78,6.15,1.54,11.96.55,12.68.42,3.51-.63,5.11-1.59,8.45-1.26,2.02.2,2.57.66,4.76,1.26.92.25,9.55,2.51,16.91-.42,2.91-1.16,2.74-1.98,5.28-2.52,4.64-.98,10.28.68,10.57,2.52.22,1.42-2.79,2.77-3.17,2.94-2.57,1.13-3.93.34-8.45.84-3.21.36-6.28.7-8.45,2.52-1.13.95-1.11,1.53-2.64,2.52-.64.41-2.31,1.46-4.76,1.68-1.95.17-3.41-.27-5.28-.84-1.22-.37-2.92-1-4.76-2.1-.88-.75-2.23-.9-3.17-.42-1.06.54-1.06,1.62-1.06,1.68,1.88,1.42,4.86,3.21,8.98,4.2,2.74.66,7.46,1.79,11.1,0,2.64-1.3,1.84-2.74,4.76-4.62,1.95-1.26,4.67-1.7,10.04-2.52,7.34-1.13,9.64-.88,11.1-2.52,1.56-1.76.74-4.09.53-4.62-1.27-3.19-5.62-4.4-7.93-5.04-1.59-.44-5.84-1.42-10.57-.42-2.64.56-3.58,1.34-6.87,1.68-1.3.13-2.21.12-5.28,0-8.63-.34-7.97-.49-9.51-.42-4.55.21-4.47,1.26-10.04,1.68-3.56.27-5.94.41-7.93-.84-1.52-.96-2.61-2.6-2.64-4.2-.02-1.09.47-1.14,1.06-3.78.48-2.15.31-2.83,0-3.36-.53-.9-1.49-1.41-2.11-1.68,5.14.5,9.3.51,12.15.42,5.25-.16,7.49-.69,10.57.42,2.9,1.04,2.58,2.11,6.34,4.2,1.02.57,4.82,2.59,10.04,3.36,4.41.65,8.07.14,12.15-.42,5.83-.8,6.72-1.74,10.04-1.26,1.7.24,3.6,1,7.4,2.52,3.04,1.21,4.37,1.96,4.23,2.52-.19.74-2.8.59-3.17,1.68-.16.47.16.98.53,1.26,1.22.91,4.48.34,5.81-1.26.67-.8.9-1.92.53-2.94-.93-2.55-5.3-3.54-10.04-4.62-3.56-.81-7.02-1.59-11.62-1.26-5.61.41-5.77,1.97-11.1,2.1-2.05.05-6.66.12-10.57-2.1-1.97-1.12-1.54-1.55-4.76-4.2-2.71-2.23-4.86-4-7.93-5.04-1.54-.52-5.18-1.48-10.57-.42,1.1-1.8,3.02-4.29,6.34-6.3,4.21-2.55,10.07-3.99,24.3-2.94,12.8.94,12.93,2.46,27.47,4.2,5.9.71,6.45.52,29.06,2.1,7.46.52,13.54.97,17.44,1.26-5.61,1.55-10.34,2.21-13.74,2.52Z"/>
</svg>