<?xml version="1.0" encoding="UTF-8"?>
<svg id="Layer_1" data-name="Layer 1" xmlns="http://www.w3.org/2000/svg" viewBox="0 0 122.05 115.78">
  <defs>
    <style>
      .cls-1 {
        fill: none;
        stroke: #f1f0ef;
        stroke-miterlimit: 10;
        stroke-width: .5px;
      }
    </style>
  </defs>
  <path class="cls-1" d="M118.15,59.61c.99.57,2.18,1.25,3.65,1.86v-3.93c-.48-.07-.99-.12-1.58-.17-2.33-.18-4.24-.09-5.42,0,.78.6,1.91,1.41,3.35,2.24Z"/>
  <path class="cls-1" d="M116.6,45.16c-1.9.1-2,.72-3.87,1-1.57.23-1.89-.15-5.16-.25-1.1-.03-2-.02-2.58,0,.56.34,4.87,2.87,7.74,2.99.61.02,1.29,0,1.29,0,1.8-.06,3.05-.38,3.61-.5,1.75-.36,2.45.06,4.16.32v-3.06c-.61-.07-1.39-.15-2.36-.26-2.41-.26-2.57-.26-2.84-.25Z"/>
  <path class="cls-1" d="M116.6,36.94c-1.39.68-1.16,1.51-2.58,2.74-1.85,1.61-4.27,1.95-4.64,1.99-1.43.18-2.29-.09-3.87.5-.22.08-1.62.61-1.55,1,.06.32,1.08.32,3.09.5,2.9.26,2.74.42,4.38.5,1.7.08,1.76-.1,4.9-.25,2.8-.13,4.29-.2,5.45-.04v-9.05c-.72.44-1.15.91-2.36,1.36-1.44.55-1.84.26-2.84.75Z"/>
  <path class="cls-1" d="M121.76,52.38s.02.01.03.02v-1.4c-.83-.01-1.7-.05-2.61-.12.55.35,1.44.89,2.58,1.49Z"/>
  <path class="cls-1" d="M91.07,46.91c-3.86-.47-7.16.07-9.8.5-3.42.55-3.61.98-7.22,1.49-1.33.19-4.14.53-7.74.5-1.83-.02-4.65-.06-8.25-.75-1.44-.28-2.59-.6-4.9-1.25-2.81-.79-3.72-1.17-4.64-1.74-1.12-.7-.98-.88-1.81-1.25-1.65-.74-3.28-.5-4.9-.25-.99.15-2.02.32-3.09,1-.58.37-.54.49-1.03.75-1.5.79-3.19.36-3.61.25-1.2-.31-1.87-.9-2.84-1.74-.35-.31-.58-.56-.52-.75.11-.31.94-.34,1.55-.25.7.11.84.36,1.81.75.84.34,1.41.57,2.06.5.67-.07.89-.41,1.81-1,1.77-1.15,2.85-1.14,2.84-1.49-.03-.52-2.41-.95-4.64-1-3.2-.07-5.67.67-6.71,1-6.07,1.94-5.94,3.92-10.32,4.98-1.97.48-4.41.32-9.28,0-3.39-.22-5.3-.57-7.58-.46v5.99c2.95.07,4.47.12,4.74.19,1.02.29,2.81.93,4.64.5.31-.07,1.22-.29,1.29-.75.01-.08.02-.31-.52-.75-.34-.28-1.4-1.15-2.84-1-1.08.11-1.16.68-2.32.75-.83.05-1.76-.18-1.81-.5-.01-.1.05-.29,1.03-.75,1.34-.62,2.15-1,3.35-1,1.65,0,2.8.73,3.61,1.25.74.47,2.54,1.61,2.32,2.74-.1.51-.6.87-.77,1-.67.48-1.43.49-1.81.5-1.82.06-1.9.55-3.87.75-1.33.14-1.18-.1-5.42-.5-.31-.03-.88-.08-1.64-.1v3.88c1.92.09,3.89-.29,5.25-.54,3.73-.67,5.59-1,7.22-1,4.35.01,8.08,1.43,8.25,1.49,1.62.63,2.84,1.34,5.16,1.74,1.39.24,2.57.27,3.35.25-.12-.11-.3-.29-.52-.5-2.06-2-2.22-2.34-2.84-2.74-.49-.31-1.36-.46-3.09-.75-2.2-.37-4.13-.5-4.13-.5-1.94-.13-2.43-.03-3.09-.5-.87-.61-1.16-1.58-1.29-1.99-.17-.55-.42-1.37,0-1.99.2-.29.51-.49,1.55-.75,2.11-.53,2.88-.25,4.64-.75.79-.22,1.19-.34,1.55-.5.69-.32,1.1-.64,1.29-.5.2.14.02.67,0,.75-.32.97-1.43,1.74-2.58,1.99-.54.12-.7.04-1.81.25-1.05.2-1.24.34-1.29.5-.1.35.5.79.77,1,1.05.78,2.17.97,2.32,1,3.15.5,4.06.03,5.67.5,1.05.31.87.57,4.13,2.99,2.44,1.81,3.66,2.72,4.64,2.99,2.12.57,4.03,0,6.45-.75,1.09-.33,1.89-.66,5.16-2.24,6.13-2.96,5.73-2.94,6.71-3.24,2.96-.89,5.45-.62,9.03-.25,2.66.28,4.11.67,7.74,1.49,6.19,1.4,9.29,2.1,12.12,2.49,7.81,1.07,7.5-.69,13.67.5,3.01.58,6.13,1.63,12.38,3.74,2,.67,4.5,1.55,7.99,1.74,1.16.06,2.21.04,3.13-.03v-.58c-1.93-.47-3.25-1.22-4.16-1.88-1.63-1.2-2.5-2.59-5.16-3.98-1.01-.53-1.82-.82-2.32-1-3.02-1.07-4.45-.73-8.51-1.25-1.61-.2-4.23-.54-7.48-1.49-2.42-.71-2.83-1.08-4.38-1.25-2.6-.28-4.12.46-6.45,1-3.48.81-6.2.59-10.32.25-5.43-.45-5.23-1.43-9.8-1.49-3.74-.05-4.35.61-7.99.25-3.63-.36-3.76-1.08-6.45-1-3.25.1-3.6,1.18-7.22,1.25-1.83.03-3.51.06-5.42-.75-2.43-1.03-2.86-2.43-4.38-2.24-1.51.19-2.44,1.73-3.87,1.49-.43-.07-1.72-.33-1.29-.25,0,0,1.84-2.47,3.87-2.99,2.01-.52,2.69,1.26,6.45,1.99.7.14,2.88.54,5.42,0,3.54-.75,3.75-2.49,6.19-2.49,1.62,0,1.64.77,5.93,2.49,2.35.94,3.52,1.41,4.9,1.49,2.48.14,2.74-.85,5.93-1.25,3.13-.38,5.87.21,7.22.5,2.64.57,2.69,1.03,4.13,1,2.36-.06,3.14-1.33,5.93-2.49.68-.29,3.93-1.58,7.48-1.25,2.2.21,2.6.86,7.99,3.24,3.79,1.67,5.69,2.51,7.74,2.99,2.21.52,5.57.92,10.06,0-1.52-.69-3.82-1.7-6.71-2.74-2.6-.94-3.52-1.14-8.77-2.74-7.94-2.42-7.72-2.55-9.28-2.74Z"/>
  <path class="cls-1" d="M40.78,80.77c-2.39.45-3.57-.69-5.67-.25-.44.09-1.07.28-1.81.75,2.81.3,5.17.79,6.96,1.25,1.85.47,4.29,1.11,7.22,2.49,2.56,1.21,2.34,1.5,4.13,2.24,3.66,1.53,7.06,1.35,9.03,1.25,2.46-.13,5.76-.31,9.03-2.24,2.87-1.69,2.55-2.87,5.93-4.73,3.18-1.75,5.72-1.95,6.45-1.99,1.36-.07,3.81-.21,5.67,1.25.77.6.62.83,1.29,1.25,2.08,1.29,5.14.04,6.45-.5,2.38-.97,2.55-1.72,4.64-2.74,1.5-.73,3.6-1.42,6.45-1.49-2.98-.8-5.34-.85-6.96-.75-2.12.14-3.5.58-5.67,0-.46-.12-1.94-.55-3.35-1.74-.66-.56-2.1-1.77-1.81-2.74.32-1.04,2.39-.85,2.58-1.74.16-.74-1.1-1.75-2.32-2.24-1.82-.73-3.1-.11-5.67,0-2.47.11-2.34-.48-5.16-.5-2.46-.02-2.75.33-4.13,0-1.82-.43-1.7-1.13-3.87-1.74-1.46-.41-2.79-.79-4.13-.25-.89.36-1.39.96-2.06.75-.45-.14-.84-.62-.77-1,.06-.37.53-.55,1.81-1,1.85-.64,2.77-.96,3.09-1,1.21-.12,2.11.13,3.35.5,2.1.61,2.13,1.05,3.61,1.49,2.16.64,4.13.31,5.93,0,2.2-.38,2.13-.76,4.13-1,1.64-.2,2.12,0,4.64,0,.34,0,2.51-.01,4.64-.25,1.66-.18,3.97-.57,6.71-1.49-1.9-.17-4.87-.44-8.51-.75-11.03-.93-11.3-.83-14.18-1.25-7.1-1.03-7.16-1.93-13.41-2.49-6.95-.62-9.81.23-11.86,1.74-1.62,1.19-2.56,2.67-3.09,3.74,2.63-.63,4.4-.06,5.16.25,1.5.61,2.55,1.67,3.87,2.99,1.57,1.57,1.36,1.83,2.32,2.49,1.91,1.32,4.16,1.28,5.16,1.25,2.6-.08,2.68-1,5.42-1.25,2.25-.2,3.94.27,5.67.75,2.31.64,4.44,1.23,4.9,2.74.18.61.07,1.27-.26,1.74-.65.95-2.24,1.29-2.84.75-.18-.16-.34-.47-.26-.75.18-.64,1.46-.56,1.55-1,.07-.33-.58-.78-2.06-1.49-1.85-.9-2.78-1.35-3.61-1.49-1.62-.28-2.06.27-4.9.75-1.99.33-3.78.63-5.93.25-2.55-.46-4.4-1.65-4.9-1.99-1.83-1.24-1.68-1.87-3.09-2.49-1.5-.66-2.6-.35-5.16-.25-1.39.05-3.42.05-5.93-.25.3.16.77.46,1.03,1,.15.31.23.72,0,1.99-.29,1.57-.53,1.59-.52,2.24.02.95.55,1.92,1.29,2.49.97.74,2.13.66,3.87.5,2.72-.25,2.68-.87,4.9-1,.75-.04.43.05,4.64.25,1.5.07,1.94.08,2.58,0,1.6-.2,2.06-.67,3.35-1,2.31-.59,4.38-.01,5.16.25,1.13.38,3.25,1.1,3.87,2.99.1.31.5,1.7-.26,2.74-.71.97-1.83.83-5.42,1.49-2.62.49-3.95.75-4.9,1.49-1.42,1.12-1.03,1.97-2.32,2.74-1.78,1.06-4.08.39-5.42,0-2.01-.59-3.46-1.65-4.38-2.49,0-.04,0-.68.52-1,.46-.28,1.12-.19,1.55.25.89.65,1.73,1.03,2.32,1.25.92.34,1.63.6,2.58.5,1.19-.13,2.01-.75,2.32-1,.75-.58.74-.93,1.29-1.49,1.06-1.08,2.56-1.28,4.13-1.49,2.21-.3,2.87.17,4.13-.5.19-.1,1.65-.9,1.55-1.74-.14-1.09-2.89-2.08-5.16-1.49-1.24.32-1.16.81-2.58,1.49-3.59,1.73-7.8.4-8.25.25-1.07-.35-1.33-.63-2.32-.75-1.63-.2-2.41.37-4.13.75-.35.08-3.19.66-6.19-.25-1.4-.43-2.94-.89-3.61-2.24-.53-1.06-.48-2.58,0-3.74.34-.82.79-1.19.77-1.99-.02-.75-.43-1.36-.77-1.74-.7.03-1.78.06-3.09,0-2.26-.1-2.85-.35-3.87,0-1.13.39-1.03.93-2.58,1.99-.35.24-1.04.69-3.87,1.74-2.31.86-3.46,1.29-4.38,1.49-.99.21-1.39.2-7.74,0-2.99-.09-3.79-.12-5.16-.25-2.22-.21-2.76-.41-3.87-.5-1.04-.08-2.37-.05-3.97.3v1.41c.28.01.57.02.87.03,3.42.12,4.57-.02,6.71,0,7.74.09,9.03,2.12,12.89.75,1.81-.64,2.03-1.26,4.13-1.74,1.89-.43,4.69-.61,6.19-.5.5.04.91.11,1.55,0,.79-.13,1.09-.4,1.55-.25.44.15.85.63.77,1-.13.66-1.77.87-2.84,1-3.19.38-3.73-.41-5.67,0-2.36.5-1.97,1.75-4.38,2.24-2.09.42-2.8-.44-5.16.25-.52.15-1.54.46-2.58,1.25-1.28.97-1.02,1.49-2.06,2.24-1.13.82-1.92.57-4.38,1.25-1.25.34-2.22.73-2.84,1,.25.28.67.68,1.29,1,.42.21.9.37,2.58.5,1.68.13,2.52.19,3.35,0,.61-.14,1.42-.34,2.06-1,.39-.4.43-.67.77-1.25.53-.88,1.13-1.4,1.81-1.99,1.27-1.11,2.67-1.62,4.38-2.24,1.41-.51,3.29-1.18,5.93-1.49,1.46-.18,3.31-.39,5.67,0,2.86.47,4.65,1.5,5.67,2.24.59.43,2.05,1.49,1.81,2.24-.16.48-.93.63-1.55.75Z"/>
  <path class="cls-1" d="M120.99,77.78c-1.58.21-1.45.71-3.87,1.25-.79.17-1.82.28-3.87.5-1.8.19-2.71.28-3.35.25-1.27-.07-1.68-.29-3.09-.25-.56.02-1.23.04-2.06.25-.3.08-1.35.35-2.32,1-1.67,1.11-1.46,2.25-2.84,3.49-1.21,1.09-2.64,1.36-3.35,1.49-1.26.24-2.69.17-7.99-1.99-4.4-1.79-4.28-2.09-5.67-2.24-3.49-.38-6.39,1.26-7.22,1.74-2.12,1.23-1.97,1.97-4.38,3.74-.89.65-3.35,2.42-6.71,3.24-3.85.94-7.06.2-10.06-.5-3.48-.81-6.35-2.11-7.74-2.74-2.69-1.23-3.56-1.95-6.19-2.74-2.27-.68-4.16-.91-5.16-1-1.07-.1-2.64-.23-4.64,0-1.59.18-2.48.47-5.16.75-1.2.12-2.32.2-3.09-.5-.07-.06-.67-.61-.52-1,.26-.64,2.24.14,4.9-.5.69-.17,1.49-.53,3.09-1.25,2.29-1.03,2.17-1.18,3.09-1.49,2.9-.98,5.6.05,5.67-.25.04-.19-1.07-.58-1.55-.75-1.84-.64-3.45-1.2-5.67-1.25-1.7-.03-2.85.25-4.9.75-2.88.7-4.32,1.05-5.67,2.24-1.33,1.16-1.98,2.6-2.32,3.74.38.2.91.46,1.55.75,2.92,1.33,5.37,1.98,6.45,2.24,3.07.75,4.6,1.12,6.71,1,.95-.06,2.23-.23,3.87.25,1.21.35,2.4,1,2.32,1.25-.1.32-2.24-.33-5.93-.5-2.88-.13-2.85.2-5.16,0-2.11-.18-3.72-.6-6.19-1.25-2.82-.73-2.61-.87-4.38-1.25-2.87-.6-3.17-.19-6.19-.75-2.13-.39-2.03-.61-5.16-1.25-2.14-.43-3.22-.54-3.97-.54v31.81h119.54v-37.81c-.26,0-.53.02-.81.06Z"/>
  <path class="cls-1" d="M116.35,77.04c2.8-.08,3.96-.89,5.45-1.13v-8.7c-1.76.13-2.76.14-3.65.12-3.83-.07-5.67-.59-6.19-.75-.78-.23-2.86-.92-3.09-1-2.49-.82-2.69-.93-3.35-1-1.21-.12-1,.22-3.87.5-1.67.16-2.44.12-3.09.75-.4.38-.6.86-.77,1.25-.45,1.02-.19,1.31-.52,1.99-.61,1.28-2.23,1.72-2.32,1.74-1.04.27-1.4-.15-2.32.25-.19.08-1.14.49-1.29,1.25-.22,1.07,1.33,2.1,1.55,2.24,1.64,1.09,3.52.91,5.42.75,4.16-.35,6.24-.52,7.74-.5,5.37.08,5.54,2.37,10.32,2.24Z"/>
  <path class="cls-1" d="M4.68,34.95c2.77-.43,5.29-.82,8.25-2.24,3.28-1.57,3.41-2.64,6.71-3.98,1.17-.48,3.73-1.49,6.96-1.49,3.11,0,4.04.93,9.54,2.49,5.51,1.56,5.41.86,8.51,1.99,1.82.66,2.56,1.16,9.8,5.98,6.24,4.15,9.42,6.21,12.38,5.73,1.99-.33,3.35-1,3.35-1,1.88-.93,2.22-1.83,4.13-2.49.82-.28,1.49-.35,2.84-.5,2.73-.29,2.49.27,4.64,0,.45-.06,1.2-.17,1.81.25.21.15.6.49.52.75-.15.48-1.84.2-4.38.25-2.14.04-3.76.07-5.42.75-.9.37-2.14,1.07-3.35,2.49.96.26,2.4.55,4.13.5,2.32-.07,3.29-.7,5.42-1.25,4.86-1.24,5.68.55,9.8-.75,2.4-.75,2.35-1.44,5.42-2.49,2.42-.83,4.54-1.13,5.93-1.25-3.8-2.76-6.74-3.17-8.77-2.99-2.37.21-2.78,1.15-6.71,1.74-2.64.4-4.87.71-7.22-.25-1.88-.77-1.81-1.52-3.87-2.24-1.69-.59-3.1-.57-5.42-.5-3.03.09-3.5.55-6.45.5-3.81-.06-4.45-.85-4.64-1.25-.14-.29-.23-.77,0-1,.33-.33,1.18.05,1.81.25.32.1.95.27,4.38,0,3.24-.26,3.72-.49,6.71-.75,3.62-.31,4.5-.11,4.9,0,1.93.52,2.12,1.32,3.87,1.99,1.8.69,3.46.47,6.71,0,5.2-.75,5.26-1.68,7.99-1.49.81.06,3.59.25,6.19,1.99,2.02,1.36,2.08,2.41,3.87,2.99,2.3.74,4.56-.24,5.16-.5,1.95-.85,1.92-1.71,4.38-3.49.88-.63,2.74-1.95,5.42-2.74.42-.12,1.06-.31,1.84-.45V.25H2.26v34.98c.68-.04,1.43-.12,2.42-.28Z"/>
  <path class="cls-1" d="M11.64,77.53c.51-.34.84-.73,1.03-1-4.95-.97-8.24-1.21-10.41-1.03v3.45c1.13-.37,1.84-.58,2.68-.68,3.05-.4,4.91.47,6.71-.75Z"/>
  <path class="cls-1" d="M11.9,70.56c2.19.21,2.49.38,4.13.5,1.13.08,3.52.23,6.19-.25,4.04-.73,7.34-2.67,7.22-2.99-.05-.12-.58.02-3.35.5-2.49.43-3.73.64-4.64.75-3.21.37-2.78-.29-6.45,0,0,0-2.59.21-5.42-.25-.16-.03-.66,0-.77-.25-.03-.06-.05-.17,0-.25.21-.35,1.38.3,2.84,0,.18-.04.23-.06.77-.25,1.61-.56,2.42-.83,3.09-1,1.46-.35,2.67-.29,3.61-.25,1.43.06,1.37.25,2.32.25,2.17-.01,4.42-1,4.38-1.74-.01-.25-.43-.5-1.29-1-1.03-.6-1.55-.89-2.06-1-1.08-.22-1.7.37-3.61,1.25-1.26.58-2.29.9-4.38,1.49-2.95.83-5.42.78-7.22.75-.71-.01-2.23-.11-5-.47v1.75c1.95.17,3.98.51,3.97.71-.01.15-1.18.14-3.87.25-.03,0-.06,0-.1,0v1.47c1.36-.16,2.66-.2,3.97-.23,2.48-.06,4.58.14,5.67.25Z"/>
  <path class="cls-1" d="M7.25,64.83c2.44-.05,4.39-.51,6.45-1,2.36-.56,4.29-1.22,5.67-1.74-1.15-.19-2.85-.37-4.9-.25-2.35.14-2.97.57-5.67,1-2.13.34-4.2.67-6.54.45v.91c3.03.51,3.51.66,5,.63Z"/>
  <path class="cls-1" d="M44.65,35.95c-2.18-1.36-4.98-2.15-10.57-3.74-1.91-.54-3.11-.83-4.64-1-1.78-.2-4.05-.42-6.45.5-.63.24-.41.24-2.06,1-2.21,1.02-2.95,1.19-4.13,1.74-2.01.94-2.01,1.45-4.13,2.74-1.31.8-3.33,2.03-5.93,2.49-.51.09-1.91.04-4.48-.1v4.99c3.17-.41,6.45-.28,9.38-.17,2.32.09,4.32.27,6.96-.5,1.94-.57,3.7-1.49,3.61-1.74-.08-.24-1.78.36-4.64.5-1.29.06-1.8-.02-5.42-.25-1.89-.12-3.42-.2-4.38-.25-.57-.07-.9-.59-.77-1,.11-.35.56-.61,1.03-.5,3.63.49,6.64.42,8.77.25,2.04-.16,4.03-.48,6.19-1.25,2.17-.77,3.71-1.71,3.61-1.99-.16-.44-4.51.09-6.45-.5-.21-.06-.76-.23-.77-.5-.01-.19.24-.36.52-.5,1.02-.52,2.09-.49,2.58-.5.67,0,.12-.07,3.09-.5,3.51-.51,5.27-.76,6.45-.75,2.92.03,5.21.77,7.48,1.49,1.62.52,2.79,1.02,3.87,1.49,2.01.87,4.29,2.01,6.71,3.49-1.99-2.6-4.03-4.12-5.42-4.98Z"/>
</svg>