<?xml version="1.0" encoding="UTF-8"?>
<svg id="Layer_1" data-name="Layer 1" xmlns="http://www.w3.org/2000/svg" viewBox="0 0 68.78 63.18">
  <defs>
    <style>
      .cls-1 {
        fill: #f1f0ef;
        stroke-width: 0px;
      }
    </style>
  </defs>
  <path class="cls-1" d="M59.08,49.34c-.17-.19-1.42-1.55-1.24-2.96.12-.99.89-1.54,1.03-1.64.74-.53,1.03.03,1.86-.33.07-.03,1.37-.61,1.86-2.3.26-.9.06-1.28.41-2.63.14-.51.3-1.15.62-1.64.53-.83,1.15-.77,2.48-.99,1.38-.22,1.87-.47,2.25-.6.25-1.48.39-3,.41-4.54-2.24-1.19-3.81-1.93-5.35-2.42-4.95-1.57-4.7.75-10.97-.66-2.27-.51-4.76-1.44-9.73-3.29-2.91-1.09-4.07-1.6-6.21-1.97-2.87-.5-4.87-.84-7.24.33-.79.39-.46.37-5.38,4.27-2.63,2.08-3.26,2.52-4.14,2.96-1.94.97-3.47,1.74-5.17.99-.79-.35-1.77-1.55-3.72-3.94-2.61-3.2-2.47-3.54-3.31-3.94-1.29-.62-2.03,0-4.55-.66-.11-.03-.86-.24-1.63-1.05-.3.97-.56,1.95-.77,2.95.21.02.46.04.74.07,0,0,1.55.18,3.31.66,1.39.38,2.09.57,2.48.99.5.53.62.97,2.28,3.62.17.28.32.51.41.66-.63.02-1.57,0-2.69-.33-1.86-.53-2.84-1.47-4.14-2.3-.08-.05-1.16-.72-2.75-1.27-.17,1.29-.26,2.6-.26,3.93,0,.53.01,1.07.04,1.59.02,0,.05.01.07.02-.02.01-.04.03-.07.04.05.93.15,1.85.28,2.75,1.06-.87,1.53-1.39,2.27-1.15.41.14.83.53,1.66,1.31.69.65,1.03.99,1.03,1.31.03.98-1.78,2.29-3.52,2.3-.3,0-.48-.03-.65-.09.26.91.55,1.79.89,2.67.71-.15,1.7-.43,3.48-.94,2.23-.63,2.65-.82,2.69-.66.09.4-2.25,2.69-5.24,3.76.33.69.68,1.36,1.06,2.02.61-.33,1.39-.81,2.52-1.51,2.27-1.4,2.83-1.98,3.1-2.3,1.24-1.4,1.16-2.11,2.07-2.63.81-.47,1.29-.14,3.1,0,1.06.08,1.92.04,2.48,0,.27.51.61,1.31.62,2.3.01,1.05-.35,1.55-.62,2.63-.39,1.53-.42,3.53,0,4.93.54,1.78,1.77,2.4,2.9,2.96,2.41,1.2,4.68.43,4.97.33,1.37-.49,2-1.24,3.31-.99.79.16,1.01.52,1.86.99.36.2,3.74,1.96,6.62-.33,1.14-.91,1.07-1.55,2.07-1.97,1.82-.77,4.03.53,4.14,1.97.09,1.11-1.09,2.17-1.24,2.3-1.01.88-1.54.26-3.31.66-1.26.28-2.46.55-3.31,1.97-.44.74-.44,1.2-1.03,1.97-.25.32-.9,1.14-1.86,1.31-.76.14-1.33-.21-2.07-.66-.48-.29-1.14-.79-1.86-1.64-.34-.58-.88-.7-1.24-.33-.42.42-.41,1.26-.41,1.31.74,1.11,1.9,2.51,3.52,3.29.13.06.28.13.43.2,1.13.11,2.28.17,3.44.18.16-.1.33-.22.48-.38,1.04-1.02.72-2.14,1.86-3.61.76-.98,1.83-1.33,3.93-1.97,2.87-.88,3.78-.69,4.35-1.97.61-1.37.29-3.2.21-3.62-.5-2.49-2.2-3.44-3.1-3.94-.62-.35-2.29-1.11-4.14-.33-1.03.44-1.4,1.05-2.69,1.31-.51.11-.87.09-2.07,0-3.38-.27-3.12-.38-3.72-.33-1.78.16-1.75.99-3.93,1.31-1.39.21-2.32.32-3.1-.66-.59-.75-1.02-2.04-1.03-3.29,0-.86.18-.89.41-2.96.19-1.68.12-2.22,0-2.63-.21-.71-.58-1.11-.83-1.31,2.01.39,3.64.4,4.76.33,2.06-.13,2.93-.54,4.14.33,1.14.82,1.01,1.65,2.48,3.29.4.45,1.89,2.03,3.93,2.63,1.73.51,3.16.11,4.76-.33,2.28-.63,2.63-1.36,3.93-.99.67.19,1.41.79,2.9,1.97,1.19.95,1.71,1.53,1.66,1.97-.07.58-1.1.46-1.24,1.31-.06.37.06.77.21.99.48.71,1.75.26,2.28-.99.26-.63.35-1.5.21-2.3-.36-2-2.07-2.77-3.93-3.62-1.39-.63-2.75-1.25-4.55-.99-2.2.32-2.26,1.54-4.35,1.64-.8.04-2.61.09-4.14-1.64-.77-.87-.6-1.22-1.86-3.29-1.06-1.75-1.9-3.13-3.1-3.94-.6-.41-2.03-1.16-4.14-.33.43-1.41,1.18-3.35,2.48-4.93,1.65-2,3.94-3.12,9.52-2.3,5.01.74,5.06,1.93,10.76,3.29,2.31.55,2.53.41,11.38,1.65,2.92.41,5.3.76,6.83.99-2.2,1.21-4.05,1.73-5.38,1.97-1.71.31-3.45.33-3.72.33-2.03.01-2.41-.26-3.72,0-1.6.32-1.55.82-3.31,1.31-1.45.41-3.02.85-4.76,0-1.19-.58-1.21-1.16-2.9-1.97-1-.48-1.72-.82-2.69-.66-.26.04-1,.47-2.48,1.31-1.02.58-1.4.83-1.45,1.31-.05.5.26,1.12.62,1.31.54.28.94-.52,1.66-.99,1.07-.71,2.14-.21,3.31.33,1.74.81,1.64,1.73,3.1,2.3,1.11.43,1.34-.02,3.31,0,2.26.03,2.15.8,4.14.66,2.07-.15,3.09-.96,4.55,0,.98.64,1.99,1.98,1.86,2.96-.15,1.17-1.81.92-2.07,2.3-.24,1.27.92,2.88,1.45,3.62,1.13,1.57,2.32,2.14,2.69,2.3.17.08.34.14.5.19.51-.54.99-1.1,1.46-1.67-.98.02-1.92-.2-2.78-1.14Z"/>
  <path class="cls-1" d="M17.28,57.55c.49-.15,1.12-.36,1.24-.99.2-1-.97-2.39-1.45-2.96-.82-.97-2.26-2.34-4.55-2.96-1.9-.51-3.38-.23-4.55,0-.27.05-.52.11-.77.18.52.62,1.07,1.23,1.64,1.82.25-.02.51-.03.78-.02,1.79.06,3.08.8,4.55,1.64.39.22,1.28.74,1.24.99-.05.35-1.75-.67-3.75-.02.85.7,1.75,1.36,2.67,1.98.88.24,1.71.72,2.94.34Z"/>
  <path class="cls-1" d="M50.39,55.91c-.59.05-2.62.32-5.17,2.63-1.63,1.48-2.19,2.63-2.88,3.79.58-.13,1.15-.27,1.72-.42.25-.34.55-.69.95-1.07.66-.64,2.99-2.8,5.79-2.3.37.07.61.15.89.33.99-.54,1.95-1.12,2.87-1.74-1.43-1.46-3.18-1.31-4.17-1.22Z"/>
  <path class="cls-1" d="M11.9,48.34c.86-.17,2.17-.45,2.28-1.31.06-.49-.27-1.12-.62-1.31-.37-.2-.6.15-1.24.33-.51.14-.84.05-1.24,0-1.2-.14-3.45.08-4.97.66-.61.23-1.02.48-1.37.76.4.63.82,1.24,1.26,1.84.31-.38.7-.72,1.35-.95,1.56-.54,2,.5,4.55,0Z"/>
  <path class="cls-1" d="M56.81,15.48c-2.85-.44-5.45,1.27-6,1.64-2.24,1.53-2.87,3.21-4.76,3.29-1.15.05-1.19-.56-3.31-1.32-1.08-.38-3.28-1.17-5.79-.66-2.56.52-2.77,1.83-4.76,1.64-1.11-.11-2.05-.73-3.93-1.97-3.44-2.27-3.46-3.29-4.76-3.29-1.96,0-2.13,2.29-4.97,3.29-2.03.71-3.78.18-4.35,0-3.02-.96-3.56-3.31-5.17-2.63-1.63.69-3.1,3.94-3.1,3.94-.34-.11.69.23,1.03.33,1.15.32,1.89-1.73,3.1-1.97,1.22-.25,1.57,1.59,3.52,2.96,1.53,1.07,2.88,1.03,4.35.99,2.9-.09,3.19-1.5,5.79-1.64,2.16-.11,2.26.84,5.17,1.32,2.92.47,3.42-.39,6.41-.33,3.67.08,3.51,1.38,7.86,1.97,3.3.45,5.48.74,8.28-.33,1.87-.71,3.09-1.68,5.17-1.31,1.25.22,1.58.7,3.52,1.64,2.61,1.26,4.71,1.7,6,1.97.8.17,1.48.27,2.07.34-.18-.88-.4-1.75-.65-2.61-1.11-.67-2.42-1.62-4.32-2.99-4.33-3.14-4.65-4-6.41-4.27Z"/>
  <path class="cls-1" d="M24.74,4.96c-1.22-1.22-2.39-2.27-3.49-3.16-2.45.94-4.76,2.14-6.88,3.55,1.52.17,2.91.67,2.93,1.25.01.46-.85.46-2.28,1.97-.73.78-.91,1.22-1.45,1.31-.52.1-.98-.21-1.66-.66-.72-.48-.87-.79-1.34-.95-.38.33-.74.68-1.1,1.03.05.08.11.17.17.25.78,1.12,1.32,1.89,2.28,2.3.34.14,1.69.72,2.9-.33.39-.34.36-.5.83-.99.86-.89,1.69-1.12,2.48-1.31,1.3-.32,2.6-.65,3.93.33.66.49.55.73,1.45,1.64.74.76,1.47,1.26,3.72,2.3,1.85.85,2.78,1.28,3.93,1.64,2.89.91,5.15.96,6.62.99,2.89.05,5.14-.41,6.21-.66,2.89-.67,3.05-1.24,5.79-1.97,2.12-.57,4.77-1.27,7.86-.66,1.23.24,1.09.41,7.13,3.46-2.03-3.53-4.75-6.67-8-9.25-3.09,1.47-3.82-.73-7.62.86-1.71.72-2.48,1.55-4.35,1.64-1.39.07-2.54-.31-3.31-.66.97-1.87,1.96-2.8,2.69-3.29,1.33-.9,2.63-.93,4.35-.99,2.04-.06,3.4.31,3.52-.33.03-.14-.01-.3-.08-.45-.56-.31-1.13-.6-1.71-.88-.03,0-.06.01-.08.02-1.73.35-1.54-.38-3.72,0-1.08.19-1.62.28-2.28.66-1.53.87-1.8,2.06-3.31,3.29,0,0-1.09.88-2.69,1.31-2.37.64-4.93-2.08-9.93-7.56-.22-.24-.43-.47-.63-.69-1.69.31-3.34.74-4.93,1.28.66.99,1.36,2.21,2.04,3.69Z"/>
  <path class="cls-1" d="M3.01,19.75c.92-.34,1.81-1.35,2.07-2.63.02-.1.16-.8,0-.99-.16-.18-.48.24-1.03.66-.13.1-.27.18-.44.27-.49.92-.94,1.87-1.34,2.83.31-.06.47-.05.75-.15Z"/>
</svg>