<?xml version="1.0" encoding="UTF-8"?>
<svg id="Layer_1" data-name="Layer 1" xmlns="http://www.w3.org/2000/svg" viewBox="0 0 1503 300.35">
  <defs>
    <style>
      .cls-1 {
        fill: none;
        stroke: #f1f0ef;
        stroke-miterlimit: 10;
        stroke-width: 3px;
      }
    </style>
  </defs>
  <path class="cls-1" d="M1455.76,149.17c12.4,2.95,27.41,6.47,45.74,9.62v-20.34c-6.02-.34-12.48-.63-19.85-.87-29.27-.95-53.18-.48-67.96,0,9.84,3.11,24.01,7.29,42.07,11.59Z"/>
  <path class="cls-1" d="M1436.34,74.5c-23.83.51-25.05,3.73-48.54,5.15-19.71,1.19-23.77-.78-64.72-1.29-13.8-.17-25.08-.09-32.36,0,7.06,1.74,61.06,14.86,97.09,15.45,7.71.13,16.18,0,16.18,0,22.53-.33,38.22-1.97,45.31-2.57,22-1.87,30.77.33,52.21,1.68v-15.8c-7.7-.36-17.4-.79-29.56-1.33-30.2-1.34-32.19-1.36-35.6-1.29Z"/>
  <path class="cls-1" d="M1436.34,32.02c-17.5,3.51-14.62,7.8-32.36,14.16-23.26,8.33-53.57,10.06-58.25,10.3-18,.94-28.68-.47-48.54,2.57-2.77.42-20.31,3.17-19.42,5.15.74,1.64,13.58,1.66,38.83,2.57,36.44,1.32,34.4,2.17,55.02,2.57,21.32.42,22.05-.52,61.49-1.29,35.19-.68,53.86-1.04,68.39-.18V21.1c-9.05,2.26-14.42,4.68-29.56,7.06-18.11,2.84-23.09,1.35-35.6,3.86Z"/>
  <path class="cls-1" d="M1501.07,111.84c.15.03.29.06.43.09v-7.22c-10.39-.07-21.32-.25-32.8-.6,6.92,1.8,18.12,4.62,32.36,7.72Z"/>
  <path class="cls-1" d="M1115.96,83.51c-48.46-2.41-89.81.36-122.98,2.57-42.86,2.87-45.35,5.08-90.61,7.72-16.72.98-51.94,2.75-97.09,2.57-22.98-.09-58.38-.3-103.56-3.86-18.08-1.43-32.55-3.1-61.49-6.44-35.25-4.07-46.67-6.05-58.25-9.01-14.07-3.6-12.3-4.52-22.65-6.44-20.76-3.84-41.17-2.56-61.49-1.29-12.45.78-25.41,1.65-38.83,5.15-7.32,1.91-6.83,2.53-12.94,3.86-18.84,4.11-40.04,1.85-45.31,1.29-15.03-1.6-23.43-4.63-35.6-9.01-4.43-1.6-7.31-2.88-6.47-3.86,1.35-1.59,11.8-1.78,19.42-1.29,8.83.57,10.54,1.84,22.65,3.86,10.54,1.76,17.69,2.95,25.89,2.57,8.36-.39,11.21-2.1,22.65-5.15,22.27-5.93,35.82-5.91,35.6-7.72-.33-2.69-30.24-4.91-58.25-5.15-40.11-.34-71.15,3.44-84.14,5.15-76.19,10.02-74.53,20.26-129.45,25.75-24.68,2.47-55.29,1.65-116.5,0-42.52-1.14-66.55-2.96-95.06-2.37v30.98c36.98.35,56.13.61,59.46,1,12.75,1.49,35.26,4.82,58.25,2.57,3.89-.38,15.36-1.5,16.18-3.86.14-.39.25-1.59-6.47-3.86-4.33-1.46-17.59-5.93-35.6-5.15-13.59.59-14.59,3.51-29.13,3.86-10.36.25-22.14-.94-22.65-2.57-.16-.51.62-1.5,12.94-3.86,16.79-3.21,27-5.17,42.07-5.15,20.74.03,35.11,3.78,45.31,6.44,9.29,2.42,31.94,8.33,29.13,14.16-1.28,2.66-7.48,4.49-9.71,5.15-8.43,2.49-17.98,2.51-22.65,2.57-22.89.31-23.88,2.83-48.54,3.86-16.74.7-14.79-.53-67.96-2.57-3.9-.15-11.09-.41-20.63-.52v20.04c24.09.45,48.81-1.52,65.94-2.78,46.79-3.45,70.19-5.18,90.61-5.15,54.54.08,101.41,7.38,103.56,7.72,20.36,3.25,35.66,6.93,64.72,9.01,17.47,1.25,32.22,1.38,42.07,1.29-1.49-.59-3.75-1.48-6.47-2.57-25.82-10.35-27.81-12.1-35.6-14.16-6.14-1.62-17.04-2.37-38.83-3.86-27.58-1.89-51.78-2.57-51.78-2.57-24.31-.69-30.51-.17-38.83-2.57-10.88-3.14-14.6-8.17-16.18-10.3-2.11-2.85-5.27-7.1,0-10.3,2.51-1.52,6.46-2.52,19.42-3.86,26.48-2.74,36.17-1.3,58.25-3.86,9.95-1.16,14.93-1.73,19.42-2.57,8.7-1.63,13.75-3.29,16.18-2.57,2.52.75.3,3.49,0,3.86-4.05,5.01-17.92,8.98-32.36,10.3-6.82.62-8.81.2-22.65,1.29-13.13,1.03-15.59,1.75-16.18,2.57-1.28,1.79,6.21,4.08,9.71,5.15,13.22,4.04,27.25,5.03,29.13,5.15,39.48,2.58,50.95.15,71.2,2.57,13.19,1.58,10.94,2.93,51.78,15.45,30.6,9.38,45.9,14.07,58.25,15.45,26.62,2.97,50.56-.04,80.9-3.86,13.69-1.72,23.66-3.43,64.72-11.59,76.93-15.28,71.86-15.22,84.14-16.74,37.15-4.58,68.36-3.23,113.27-1.29,33.39,1.44,51.52,3.48,97.09,7.72,77.7,7.24,116.55,10.87,152.1,12.87,98.02,5.53,94.13-3.56,171.52,2.57,37.79,3,76.97,8.43,155.34,19.31,25.14,3.49,56.47,8.02,100.32,9.01,14.55.33,27.77.2,39.27-.13v-3c-24.19-2.44-40.82-6.28-52.21-9.75-20.45-6.21-31.39-13.4-64.72-20.6-12.67-2.73-22.86-4.24-29.13-5.15-37.85-5.51-55.89-3.77-106.79-6.44-20.17-1.06-53.11-2.78-93.85-7.72-30.32-3.68-35.54-5.57-55.02-6.44-32.62-1.45-51.74,2.35-80.9,5.15-43.69,4.19-77.82,3.03-129.45,1.29-68.15-2.31-65.65-7.42-122.98-7.72-46.9-.25-54.63,3.14-100.32,1.29-45.58-1.85-47.17-5.6-80.9-5.15-40.73.54-45.19,6.1-90.61,6.44-22.98.17-44.05.33-67.96-3.86-30.48-5.34-35.94-12.56-55.02-11.59-18.97.96-30.59,8.97-48.54,7.72-5.42-.38-21.57-1.72-16.18-1.29,0,0,23.05-12.75,48.54-15.45,25.22-2.67,33.7,6.53,80.9,10.3,8.78.7,36.18,2.78,67.96,0,44.42-3.89,47.07-12.87,77.67-12.87,20.34,0,20.61,3.96,74.43,12.87,29.45,4.88,44.18,7.31,61.49,7.72,31.13.74,34.32-4.41,74.43-6.44,39.33-1.99,73.72,1.07,90.61,2.57,33.1,2.94,33.73,5.34,51.78,5.15,29.63-.31,39.46-6.87,74.43-12.87,8.59-1.47,49.32-8.17,93.85-6.44,27.59,1.08,32.6,4.45,100.32,16.74,47.62,8.64,71.42,12.96,97.09,15.45,27.71,2.69,69.93,4.78,126.21,0-19.01-3.58-47.94-8.77-84.14-14.16-32.59-4.86-44.13-5.87-110.03-14.16-99.65-12.53-96.9-13.19-116.5-14.16Z"/>
  <path class="cls-1" d="M484.9,258.6c-30.05,2.32-44.76-3.56-71.2-1.29-5.46.47-13.48,1.47-22.65,3.86,35.25,1.53,64.82,4.06,87.38,6.44,23.21,2.44,53.8,5.73,90.61,12.87,32.14,6.24,29.41,7.73,51.78,11.59,45.94,7.92,88.53,6.98,113.27,6.44,30.85-.68,72.23-1.59,113.27-11.59,35.96-8.76,31.98-14.83,74.43-24.46,39.94-9.05,71.72-10.09,80.9-10.3,17.02-.39,47.82-1.09,71.2,6.44,9.6,3.09,7.79,4.3,16.18,6.44,26.14,6.66,64.44.2,80.9-2.57,29.85-5.03,31.98-8.87,58.25-14.16,18.82-3.79,45.12-7.33,80.9-7.72-37.34-4.15-67.04-4.41-87.38-3.86-26.56.72-43.86,2.99-71.2,0-5.81-.64-24.34-2.85-42.07-9.01-8.29-2.88-26.39-9.17-22.65-14.16,4.04-5.39,30-4.41,32.36-9.01,1.97-3.84-13.84-9.06-29.13-11.59-22.81-3.76-38.85-.59-71.2,0-31.02.57-29.41-2.47-64.72-2.57-30.83-.09-34.49,1.7-51.78,0-22.88-2.25-21.36-5.85-48.54-9.01-18.28-2.12-35-4.06-51.78-1.29-11.12,1.84-17.5,4.97-25.89,3.86-5.65-.74-10.51-3.18-9.71-5.15.77-1.91,6.65-2.86,22.65-5.15,23.2-3.32,34.81-4.98,38.83-5.15,15.13-.63,26.5.69,42.07,2.57,26.31,3.18,26.76,5.45,45.31,7.72,27.17,3.33,51.82,1.59,74.43,0,27.55-1.94,26.7-3.91,51.78-5.15,20.58-1.02,26.56.05,58.25,0,4.25,0,31.47-.07,58.25-1.29,20.81-.95,49.81-2.97,84.14-7.72-23.89-.89-61.11-2.27-106.79-3.86-138.46-4.83-141.83-4.27-177.99-6.44-89.1-5.33-89.86-9.98-168.28-12.87-87.2-3.21-123.1,1.19-148.86,9.01-20.33,6.17-32.08,13.78-38.83,19.31,33.02-3.26,55.27-.31,64.72,1.29,18.76,3.17,31.95,8.61,48.54,15.45,19.69,8.11,17.09,9.45,29.13,12.87,23.95,6.81,52.17,6.59,64.72,6.44,32.64-.41,33.59-5.18,67.96-6.44,28.19-1.03,49.42,1.39,71.2,3.86,29.03,3.3,55.78,6.34,61.49,14.16,2.29,3.14.85,6.56-3.24,9.01-8.16,4.9-28.14,6.65-35.6,3.86-2.27-.85-4.22-2.43-3.24-3.86,2.28-3.33,18.27-2.89,19.42-5.15.87-1.71-7.29-4.01-25.89-7.72-23.25-4.65-34.88-6.97-45.31-7.72-20.3-1.46-25.79,1.39-61.49,3.86-25.02,1.73-47.41,3.28-74.43,1.29-31.99-2.36-55.22-8.55-61.49-10.3-23.01-6.42-21.05-9.68-38.83-12.87-18.86-3.39-32.57-1.78-64.72-1.29-17.46.27-42.93.25-74.43-1.29,3.82.81,9.72,2.38,12.94,5.15,1.89,1.62,2.92,3.71,0,10.3-3.59,8.09-6.62,8.23-6.47,11.59.21,4.9,6.88,9.94,16.18,12.87,12.19,3.84,26.74,3.39,48.54,2.57,34.14-1.28,33.6-4.51,61.49-5.15,9.43-.22,5.42.25,58.25,1.29,18.8.37,24.38.41,32.36,0,20.13-1.04,25.9-3.44,42.07-5.15,28.95-3.06,54.97-.07,64.72,1.29,14.14,1.97,40.78,5.68,48.54,15.45,1.28,1.62,6.33,8.78-3.24,14.16-8.91,5.02-23.01,4.27-67.96,7.72-32.88,2.53-49.56,3.87-61.49,7.72-17.86,5.77-12.93,10.16-29.13,14.16-22.29,5.5-51.17,2.02-67.96,0-25.27-3.04-43.47-8.52-55.02-12.87,0-.2-.02-3.5,6.47-5.15,5.73-1.46,14.03-1,19.42,1.29,11.22,3.36,21.66,5.3,29.13,6.44,11.5,1.75,20.42,3.11,32.36,2.57,14.98-.67,25.21-3.89,29.13-5.15,9.36-3.02,9.25-4.82,16.18-7.72,13.33-5.59,32.09-6.63,51.78-7.72,27.68-1.54,36.03.88,51.78-2.57,2.35-.51,20.76-4.65,19.42-9.01-1.74-5.65-36.33-10.73-64.72-7.72-15.58,1.65-14.53,4.17-32.36,7.72-45.05,8.97-97.91,2.06-103.56,1.29-13.39-1.83-16.73-3.25-29.13-3.86-20.47-1.01-30.28,1.93-51.78,3.86-4.42.4-39.99,3.43-77.67-1.29-17.61-2.2-36.86-4.61-45.31-11.59-6.64-5.48-6.07-13.32,0-19.31,4.28-4.23,9.91-6.17,9.71-10.3-.19-3.9-5.45-7.02-9.71-9.01-8.82.17-22.33.31-38.83,0-28.38-.53-35.8-1.83-48.54,0-14.18,2.04-12.96,4.8-32.36,10.3-4.36,1.24-13.05,3.54-48.54,9.01-28.95,4.46-43.43,6.69-55.02,7.72-12.44,1.11-17.5,1.02-97.09,0-37.53-.48-47.59-.6-64.72-1.29-27.82-1.11-34.62-2.12-48.54-2.57-13.06-.43-29.71-.28-49.75,1.55v7.28c3.53.06,7.16.12,10.92.17,42.88.6,57.31-.12,84.14,0,97.16.45,113.28,10.95,161.81,3.86,22.67-3.31,25.53-6.53,51.78-9.01,23.77-2.24,58.87-3.13,77.67-2.57,6.23.19,11.44.55,19.42,0,9.96-.69,13.7-2.08,19.42-1.29,5.51.76,10.61,3.25,9.71,5.15-1.61,3.4-22.19,4.49-35.6,5.15-39.99,1.97-46.81-2.13-71.2,0-29.59,2.58-24.75,9.07-55.02,11.59-26.25,2.19-35.12-2.26-64.72,1.29-6.52.78-19.34,2.37-32.36,6.44-16.09,5.03-12.77,7.68-25.89,11.59-14.17,4.22-24.15,2.94-55.02,6.44-15.64,1.77-27.92,3.78-35.6,5.15,3.19,1.47,8.45,3.54,16.18,5.15,5.31,1.11,11.35,1.91,32.36,2.57,21.06.67,31.58,1,42.07,0,7.69-.74,17.83-1.76,25.89-5.15,4.9-2.06,5.43-3.48,9.71-6.44,6.6-4.56,14.17-7.26,22.65-10.3,15.97-5.71,33.56-8.4,55.02-11.59,17.68-2.63,41.34-6.08,74.43-7.72,18.36-.91,41.51-1.99,71.2,0,35.89,2.41,58.41,7.77,71.2,11.59,7.44,2.22,25.78,7.68,22.65,11.59-1.98,2.47-11.71,3.27-19.42,3.86Z"/>
  <path class="cls-1" d="M1433.11,239.29c35.17-.39,49.74-4.63,68.39-5.84v-44.98c-22.06.66-34.68.7-45.74.62-48.06-.36-71.1-3.05-77.67-3.86-9.84-1.21-35.86-4.75-38.83-5.15-31.28-4.25-33.76-4.82-42.07-5.15-15.22-.6-12.5,1.11-48.54,2.57-20.89.85-30.59.63-38.83,3.86-4.96,1.94-7.58,4.42-9.71,6.44-5.59,5.29-2.37,6.79-6.47,10.3-7.72,6.61-27.97,8.89-29.13,9.01-13.07,1.4-17.6-.77-29.13,1.29-2.34.42-14.27,2.55-16.18,6.44-2.72,5.53,16.73,10.85,19.42,11.59,20.58,5.63,44.14,4.68,67.96,3.86,52.19-1.8,78.28-2.69,97.09-2.57,67.43.42,69.47,12.26,129.45,11.59Z"/>
  <path class="cls-1" d="M119.21,241.86c6.35-1.76,10.5-3.78,12.94-5.15-62.12-5.01-103.36-6.24-130.66-5.31v17.86c14.14-1.92,23.11-2.98,33.57-3.54,38.26-2.04,61.56,2.41,84.14-3.86Z"/>
  <path class="cls-1" d="M122.45,205.82c27.43,1.11,31.22,1.98,51.78,2.57,14.23.41,44.15,1.21,77.67-1.29,50.7-3.78,92.12-13.8,90.61-15.45-.57-.63-7.27.1-42.07,2.57-31.21,2.22-46.81,3.32-58.25,3.86-40.29,1.89-34.88-1.52-80.9,0,0,0-32.53,1.07-67.96-1.29-1.97-.13-8.24,0-9.71-1.29-.37-.32-.61-.87,0-1.29,2.64-1.81,17.33,1.56,35.6,0,2.28-.19,2.92-.32,9.71-1.29,20.21-2.88,30.31-4.31,38.83-5.15,18.28-1.79,33.56-1.51,45.31-1.29,17.98.34,17.17,1.31,29.13,1.29,27.24-.05,55.44-5.17,55.02-9.01-.14-1.29-5.45-2.6-16.18-5.15-12.98-3.08-19.47-4.62-25.89-5.15-13.52-1.12-21.28,1.93-45.31,6.44-15.85,2.98-28.76,4.68-55.02,7.72-37.06,4.3-68.04,4.05-90.61,3.86-8.91-.07-28.01-.55-62.7-2.43v9.05c24.44.88,49.93,2.64,49.75,3.69-.13.79-14.87.71-48.54,1.29-.41,0-.8.01-1.21.02v7.58c17.1-.85,33.44-1.01,49.75-1.17,31.09-.3,57.52.74,71.2,1.29Z"/>
  <path class="cls-1" d="M64.2,176.21c30.57-.24,55.09-2.63,80.9-5.15,29.65-2.89,53.85-6.29,71.2-9.01-14.46-.97-35.82-1.93-61.49-1.29-29.51.74-37.31,2.93-71.2,5.15-26.72,1.75-52.65,3.44-82.12,2.32v4.71c37.96,2.64,43.99,3.42,62.7,3.27Z"/>
  <path class="cls-1" d="M533.45,26.87c-27.35-7.04-62.46-11.13-132.68-19.31-23.93-2.79-39-4.28-58.25-5.15-22.32-1.01-50.83-2.18-80.9,2.57-7.96,1.26-5.19,1.22-25.89,5.15-27.71,5.26-37.03,6.16-51.78,9.01-25.23,4.87-25.24,7.51-51.78,14.16-16.5,4.14-41.78,10.47-74.43,12.87-6.4.47-23.96.22-56.23-.5v25.82c39.81-2.13,80.9-1.46,117.71-.86,29.08.48,54.15,1.42,87.38-2.57,24.36-2.93,46.38-7.7,45.31-9.01-1.03-1.25-22.36,1.88-58.25,2.57-16.21.31-22.55-.12-67.96-1.29-23.7-.61-42.89-1.03-55.02-1.29-7.13-.34-11.26-3.06-9.71-5.15,1.35-1.82,7-3.15,12.94-2.57,45.59,2.51,83.33,2.16,110.03,1.29,25.63-.84,50.55-2.47,77.67-6.44,27.26-3.98,46.59-8.84,45.31-10.3-1.99-2.27-56.6.47-80.9-2.57-2.59-.33-9.5-1.19-9.71-2.57-.15-.96,2.98-1.84,6.47-2.57,12.76-2.69,26.22-2.55,32.36-2.57,8.42-.03,1.54-.36,38.83-2.57,44.05-2.62,66.07-3.93,80.9-3.86,36.64.16,65.36,3.96,93.85,7.72,20.3,2.69,35,5.3,48.54,7.72,25.25,4.52,53.8,10.38,84.14,18.02-24.94-13.43-50.61-21.28-67.96-25.75Z"/>
</svg>