<?xml version="1.0" encoding="UTF-8"?>
<svg id="Layer_1" data-name="Layer 1" xmlns="http://www.w3.org/2000/svg" viewBox="0 0 487.09 159.69">
  <defs>
    <style>
      .cls-1 {
        fill: none;
        stroke: #f1f0ef;
        stroke-miterlimit: 10;
        stroke-width: .5px;
      }
    </style>
  </defs>
  <g>
    <path class="cls-1" d="M319.17,82.21c1.36.79,3.02,1.73,5.03,2.57v-5.43c-.66-.09-1.37-.17-2.18-.23-3.22-.25-5.85-.13-7.48,0,1.08.83,2.64,1.95,4.63,3.09Z"/>
    <path class="cls-1" d="M317.03,62.27c-2.62.14-2.76,1-5.34,1.38-2.17.32-2.62-.21-7.12-.34-1.52-.05-2.76-.02-3.56,0,.78.46,6.72,3.97,10.68,4.13.85.03,1.78,0,1.78,0,2.48-.09,4.21-.53,4.99-.69,2.42-.5,3.39.09,5.75.45v-4.22c-.85-.1-1.91-.21-3.25-.36-3.32-.36-3.54-.36-3.92-.34Z"/>
    <path class="cls-1" d="M317.03,50.92c-1.93.94-1.61,2.08-3.56,3.78-2.56,2.23-5.89,2.69-6.41,2.75-1.98.25-3.16-.13-5.34.69-.3.11-2.23.85-2.14,1.38.08.44,1.49.44,4.27.69,4.01.35,3.79.58,6.05.69,2.35.11,2.43-.14,6.77-.34,3.87-.18,5.93-.28,7.53-.05v-12.5c-1,.6-1.59,1.25-3.25,1.88-1.99.76-2.54.36-3.92,1.03Z"/>
    <path class="cls-1" d="M324.16,72.24s.03.02.05.02v-1.93c-1.14-.02-2.35-.07-3.61-.16.76.48,1.99,1.23,3.56,2.06Z"/>
    <path class="cls-1" d="M281.78,64.67c-5.33-.64-9.88.1-13.53.69-4.72.77-4.99,1.36-9.97,2.06-1.84.26-5.72.74-10.68.69-2.53-.02-6.42-.08-11.4-1.03-1.99-.38-3.58-.83-6.77-1.72-3.88-1.09-5.14-1.62-6.41-2.41-1.55-.96-1.35-1.21-2.49-1.72-2.28-1.03-4.53-.68-6.77-.34-1.37.21-2.8.44-4.27,1.38-.81.51-.75.68-1.42,1.03-2.07,1.1-4.41.49-4.99.34-1.65-.43-2.58-1.24-3.92-2.41-.49-.43-.8-.77-.71-1.03.15-.42,1.3-.47,2.14-.34.97.15,1.16.49,2.49,1.03,1.16.47,1.95.79,2.85.69.92-.1,1.23-.56,2.49-1.38,2.45-1.58,3.94-1.58,3.92-2.06-.04-.72-3.33-1.31-6.41-1.38-4.41-.09-7.83.92-9.26,1.38-8.38,2.68-8.2,5.41-14.24,6.88-2.72.66-6.08.44-12.82,0-4.68-.31-7.32-.79-10.46-.63v8.27c4.07.09,6.18.16,6.54.27,1.4.4,3.88,1.29,6.41.69.43-.1,1.69-.4,1.78-1.03.01-.1.03-.43-.71-1.03-.48-.39-1.94-1.58-3.92-1.38-1.5.16-1.61.94-3.21,1.03-1.14.07-2.44-.25-2.49-.69-.02-.14.07-.4,1.42-1.03,1.85-.86,2.97-1.38,4.63-1.38,2.28,0,3.86,1.01,4.99,1.72,1.02.65,3.51,2.23,3.21,3.78-.14.71-.82,1.2-1.07,1.38-.93.66-1.98.67-2.49.69-2.52.08-2.63.76-5.34,1.03-1.84.19-1.63-.14-7.48-.69-.43-.04-1.22-.11-2.27-.14v5.35c2.65.12,5.37-.41,7.26-.74,5.15-.92,7.72-1.38,9.97-1.38,6,.02,11.16,1.97,11.4,2.06,2.24.87,3.92,1.85,7.12,2.41,1.92.33,3.55.37,4.63.34-.16-.16-.41-.4-.71-.69-2.84-2.76-3.06-3.23-3.92-3.78-.68-.43-1.87-.63-4.27-1.03-3.04-.5-5.7-.69-5.7-.69-2.67-.18-3.36-.05-4.27-.69-1.2-.84-1.61-2.18-1.78-2.75-.23-.76-.58-1.9,0-2.75.28-.41.71-.67,2.14-1.03,2.91-.73,3.98-.35,6.41-1.03,1.1-.31,1.64-.46,2.14-.69.96-.44,1.51-.88,1.78-.69.28.2.03.93,0,1.03-.45,1.34-1.97,2.4-3.56,2.75-.75.17-.97.05-2.49.34-1.44.28-1.72.47-1.78.69-.14.48.68,1.09,1.07,1.38,1.45,1.08,3,1.34,3.21,1.38,4.35.69,5.61.04,7.83.69,1.45.42,1.2.78,5.7,4.13,3.37,2.51,5.05,3.76,6.41,4.13,2.93.79,5.56-.01,8.9-1.03,1.51-.46,2.6-.92,7.12-3.09,8.47-4.08,7.91-4.07,9.26-4.47,4.09-1.22,7.52-.86,12.46-.34,3.67.39,5.67.93,10.68,2.06,8.55,1.94,12.83,2.9,16.74,3.44,10.79,1.48,10.36-.95,18.87.69,4.16.8,8.47,2.25,17.09,5.16,2.77.93,6.21,2.14,11.04,2.41,1.6.09,3.06.05,4.32-.03v-.8c-2.66-.65-4.49-1.68-5.75-2.6-2.25-1.66-3.45-3.58-7.12-5.5-1.39-.73-2.52-1.13-3.21-1.38-4.17-1.47-6.15-1.01-11.75-1.72-2.22-.28-5.84-.74-10.33-2.06-3.34-.98-3.91-1.49-6.05-1.72-3.59-.39-5.69.63-8.9,1.38-4.81,1.12-8.56.81-14.24.34-7.5-.62-7.22-1.98-13.53-2.06-5.16-.07-6.01.84-11.04.34-5.02-.49-5.19-1.5-8.9-1.38-4.48.14-4.97,1.63-9.97,1.72-2.53.05-4.85.09-7.48-1.03-3.35-1.43-3.95-3.35-6.05-3.09-2.09.26-3.37,2.4-5.34,2.06-.6-.1-2.37-.46-1.78-.34,0,0,2.54-3.41,5.34-4.13,2.78-.71,3.71,1.74,8.9,2.75.97.19,3.98.74,7.48,0,4.89-1.04,5.18-3.44,8.55-3.44,2.24,0,2.27,1.06,8.19,3.44,3.24,1.3,4.86,1.95,6.77,2.06,3.43.2,3.78-1.18,8.19-1.72,4.33-.53,8.11.29,9.97.69,3.64.79,3.71,1.43,5.7,1.38,3.26-.08,4.34-1.83,8.19-3.44.95-.39,5.43-2.18,10.33-1.72,3.04.29,3.59,1.19,11.04,4.47,5.24,2.31,7.86,3.46,10.68,4.13,3.05.72,7.7,1.28,13.89,0-2.09-.96-5.28-2.34-9.26-3.78-3.59-1.3-4.86-1.57-12.11-3.78-10.97-3.35-10.66-3.52-12.82-3.78Z"/>
    <path class="cls-1" d="M212.34,111.44c-3.31.62-4.93-.95-7.83-.34-.6.13-1.48.39-2.49,1.03,3.88.41,7.13,1.09,9.62,1.72,2.55.65,5.92,1.53,9.97,3.44,3.54,1.67,3.24,2.06,5.7,3.09,5.06,2.11,9.74,1.86,12.46,1.72,3.39-.18,7.95-.42,12.46-3.09,3.96-2.34,3.52-3.96,8.19-6.53,4.39-2.42,7.89-2.7,8.9-2.75,1.87-.1,5.26-.29,7.83,1.72,1.06.83.86,1.15,1.78,1.72,2.88,1.78,7.09.05,8.9-.69,3.28-1.34,3.52-2.37,6.41-3.78,2.07-1.01,4.97-1.96,8.9-2.06-4.11-1.11-7.38-1.18-9.62-1.03-2.92.19-4.83.8-7.83,0-.64-.17-2.68-.76-4.63-2.41-.91-.77-2.9-2.45-2.49-3.78.44-1.44,3.3-1.18,3.56-2.41.22-1.03-1.52-2.42-3.21-3.09-2.51-1.01-4.28-.16-7.83,0-3.41.15-3.24-.66-7.12-.69-3.39-.02-3.8.45-5.7,0-2.52-.6-2.35-1.56-5.34-2.41-2.01-.57-3.85-1.09-5.7-.34-1.22.49-1.93,1.33-2.85,1.03-.62-.2-1.16-.85-1.07-1.38.09-.51.73-.76,2.49-1.38,2.55-.89,3.83-1.33,4.27-1.38,1.66-.17,2.92.19,4.63.69,2.9.85,2.94,1.46,4.99,2.06,2.99.89,5.7.43,8.19,0,3.03-.52,2.94-1.05,5.7-1.38,2.27-.27,2.92.01,6.41,0,.47,0,3.46-.02,6.41-.34,2.29-.25,5.48-.79,9.26-2.06-2.63-.24-6.73-.61-11.75-1.03-15.24-1.29-15.61-1.14-19.59-1.72-9.8-1.42-9.89-2.67-18.52-3.44-9.6-.86-13.55.32-16.38,2.41-2.24,1.65-3.53,3.68-4.27,5.16,3.63-.87,6.08-.08,7.12.34,2.06.85,3.52,2.3,5.34,4.13,2.17,2.17,1.88,2.52,3.21,3.44,2.64,1.82,5.74,1.76,7.12,1.72,3.59-.11,3.7-1.38,7.48-1.72,3.1-.27,5.44.37,7.83,1.03,3.2.88,6.14,1.69,6.77,3.78.25.84.09,1.75-.36,2.41-.9,1.31-3.1,1.78-3.92,1.03-.25-.23-.46-.65-.36-1.03.25-.89,2.01-.77,2.14-1.38.1-.46-.8-1.07-2.85-2.06-2.56-1.24-3.84-1.86-4.99-2.06-2.23-.39-2.84.37-6.77,1.03-2.75.46-5.22.88-8.19.34-3.52-.63-6.08-2.28-6.77-2.75-2.53-1.71-2.32-2.59-4.27-3.44-2.08-.9-3.58-.48-7.12-.34-1.92.07-4.72.07-8.19-.34.42.22,1.07.64,1.42,1.38.21.43.32.99,0,2.75-.4,2.16-.73,2.2-.71,3.09.02,1.31.76,2.66,1.78,3.44,1.34,1.03,2.94.91,5.34.69,3.76-.34,3.7-1.2,6.77-1.38,1.04-.06.6.07,6.41.34,2.07.1,2.68.11,3.56,0,2.21-.28,2.85-.92,4.63-1.38,3.19-.82,6.05-.02,7.12.34,1.56.53,4.49,1.52,5.34,4.13.14.43.7,2.34-.36,3.78-.98,1.34-2.53,1.14-7.48,2.06-3.62.67-5.45,1.03-6.77,2.06-1.97,1.54-1.42,2.71-3.21,3.78-2.45,1.47-5.63.54-7.48,0-2.78-.81-4.78-2.28-6.05-3.44,0-.05,0-.93.71-1.38.63-.39,1.54-.27,2.14.34,1.23.9,2.38,1.42,3.21,1.72,1.27.47,2.25.83,3.56.69,1.65-.18,2.77-1.04,3.21-1.38,1.03-.81,1.02-1.29,1.78-2.06,1.47-1.49,3.53-1.77,5.7-2.06,3.05-.41,3.96.24,5.7-.69.26-.14,2.28-1.24,2.14-2.41-.19-1.51-4-2.87-7.12-2.06-1.71.44-1.6,1.11-3.56,2.06-4.96,2.4-10.77.55-11.4.34-1.47-.49-1.84-.87-3.21-1.03-2.25-.27-3.33.52-5.7,1.03-.49.11-4.4.92-8.55-.34-1.94-.59-4.06-1.23-4.99-3.09-.73-1.46-.67-3.56,0-5.16.47-1.13,1.09-1.65,1.07-2.75-.02-1.04-.6-1.88-1.07-2.41-.97.04-2.46.08-4.27,0-3.12-.14-3.94-.49-5.34,0-1.56.54-1.43,1.28-3.56,2.75-.48.33-1.44.95-5.34,2.41-3.19,1.19-4.78,1.79-6.05,2.06-1.37.3-1.93.27-10.68,0-4.13-.13-5.24-.16-7.12-.34-3.06-.3-3.81-.56-5.34-.69-1.44-.12-3.27-.07-5.48.42v1.94c.39.02.79.03,1.2.05,4.72.16,6.31-.03,9.26,0,10.69.12,12.47,2.92,17.81,1.03,2.49-.88,2.81-1.75,5.7-2.41,2.62-.6,6.48-.84,8.55-.69.69.05,1.26.15,2.14,0,1.1-.18,1.51-.56,2.14-.34.61.2,1.17.87,1.07,1.38-.18.91-2.44,1.2-3.92,1.38-4.4.53-5.15-.57-7.83,0-3.26.69-2.72,2.42-6.05,3.09-2.89.58-3.87-.6-7.12.34-.72.21-2.13.63-3.56,1.72-1.77,1.34-1.4,2.05-2.85,3.09-1.56,1.13-2.66.79-6.05,1.72-1.72.47-3.07,1.01-3.92,1.38.35.39.93.95,1.78,1.38.58.3,1.25.51,3.56.69,2.32.18,3.48.27,4.63,0,.85-.2,1.96-.47,2.85-1.38.54-.55.6-.93,1.07-1.72.73-1.22,1.56-1.94,2.49-2.75,1.76-1.53,3.69-2.24,6.05-3.09,1.95-.7,4.55-1.62,8.19-2.06,2.02-.24,4.57-.53,7.83,0,3.95.64,6.43,2.08,7.83,3.09.82.59,2.84,2.05,2.49,3.09-.22.66-1.29.87-2.14,1.03Z"/>
    <path class="cls-1" d="M323.09,107.31c-2.18.29-2,.99-5.34,1.72-1.09.24-2.51.39-5.34.69-2.49.26-3.75.39-4.63.34-1.75-.1-2.33-.4-4.27-.34-.77.02-1.69.05-2.85.34-.41.1-1.87.48-3.21,1.38-2.3,1.54-2.01,3.1-3.92,4.81-1.67,1.5-3.65,1.88-4.63,2.06-1.75.33-3.72.23-11.04-2.75-6.07-2.47-5.91-2.89-7.83-3.09-4.83-.52-8.83,1.74-9.97,2.41-2.93,1.71-2.72,2.72-6.05,5.16-1.23.9-4.63,3.34-9.26,4.47-5.31,1.3-9.75.27-13.89-.69-4.8-1.11-8.77-2.91-10.68-3.78-3.72-1.7-4.92-2.69-8.55-3.78-3.13-.94-5.75-1.25-7.12-1.38-1.48-.13-3.64-.31-6.41,0-2.19.25-3.42.65-7.12,1.03-1.65.17-3.21.27-4.27-.69-.09-.08-.93-.84-.71-1.38.36-.89,3.09.2,6.77-.69.95-.23,2.06-.73,4.27-1.72,3.16-1.42,3-1.63,4.27-2.06,4-1.35,7.74.07,7.83-.34.06-.26-1.47-.8-2.14-1.03-2.54-.88-4.76-1.66-7.83-1.72-2.34-.05-3.94.34-6.77,1.03-3.97.97-5.96,1.45-7.83,3.09-1.84,1.61-2.74,3.59-3.21,5.16.53.27,1.26.63,2.14,1.03,4.03,1.83,7.41,2.73,8.9,3.09,4.24,1.03,6.35,1.55,9.26,1.38,1.32-.08,3.09-.31,5.34.34,1.67.49,3.31,1.38,3.21,1.72-.14.44-3.09-.45-8.19-.69-3.98-.19-3.93.28-7.12,0-2.92-.25-5.14-.83-8.55-1.72-3.89-1.01-3.6-1.21-6.05-1.72-3.96-.83-4.38-.26-8.55-1.03-2.94-.54-2.81-.84-7.12-1.72-2.96-.6-4.45-.75-5.48-.74v43.93h165.06v-52.21c-.36,0-.74.03-1.12.08Z"/>
    <path class="cls-1" d="M316.68,106.28c3.87-.1,5.47-1.24,7.53-1.56v-12.01c-2.43.18-3.82.19-5.03.16-5.29-.1-7.82-.82-8.55-1.03-1.08-.32-3.95-1.27-4.27-1.38-3.44-1.13-3.71-1.29-4.63-1.38-1.67-.16-1.38.3-5.34.69-2.3.23-3.37.17-4.27,1.03-.55.52-.83,1.18-1.07,1.72-.61,1.41-.26,1.81-.71,2.75-.85,1.76-3.08,2.37-3.21,2.41-1.44.37-1.94-.21-3.21.34-.26.11-1.57.68-1.78,1.72-.3,1.48,1.84,2.9,2.14,3.09,2.27,1.5,4.86,1.25,7.48,1.03,5.74-.48,8.61-.72,10.68-.69,7.42.11,7.64,3.27,14.24,3.09Z"/>
    <path class="cls-1" d="M162.48,48.17c3.82-.59,7.31-1.13,11.4-3.09,4.52-2.17,4.71-3.65,9.26-5.5,1.62-.66,5.15-2.06,9.62-2.06,4.29,0,5.57,1.28,13.18,3.44,7.61,2.16,7.47,1.19,11.75,2.75,2.52.92,3.53,1.6,13.53,8.25,8.62,5.73,13.01,8.58,17.09,7.91,2.75-.45,4.63-1.38,4.63-1.38,2.6-1.28,3.06-2.52,5.7-3.44,1.13-.39,2.06-.49,3.92-.69,3.77-.4,3.44.37,6.41,0,.62-.08,1.66-.24,2.49.34.29.2.82.68.71,1.03-.21.67-2.54.28-6.05.34-2.95.05-5.2.09-7.48,1.03-1.25.51-2.96,1.48-4.63,3.44,1.33.36,3.31.76,5.7.69,3.2-.1,4.54-.97,7.48-1.72,6.71-1.71,7.85.76,13.53-1.03,3.31-1.04,3.25-1.98,7.48-3.44,3.34-1.15,6.26-1.56,8.19-1.72-5.25-3.81-9.31-4.37-12.11-4.13-3.27.29-3.84,1.59-9.26,2.41-3.64.55-6.72.98-9.97-.34-2.6-1.06-2.5-2.1-5.34-3.09-2.33-.82-4.28-.78-7.48-.69-4.19.12-4.84.75-8.9.69-5.25-.08-6.15-1.17-6.41-1.72-.19-.4-.32-1.07,0-1.38.46-.45,1.63.07,2.49.34.45.14,1.31.38,6.05,0,4.47-.35,5.14-.68,9.26-1.03,5-.43,6.22-.15,6.77,0,2.66.72,2.92,1.83,5.34,2.75,2.49.95,4.78.65,9.26,0,7.18-1.04,7.27-2.32,11.04-2.06,1.11.08,4.96.34,8.55,2.75,2.79,1.87,2.88,3.33,5.34,4.13,3.17,1.03,6.3-.33,7.12-.69,2.7-1.17,2.64-2.36,6.05-4.81,1.21-.87,3.79-2.7,7.48-3.78.59-.17,1.46-.42,2.54-.62V.25h-165.06v48.3c.94-.06,1.98-.17,3.34-.38Z"/>
    <path class="cls-1" d="M172.09,106.97c.7-.47,1.16-1.01,1.42-1.38-6.84-1.34-11.37-1.67-14.38-1.42v4.77c1.56-.51,2.54-.8,3.69-.94,4.21-.55,6.77.64,9.26-1.03Z"/>
    <path class="cls-1" d="M172.45,97.34c3.02.3,3.44.53,5.7.69,1.57.11,4.86.32,8.55-.34,5.58-1.01,10.14-3.69,9.97-4.13-.06-.17-.8.03-4.63.69-3.43.59-5.15.89-6.41,1.03-4.43.51-3.84-.41-8.9,0,0,0-3.58.29-7.48-.34-.22-.04-.91,0-1.07-.34-.04-.09-.07-.23,0-.34.29-.48,1.91.42,3.92,0,.25-.05.32-.09,1.07-.34,2.22-.77,3.34-1.15,4.27-1.38,2.01-.48,3.69-.4,4.99-.34,1.98.09,1.89.35,3.21.34,3-.01,6.1-1.38,6.05-2.41-.02-.34-.6-.7-1.78-1.38-1.43-.82-2.14-1.23-2.85-1.38-1.49-.3-2.34.51-4.99,1.72-1.74.79-3.16,1.25-6.05,2.06-4.08,1.15-7.49,1.08-9.97,1.03-.98-.02-3.08-.15-6.9-.65v2.42c2.69.24,5.49.71,5.48.98-.01.21-1.64.19-5.34.34-.05,0-.09,0-.13,0v2.03c1.88-.23,3.68-.27,5.48-.31,3.42-.08,6.33.2,7.83.34Z"/>
    <path class="cls-1" d="M166.04,89.43c3.36-.06,6.06-.7,8.9-1.38,3.26-.77,5.93-1.68,7.83-2.41-1.59-.26-3.94-.52-6.77-.34-3.25.2-4.11.78-7.83,1.38-2.94.47-5.79.92-9.04.62v1.26c4.18.71,4.84.91,6.9.87Z"/>
    <path class="cls-1" d="M217.68,49.54c-3.01-1.88-6.87-2.97-14.6-5.16-2.63-.74-4.29-1.14-6.41-1.38-2.46-.27-5.59-.58-8.9.69-.88.34-.57.33-2.85,1.38-3.05,1.41-4.07,1.65-5.7,2.41-2.78,1.3-2.78,2.01-5.7,3.78-1.82,1.1-4.6,2.8-8.19,3.44-.7.13-2.64.06-6.19-.13v6.9c4.38-.57,8.9-.39,12.95-.23,3.2.13,5.96.38,9.62-.69,2.68-.78,5.1-2.06,4.99-2.41-.11-.34-2.46.5-6.41.69-1.78.08-2.48-.03-7.48-.34-2.61-.16-4.72-.28-6.05-.34-.79-.09-1.24-.82-1.07-1.38.15-.49.77-.84,1.42-.69,5.02.67,9.17.58,12.11.34,2.82-.22,5.56-.66,8.55-1.72,3-1.06,5.13-2.36,4.99-2.75-.22-.61-6.23.13-8.9-.69-.29-.09-1.05-.32-1.07-.69-.02-.26.33-.49.71-.69,1.4-.72,2.89-.68,3.56-.69.93,0,.17-.1,4.27-.69,4.85-.7,7.27-1.05,8.9-1.03,4.03.04,7.19,1.06,10.33,2.06,2.23.72,3.85,1.42,5.34,2.06,2.78,1.21,5.92,2.77,9.26,4.81-2.74-3.59-5.57-5.68-7.48-6.88Z"/>
  </g>
  <g>
    <path class="cls-1" d="M329.1,63.22h8.1c5.5,0,8.2,3.05,8.2,8.65v3.45c0,5.6-2.7,8.65-8.2,8.65h-2.6v14.25h-5.5v-35ZM337.2,78.97c1.75,0,2.7-.8,2.7-3.3v-4.15c0-2.5-.95-3.3-2.7-3.3h-2.6v10.75h2.6Z"/>
    <path class="cls-1" d="M347.94,89.92v-18.4c0-5.6,2.95-8.8,8.35-8.8s8.35,3.2,8.35,8.8v18.4c0,5.6-2.95,8.8-8.35,8.8s-8.35-3.2-8.35-8.8ZM359.15,90.27v-19.1c0-2.5-1.1-3.45-2.85-3.45s-2.85.95-2.85,3.45v19.1c0,2.5,1.1,3.45,2.85,3.45s2.85-.95,2.85-3.45Z"/>
    <path class="cls-1" d="M368.35,63.22h8.15c5.7,0,8.15,2.65,8.15,8.05v2.15c0,3.6-1.15,5.9-3.6,6.9v.1c2.75.85,3.65,3.45,3.65,7.4v6.15c0,1.7.05,2.95.6,4.25h-5.6c-.3-.9-.5-1.45-.5-4.3v-6.4c0-3.25-.95-4.3-3.45-4.3h-1.9v15h-5.5v-35ZM375.85,78.22c2.05,0,3.3-.9,3.3-3.7v-2.7c0-2.5-.85-3.6-2.8-3.6h-2.5v10h2Z"/>
    <path class="cls-1" d="M392.65,68.22h-5.75v-5h17v5h-5.75v30h-5.5v-30Z"/>
    <path class="cls-1" d="M406.55,63.22h14.55v5h-9.05v9.75h7.1v5h-7.1v15.25h-5.5v-35Z"/>
    <path class="cls-1" d="M423.34,89.92v-18.4c0-5.6,2.95-8.8,8.35-8.8s8.35,3.2,8.35,8.8v18.4c0,5.6-2.95,8.8-8.35,8.8s-8.35-3.2-8.35-8.8ZM434.55,90.27v-19.1c0-2.5-1.1-3.45-2.85-3.45s-2.85.95-2.85,3.45v19.1c0,2.5,1.1,3.45,2.85,3.45s2.85-.95,2.85-3.45Z"/>
    <path class="cls-1" d="M443.75,63.22h5.5v30h9.05v5h-14.55v-35Z"/>
    <path class="cls-1" d="M460.94,63.22h5.5v35h-5.5v-35Z"/>
    <path class="cls-1" d="M470.14,89.92v-18.4c0-5.6,2.95-8.8,8.35-8.8s8.35,3.2,8.35,8.8v18.4c0,5.6-2.95,8.8-8.35,8.8s-8.35-3.2-8.35-8.8ZM481.34,90.27v-19.1c0-2.5-1.1-3.45-2.85-3.45s-2.85.95-2.85,3.45v19.1c0,2.5,1.1,3.45,2.85,3.45s2.85-.95,2.85-3.45Z"/>
  </g>
  <g>
    <path class="cls-1" d="M.25,91.07v-2h5.2v2.4c0,2.5,1.1,3.4,2.85,3.4s2.9-.9,2.9-3.5c0-2.9-1.2-4.7-4.8-7.85-4.6-4.05-6.15-6.95-6.15-10.95,0-5.5,2.85-8.7,8.2-8.7s8,3.2,8,8.8v1.45h-5.2v-1.8c0-2.5-1-3.45-2.75-3.45s-2.8.95-2.8,3.35c0,2.55,1.25,4.35,4.85,7.5,4.6,4.05,6.1,6.9,6.1,11.25,0,5.7-2.9,8.9-8.3,8.9S.25,96.68.25,91.07Z"/>
    <path class="cls-1" d="M19.75,64.37h15v5h-9.5v9.25h7.55v5h-7.55v10.75h9.5v5h-15v-35Z"/>
    <path class="cls-1" d="M37.7,64.37h7.75l3.65,25.4,3.65-25.4h7.75v35h-5.2v-26.5l-4.1,26.5h-4.6l-4.1-26.5v26.5h-4.8v-35Z"/>
    <path class="cls-1" d="M64.6,64.37h15v5h-9.5v9.25h7.55v5h-7.55v10.75h9.5v5h-15v-35Z"/>
    <path class="cls-1" d="M81.7,91.07v-2h5.2v2.4c0,2.5,1.1,3.4,2.85,3.4s2.9-.9,2.9-3.5c0-2.9-1.2-4.7-4.8-7.85-4.6-4.05-6.15-6.95-6.15-10.95,0-5.5,2.85-8.7,8.2-8.7s8,3.2,8,8.8v1.45h-5.2v-1.8c0-2.5-1-3.45-2.75-3.45s-2.8.95-2.8,3.35c0,2.55,1.25,4.35,4.85,7.5,4.6,4.05,6.1,6.9,6.1,11.25,0,5.7-2.9,8.9-8.3,8.9s-8.1-3.2-8.1-8.8Z"/>
    <path class="cls-1" d="M105.45,69.37h-5.75v-5h17v5h-5.75v30h-5.5v-30Z"/>
    <path class="cls-1" d="M119.35,64.37h15v5h-9.5v9.25h7.55v5h-7.55v10.75h9.5v5h-15v-35Z"/>
    <path class="cls-1" d="M137.3,64.37h8.15c5.7,0,8.15,2.65,8.15,8.05v2.15c0,3.6-1.15,5.9-3.6,6.9v.1c2.75.85,3.65,3.45,3.65,7.4v6.15c0,1.7.05,2.95.6,4.25h-5.6c-.3-.9-.5-1.45-.5-4.3v-6.4c0-3.25-.95-4.3-3.45-4.3h-1.9v15h-5.5v-35ZM144.8,79.37c2.05,0,3.3-.9,3.3-3.7v-2.7c0-2.5-.85-3.6-2.8-3.6h-2.5v10h2Z"/>
  </g>
</svg>