<?xml version="1.0" encoding="UTF-8"?>
<svg id="Layer_1" data-name="Layer 1" xmlns="http://www.w3.org/2000/svg" viewBox="0 0 400 150">
  <defs>
    <style>
      .cls-1 {
        fill: #f1f0ef;
        stroke-width: 0px;
      }

      .cls-2 {
        fill: none;
        stroke: #f1f0ef;
        stroke-miterlimit: 10;
        stroke-width: .5px;
      }
    </style>
  </defs>
  <g>
    <path class="cls-2" d="M251.87,76.58c.91.53,2.02,1.16,3.37,1.72v-3.64c-.44-.06-.92-.11-1.46-.16-2.16-.17-3.92-.09-5.01,0,.72.56,1.77,1.3,3.1,2.07Z"/>
    <path class="cls-2" d="M250.44,63.23c-1.76.09-1.85.67-3.58.92-1.45.21-1.75-.14-4.77-.23-1.02-.03-1.85-.02-2.38,0,.52.31,4.5,2.66,7.15,2.76.57.02,1.19,0,1.19,0,1.66-.06,2.81-.35,3.34-.46,1.62-.33,2.27.06,3.85.3v-2.82c-.57-.06-1.28-.14-2.18-.24-2.22-.24-2.37-.24-2.62-.23Z"/>
    <path class="cls-2" d="M250.44,55.64c-1.29.63-1.08,1.39-2.38,2.53-1.71,1.49-3.95,1.8-4.29,1.84-1.33.17-2.11-.08-3.58.46-.2.08-1.5.57-1.43.92.05.29,1,.3,2.86.46,2.68.24,2.53.39,4.05.46,1.57.07,1.62-.09,4.53-.23,2.59-.12,3.97-.19,5.04-.03v-8.36c-.67.4-1.06.84-2.18,1.26-1.33.51-1.7.24-2.62.69Z"/>
    <path class="cls-2" d="M255.21,69.91s.02.01.03.02v-1.29c-.77-.01-1.57-.04-2.42-.11.51.32,1.33.83,2.38,1.38Z"/>
    <path class="cls-2" d="M226.85,64.85c-3.57-.43-6.62.06-9.06.46-3.16.51-3.34.91-6.67,1.38-1.23.17-3.83.49-7.15.46-1.69-.02-4.3-.05-7.63-.69-1.33-.25-2.4-.55-4.53-1.15-2.6-.73-3.44-1.08-4.29-1.61-1.04-.64-.91-.81-1.67-1.15-1.53-.69-3.03-.46-4.53-.23-.92.14-1.87.29-2.86.92-.54.34-.5.45-.95.69-1.39.73-2.95.33-3.34.23-1.11-.29-1.73-.83-2.62-1.61-.33-.29-.54-.51-.48-.69.1-.28.87-.32,1.43-.23.65.1.78.33,1.67.69.78.31,1.3.53,1.91.46.62-.07.83-.38,1.67-.92,1.64-1.06,2.64-1.06,2.62-1.38-.02-.48-2.23-.88-4.29-.92-2.95-.06-5.24.62-6.2.92-5.61,1.79-5.49,3.62-9.53,4.6-1.82.44-4.07.29-8.58,0-3.13-.2-4.9-.53-7-.42v5.54c2.72.06,4.13.11,4.38.18.94.27,2.6.86,4.29.46.29-.07,1.13-.27,1.19-.69.01-.07.02-.28-.48-.69-.32-.26-1.3-1.06-2.62-.92-1,.11-1.07.63-2.15.69-.76.04-1.63-.17-1.67-.46-.01-.09.05-.27.95-.69,1.24-.57,1.99-.92,3.1-.92,1.53,0,2.59.68,3.34,1.15.68.43,2.35,1.49,2.15,2.53-.09.48-.55.8-.72.92-.62.44-1.32.45-1.67.46-1.69.06-1.76.51-3.58.69-1.23.12-1.09-.09-5.01-.46-.29-.03-.82-.07-1.52-.09v3.58c1.77.08,3.6-.27,4.86-.5,3.45-.62,5.17-.93,6.67-.92,4.02.01,7.47,1.32,7.63,1.38,1.5.58,2.63,1.24,4.77,1.61,1.29.22,2.37.25,3.1.23-.11-.11-.28-.26-.48-.46-1.9-1.85-2.05-2.16-2.62-2.53-.45-.29-1.25-.42-2.86-.69-2.03-.34-3.81-.46-3.81-.46-1.79-.12-2.25-.03-2.86-.46-.8-.56-1.08-1.46-1.19-1.84-.16-.51-.39-1.27,0-1.84.18-.27.48-.45,1.43-.69,1.95-.49,2.66-.23,4.29-.69.73-.21,1.1-.31,1.43-.46.64-.29,1.01-.59,1.19-.46.19.13.02.62,0,.69-.3.9-1.32,1.61-2.38,1.84-.5.11-.65.04-1.67.23-.97.18-1.15.31-1.19.46-.09.32.46.73.72.92.97.72,2.01.9,2.15.92,2.91.46,3.75.03,5.24.46.97.28.81.52,3.81,2.76,2.25,1.68,3.38,2.52,4.29,2.76,1.96.53,3.72,0,5.96-.69,1.01-.31,1.74-.61,4.77-2.07,5.67-2.73,5.29-2.72,6.2-2.99,2.74-.82,5.04-.58,8.34-.23,2.46.26,3.79.62,7.15,1.38,5.72,1.3,8.58,1.94,11.2,2.3,7.22.99,6.93-.64,12.63.46,2.78.54,5.67,1.51,11.44,3.45,1.85.62,4.16,1.43,7.39,1.61,1.07.06,2.05.04,2.89-.02v-.54c-1.78-.44-3.01-1.12-3.85-1.74-1.51-1.11-2.31-2.4-4.77-3.68-.93-.49-1.68-.76-2.15-.92-2.79-.99-4.12-.67-7.87-1.15-1.49-.19-3.91-.5-6.91-1.38-2.23-.66-2.62-1-4.05-1.15-2.4-.26-3.81.42-5.96.92-3.22.75-5.73.54-9.53.23-5.02-.41-4.84-1.33-9.06-1.38-3.45-.04-4.02.56-7.39.23-3.36-.33-3.47-1-5.96-.92-3,.1-3.33,1.09-6.67,1.15-1.69.03-3.24.06-5.01-.69-2.24-.96-2.65-2.24-4.05-2.07-1.4.17-2.25,1.6-3.58,1.38-.4-.07-1.59-.31-1.19-.23,0,0,1.7-2.28,3.58-2.76,1.86-.48,2.48,1.17,5.96,1.84.65.13,2.66.5,5.01,0,3.27-.69,3.47-2.3,5.72-2.3,1.5,0,1.52.71,5.48,2.3,2.17.87,3.25,1.31,4.53,1.38,2.29.13,2.53-.79,5.48-1.15,2.9-.36,5.43.19,6.67.46,2.44.53,2.48.95,3.81.92,2.18-.05,2.91-1.23,5.48-2.3.63-.26,3.63-1.46,6.91-1.15,2.03.19,2.4.8,7.39,2.99,3.51,1.54,5.26,2.32,7.15,2.76,2.04.48,5.15.85,9.3,0-1.4-.64-3.53-1.57-6.2-2.53-2.4-.87-3.25-1.05-8.1-2.53-7.34-2.24-7.14-2.36-8.58-2.53Z"/>
    <path class="cls-2" d="M180.36,96.15c-2.21.41-3.3-.64-5.24-.23-.4.08-.99.26-1.67.69,2.6.27,4.77.73,6.44,1.15,1.71.44,3.96,1.02,6.67,2.3,2.37,1.12,2.17,1.38,3.81,2.07,3.38,1.42,6.52,1.25,8.34,1.15,2.27-.12,5.32-.28,8.34-2.07,2.65-1.57,2.36-2.65,5.48-4.37,2.94-1.62,5.28-1.8,5.96-1.84,1.25-.07,3.52-.19,5.24,1.15.71.55.57.77,1.19,1.15,1.93,1.19,4.75.04,5.96-.46,2.2-.9,2.36-1.59,4.29-2.53,1.39-.68,3.32-1.31,5.96-1.38-2.75-.74-4.94-.79-6.44-.69-1.96.13-3.23.53-5.24,0-.43-.11-1.79-.51-3.1-1.61-.61-.52-1.94-1.64-1.67-2.53.3-.96,2.21-.79,2.38-1.61.15-.69-1.02-1.62-2.15-2.07-1.68-.67-2.86-.11-5.24,0-2.28.1-2.17-.44-4.77-.46-2.27-.02-2.54.3-3.81,0-1.69-.4-1.57-1.05-3.58-1.61-1.35-.38-2.58-.73-3.81-.23-.82.33-1.29.89-1.91.69-.42-.13-.77-.57-.72-.92.06-.34.49-.51,1.67-.92,1.71-.59,2.56-.89,2.86-.92,1.11-.11,1.95.12,3.1.46,1.94.57,1.97.97,3.34,1.38,2,.6,3.82.28,5.48,0,2.03-.35,1.97-.7,3.81-.92,1.52-.18,1.96,0,4.29,0,.31,0,2.32-.01,4.29-.23,1.53-.17,3.67-.53,6.2-1.38-1.76-.16-4.5-.41-7.87-.69-10.2-.86-10.45-.76-13.11-1.15-6.56-.95-6.62-1.79-12.4-2.3-6.42-.57-9.07.21-10.96,1.61-1.5,1.1-2.36,2.46-2.86,3.45,2.43-.58,4.07-.06,4.77.23,1.38.57,2.35,1.54,3.58,2.76,1.45,1.45,1.26,1.69,2.15,2.3,1.76,1.22,3.84,1.18,4.77,1.15,2.4-.07,2.47-.93,5.01-1.15,2.08-.18,3.64.25,5.24.69,2.14.59,4.11,1.13,4.53,2.53.17.56.06,1.17-.24,1.61-.6.88-2.07,1.19-2.62.69-.17-.15-.31-.43-.24-.69.17-.6,1.35-.52,1.43-.92.06-.31-.54-.72-1.91-1.38-1.71-.83-2.57-1.25-3.34-1.38-1.5-.26-1.9.25-4.53.69-1.84.31-3.49.59-5.48.23-2.36-.42-4.07-1.53-4.53-1.84-1.7-1.15-1.55-1.73-2.86-2.3-1.39-.61-2.4-.32-4.77-.23-1.29.05-3.16.05-5.48-.23.28.15.72.43.95.92.14.29.22.66,0,1.84-.26,1.45-.49,1.47-.48,2.07.02.88.51,1.78,1.19,2.3.9.69,1.97.61,3.58.46,2.51-.23,2.47-.81,4.53-.92.69-.04.4.04,4.29.23,1.38.07,1.8.07,2.38,0,1.48-.19,1.91-.62,3.1-.92,2.13-.55,4.05-.01,4.77.23,1.04.35,3,1.02,3.58,2.76.09.29.47,1.57-.24,2.53-.66.9-1.7.76-5.01,1.38-2.42.45-3.65.69-4.53,1.38-1.32,1.03-.95,1.82-2.15,2.53-1.64.98-3.77.36-5.01,0-1.86-.54-3.2-1.52-4.05-2.3,0-.04,0-.62.48-.92.42-.26,1.03-.18,1.43.23.83.6,1.6.95,2.15,1.15.85.31,1.5.56,2.38.46,1.1-.12,1.86-.69,2.15-.92.69-.54.68-.86,1.19-1.38.98-1,2.36-1.19,3.81-1.38,2.04-.28,2.65.16,3.81-.46.17-.09,1.53-.83,1.43-1.61-.13-1.01-2.68-1.92-4.77-1.38-1.15.3-1.07.75-2.38,1.38-3.32,1.6-7.21.37-7.63.23-.99-.33-1.23-.58-2.15-.69-1.51-.18-2.23.35-3.81.69-.33.07-2.95.61-5.72-.23-1.3-.39-2.71-.82-3.34-2.07-.49-.98-.45-2.38,0-3.45.32-.76.73-1.1.72-1.84-.01-.7-.4-1.26-.72-1.61-.65.03-1.64.06-2.86,0-2.09-.09-2.64-.33-3.58,0-1.04.36-.95.86-2.38,1.84-.32.22-.96.63-3.58,1.61-2.13.8-3.2,1.2-4.05,1.38-.92.2-1.29.18-7.15,0-2.76-.09-3.51-.11-4.77-.23-2.05-.2-2.55-.38-3.58-.46-.96-.08-2.19-.05-3.66.28v1.3c.26.01.53.02.8.03,3.16.11,4.22-.02,6.2,0,7.16.08,8.34,1.96,11.92.69,1.67-.59,1.88-1.17,3.81-1.61,1.75-.4,4.34-.56,5.72-.46.46.03.84.1,1.43,0,.73-.12,1.01-.37,1.43-.23.41.14.78.58.72.92-.12.61-1.63.8-2.62.92-2.95.35-3.45-.38-5.24,0-2.18.46-1.82,1.62-4.05,2.07-1.93.39-2.59-.4-4.77.23-.48.14-1.42.42-2.38,1.15-1.19.9-.94,1.37-1.91,2.07-1.04.75-1.78.53-4.05,1.15-1.15.32-2.06.68-2.62.92.23.26.62.63,1.19.92.39.2.84.34,2.38.46,1.55.12,2.33.18,3.1,0,.57-.13,1.31-.31,1.91-.92.36-.37.4-.62.72-1.15.49-.81,1.04-1.3,1.67-1.84,1.18-1.02,2.47-1.5,4.05-2.07,1.3-.47,3.04-1.09,5.48-1.38,1.35-.16,3.06-.36,5.24,0,2.64.43,4.3,1.39,5.24,2.07.55.4,1.9,1.37,1.67,2.07-.15.44-.86.58-1.43.69Z"/>
    <path class="cls-2" d="M254.5,93.39c-1.46.19-1.34.66-3.58,1.15-.73.16-1.68.26-3.58.46-1.66.18-2.51.26-3.1.23-1.17-.06-1.56-.27-2.86-.23-.52.01-1.13.04-1.91.23-.28.07-1.25.32-2.15.92-1.54,1.03-1.35,2.08-2.62,3.22-1.12,1-2.44,1.26-3.1,1.38-1.17.22-2.49.15-7.39-1.84-4.07-1.66-3.95-1.93-5.24-2.07-3.23-.35-5.91,1.17-6.67,1.61-1.96,1.14-1.82,1.82-4.05,3.45-.82.6-3.1,2.23-6.2,2.99-3.55.87-6.53.18-9.3-.46-3.21-.74-5.87-1.95-7.15-2.53-2.49-1.14-3.29-1.8-5.72-2.53-2.1-.63-3.85-.84-4.77-.92-.99-.09-2.44-.21-4.29,0-1.47.17-2.29.44-4.77.69-1.11.11-2.15.18-2.86-.46-.06-.06-.62-.56-.48-.92.24-.6,2.07.13,4.53-.46.64-.15,1.38-.49,2.86-1.15,2.12-.95,2.01-1.09,2.86-1.38,2.68-.9,5.18.04,5.24-.23.04-.17-.98-.54-1.43-.69-1.7-.59-3.19-1.11-5.24-1.15-1.57-.03-2.64.23-4.53.69-2.66.65-3.99.97-5.24,2.07-1.23,1.07-1.83,2.4-2.15,3.45.35.18.84.42,1.43.69,2.7,1.23,4.96,1.83,5.96,2.07,2.84.69,4.25,1.04,6.2.92.88-.05,2.07-.21,3.58.23,1.12.33,2.22.92,2.15,1.15-.09.3-2.07-.3-5.48-.46-2.67-.12-2.63.19-4.77,0-1.95-.17-3.44-.56-5.72-1.15-2.61-.68-2.41-.81-4.05-1.15-2.65-.56-2.93-.17-5.72-.69-1.97-.36-1.88-.56-4.77-1.15-1.98-.4-2.98-.5-3.66-.5v29.4h110.49v-34.94c-.24,0-.49.02-.75.05Z"/>
    <path class="cls-2" d="M250.21,92.7c2.59-.07,3.66-.83,5.04-1.04v-8.04c-1.62.12-2.55.13-3.37.11-3.54-.06-5.24-.55-5.72-.69-.72-.22-2.64-.85-2.86-.92-2.3-.76-2.49-.86-3.1-.92-1.12-.11-.92.2-3.58.46-1.54.15-2.25.11-2.86.69-.37.35-.56.79-.72,1.15-.41.95-.17,1.21-.48,1.84-.57,1.18-2.06,1.59-2.15,1.61-.96.25-1.3-.14-2.15.23-.17.07-1.05.46-1.19,1.15-.2.99,1.23,1.94,1.43,2.07,1.52,1.01,3.25.84,5.01.69,3.84-.32,5.77-.48,7.15-.46,4.97.08,5.12,2.19,9.53,2.07Z"/>
    <path class="cls-2" d="M146.99,53.8c2.56-.4,4.89-.76,7.63-2.07,3.03-1.45,3.15-2.44,6.2-3.68,1.09-.44,3.45-1.38,6.44-1.38,2.87,0,3.73.86,8.82,2.3,5.09,1.44,5,.8,7.87,1.84,1.69.61,2.37,1.07,9.06,5.52,5.77,3.84,8.71,5.74,11.44,5.29,1.84-.3,3.1-.92,3.1-.92,1.74-.86,2.05-1.69,3.81-2.3.75-.26,1.38-.33,2.62-.46,2.52-.27,2.3.25,4.29,0,.41-.05,1.11-.16,1.67.23.19.13.55.45.48.69-.14.45-1.7.19-4.05.23-1.97.04-3.48.06-5.01.69-.84.34-1.98.99-3.1,2.3.89.24,2.21.51,3.81.46,2.14-.07,3.04-.65,5.01-1.15,4.49-1.15,5.25.51,9.06-.69,2.22-.7,2.17-1.33,5.01-2.3,2.24-.77,4.19-1.04,5.48-1.15-3.51-2.55-6.23-2.93-8.1-2.76-2.19.19-2.57,1.06-6.2,1.61-2.44.37-4.5.65-6.67-.23-1.74-.71-1.67-1.4-3.58-2.07-1.56-.55-2.86-.52-5.01-.46-2.8.08-3.24.5-5.96.46-3.52-.06-4.11-.78-4.29-1.15-.13-.27-.21-.71,0-.92.31-.3,1.09.05,1.67.23.3.09.88.25,4.05,0,2.99-.24,3.44-.45,6.2-.69,3.35-.29,4.16-.1,4.53,0,1.78.48,1.96,1.22,3.58,1.84,1.67.64,3.2.43,6.2,0,4.81-.69,4.87-1.55,7.39-1.38.75.05,3.32.23,5.72,1.84,1.87,1.25,1.92,2.23,3.58,2.76,2.12.69,4.21-.22,4.77-.46,1.8-.78,1.77-1.58,4.05-3.22.81-.59,2.54-1.81,5.01-2.53.39-.12.98-.28,1.7-.42v-27.97h-110.49v32.33c.63-.04,1.32-.11,2.23-.26Z"/>
    <path class="cls-2" d="M153.43,93.16c.47-.32.77-.68.95-.92-4.58-.9-7.61-1.12-9.62-.95v3.19c1.04-.34,1.7-.53,2.47-.63,2.82-.37,4.53.43,6.2-.69Z"/>
    <path class="cls-2" d="M153.67,86.71c2.02.2,2.3.35,3.81.46,1.05.07,3.25.22,5.72-.23,3.73-.68,6.79-2.47,6.67-2.76-.04-.11-.54.02-3.1.46-2.3.4-3.45.59-4.29.69-2.97.34-2.57-.27-5.96,0,0,0-2.4.19-5.01-.23-.15-.02-.61,0-.72-.23-.03-.06-.04-.16,0-.23.19-.32,1.28.28,2.62,0,.17-.03.21-.06.72-.23,1.49-.51,2.23-.77,2.86-.92,1.35-.32,2.47-.27,3.34-.23,1.32.06,1.26.23,2.15.23,2.01,0,4.08-.92,4.05-1.61-.01-.23-.4-.47-1.19-.92-.96-.55-1.43-.83-1.91-.92-1-.2-1.57.34-3.34,1.15-1.17.53-2.12.84-4.05,1.38-2.73.77-5.01.72-6.67.69-.66-.01-2.06-.1-4.62-.44v1.62c1.8.16,3.68.47,3.66.66,0,.14-1.09.13-3.58.23-.03,0-.06,0-.09,0v1.36c1.26-.15,2.46-.18,3.66-.21,2.29-.05,4.24.13,5.24.23Z"/>
    <path class="cls-2" d="M149.38,81.42c2.25-.04,4.06-.47,5.96-.92,2.18-.52,3.97-1.12,5.24-1.61-1.07-.17-2.64-.35-4.53-.23-2.17.13-2.75.52-5.24.92-1.97.31-3.88.62-6.05.41v.84c2.8.47,3.24.61,4.62.58Z"/>
    <path class="cls-2" d="M183.94,54.72c-2.01-1.26-4.6-1.99-9.77-3.45-1.76-.5-2.87-.76-4.29-.92-1.64-.18-3.74-.39-5.96.46-.59.22-.38.22-1.91.92-2.04.94-2.73,1.1-3.81,1.61-1.86.87-1.86,1.34-3.81,2.53-1.22.74-3.08,1.87-5.48,2.3-.47.08-1.77.04-4.14-.09v4.62c2.93-.38,5.96-.26,8.67-.15,2.14.09,3.99.25,6.44-.46,1.79-.52,3.42-1.38,3.34-1.61-.08-.22-1.65.34-4.29.46-1.19.06-1.66-.02-5.01-.23-1.75-.11-3.16-.18-4.05-.23-.53-.06-.83-.55-.72-.92.1-.32.52-.56.95-.46,3.36.45,6.14.39,8.1.23,1.89-.15,3.72-.44,5.72-1.15,2.01-.71,3.43-1.58,3.34-1.84-.15-.41-4.17.08-5.96-.46-.19-.06-.7-.21-.72-.46-.01-.17.22-.33.48-.46.94-.48,1.93-.46,2.38-.46.62,0,.11-.06,2.86-.46,3.24-.47,4.87-.7,5.96-.69,2.7.03,4.81.71,6.91,1.38,1.5.48,2.58.95,3.58,1.38,1.86.81,3.96,1.86,6.2,3.22-1.84-2.4-3.73-3.8-5.01-4.6Z"/>
  </g>
  <g>
    <path class="cls-1" d="M144.76,21.74h10.64c-10.31-1.56-20.88-3.03-34.11-3.1-5.74-.03-14.27.55-31.33,1.72-14.44.99-11.78,1.13-15.04,1.15-2.38.01-7.59-.05-12.53,1.15-1.35.33-2.56.72-2.51,1.15.08.62,2.76,1,3.76,1.15,9.41,1.36,30.56.13,31.33,1.15.5.65-6.99,2.81-17.54,4.58-10.5,1.76-20.15,2.49-30.08,2.86-10.34.39-24.95.54-42.61-.57-2.3-.26-4.49.34-5.01,1.15-.6.93,1,2.14,3.76,2.29,4.7.11,12.13.3,21.3.57,17.58.52,20.04.71,26.32.57,13.9-.31,22.16-1.7,22.56-1.15.41.58-8.11,2.71-17.54,4.01-12.87,1.78-22.58,1.36-33.84,1.15-17.23-.32-36.88-.69-55.14,1.15-8.17.82-20.07,2.49-33.84,6.3-1.07,1.1-.41,2.32,1.25,2.86,2.11.69,5.92.32,7.52-1.15,5.57-1.13,14.18-2.62,25.06-3.44,16.08-1.21,25.43-.07,46.37.57,23.7.73,35.56,1.1,45.11,0,21.27-2.44,20.62-7,50.13-11.46,5.03-.76,17.05-2.44,32.58-2.29,1.14.01,2.28.03,3.42.06v-12.43Z"/>
    <path class="cls-1" d="M350.62,110.89c-.38.64.37,1.34,1.25,1.72,2.89,1.24,10.62.46,13.78-1.72,1.58-1.09,2.14-2.61,1.25-4.01-2.21-3.48-12.57-4.83-23.81-6.3-8.43-1.1-16.65-2.18-27.57-1.72-13.31.56-13.68,2.68-26.32,2.86-4.86.07-15.79.16-25.06-2.86-4.11-1.34-3.82-1.97-8.9-4.56v5.49c3.46,1.05,11.75,3.31,22.69,4.23,10.46.89,19.13.2,28.82-.57,13.82-1.1,15.95-2.37,23.81-1.72,4.04.33,8.54,1.37,17.54,3.44,7.2,1.65,10.36,2.67,10.03,3.44-.44,1.01-6.64.81-7.52,2.29Z"/>
    <path class="cls-1" d="M145.1,141.83c-7.94-1.1-14.16-.7-18.8-.57-10.22.29-17.68-.57-32.58-2.29-5.26-.61-17.15-2.11-31.33-5.16-3.09-.67-5.66-1.27-7.52-1.72,1.64-2.61,4.82-5.92,11.28-8.59,6.6-2.73,13.59-3.54,27.57-5.16,9.94-1.15,15.56-1.8,23.81-1.72,10.68.1,18.44,1.36,27.23,2.81v-5.2c-2.91-.41-6.12-.78-9.69-1.05-11.5-.89-20.46-.41-27.57,0-12.82.73-21.98,2.27-28.82,3.44-8.31,1.42-15.12,2.61-21.3,5.16-3.29,1.35-6.22,2.56-8.77,4.58-1.66,1.31-1.86,1.95-3.76,2.86-3.12,1.51-7.05,1.96-10.03,2.29-4.06.45-8.14.3-16.29,0-8.13-.3-10.47-.65-12.53-1.15-2.99-.72-5.03-1.64-6.27-2.29,2.97-.61,7.73-1.5,13.78-2.29,11.95-1.56,15.82-.99,21.3-2.86,5.08-1.74,3.79-2.92,10.03-5.16,5.04-1.81,10.01-2.52,12.53-2.86,11.46-1.58,14.9.4,25.06-.57,11.72-1.12,9.85-4.01,21.3-5.16,9.44-.95,12.08.88,27.57,0,4.74-.27,11.78-.7,13.45-1.92v-1.24c-.63-.61-1.98-1.19-3.42-1.42-2.21-.35-3.66.27-7.52.57-3.09.25-5.11.08-7.52,0-7.28-.25-20.87.15-30.08,1.15-10.17,1.1-11.27,2.54-20.05,4.01-18.79,3.15-25.03-1.52-62.66-1.72-10.39-.05-15.98.27-32.58,0-9.03-.15-16.43-.39-21.3-.57,15.74-3.38,27.95-3.76,36.34-3.44,5.39.2,8.03.65,18.8,1.15,6.64.3,10.53.36,25.06.57,30.82.45,32.78.49,37.6,0,4.49-.46,10.09-1.45,21.3-3.44,13.74-2.43,17.11-3.46,18.8-4.01,7.51-2.45,7.04-3.68,12.53-4.58,4.25-.7,6.99-.37,14.7-.11v-14.14c-4.37-.97-10.09-2.98-19.71-6.37-15.81-5.57-14.94-6.17-20.05-6.88-7.84-1.08-12.28,0-27.57-1.15-.73-.05-6.16-.49-11.28-2.29-1.35-.48-4.25-1.5-3.76-2.29.23-.37,1.18-.69,6.27-1.15,5.36-.49,6.13-.3,8.77-.57,5.59-.59,10.96-2.35,12.53-4.58.12-.17.98-1.39,0-1.72-.94-.32-2.9.42-6.27,1.15-1.74.37-3.67.63-7.52,1.15-8.55,1.14-12.3.5-22.56,1.72-5.02.6-6.55,1.04-7.52,1.72-2.04,1.42-.82,3.31,0,4.58.61.95,2.05,3.18,6.27,4.58,3.22,1.07,5.63.84,15.04,1.15,0,0,9.37.31,20.05,1.15,8.44.66,12.66,1,15.04,1.72,3.02.92,3.79,1.7,13.78,6.3,1.06.49,1.93.88,2.51,1.15-3.81.04-9.53-.02-16.29-.57-11.25-.93-17.18-2.56-25.06-4.01-.83-.15-18.98-3.4-40.1-3.44-7.91-.01-16.97.76-35.09,2.29-8.95.76-23.25,2.1-35.09.57-.88-.11-6.21-.83-11.28-2.86-2.17-.87-5.73-2.3-5.01-3.44.52-.82,3.2-1.35,11.28-1.72,10.9-.5,19.43-.14,22.56,0,20.59.91,19.83,1.46,26.32,1.15,9.55-.46,9.93-1.58,18.8-1.72,1.81-.03,5.51-.04,8.77-1.15.86-.29,3.26-1.11,3.76-2.29,1.09-2.59-7.68-5.22-11.28-6.3-3.95-1.18-9.51-2.85-17.54-2.86-5.83,0-9.79.86-16.29,2.29-4.77,1.05-5.07,1.49-5.01,1.72.2.73,4.76,1.26,8.77,1.15,5.63-.16,6.02-1.46,11.28-1.72,6.97-.35,12.11,1.64,13.78,2.29,2.6,1.01,2.56,1.55,2.51,1.72-.32,1.05-4.76,1.55-6.27,1.72-8.9,1-17.62-.48-22.56-1.15-1.61-.22-12.79-.34-35.09-.57-20.25-.21-24.45-.21-30.08,1.15-2.69.65-11.45,2.76-12.53,6.3-1.47,4.84,12.4,9.11,20.05,11.46,10.87,3.34,21.44,4.62,27.57,5.16,14.45,1.27,26.42.36,38.85-.57,13.12-.99,16.14-1.96,27.57-2.29,9.94-.29,18.21.14,23.81.57-6.72,1.21-16.09,2.72-27.57,4.01-10,1.12-19.49,2.18-31.33,2.29-8.74.08-10.31-.44-35.09-2.29-22.39-1.68-33.59-2.51-38.85-2.29-14.66.62-19.82,2.78-36.34,2.29-7.83-.23-14.56-.95-16.29-1.15-11.05-1.22-11.9-2.26-25.06-4.01,0,0-10.74-1.43-23.81-1.15-3.48.08-6.8.27-7.52,1.15-.6.73.71,1.82,2.51,2.29,2.08.55,4.41.18,6.27,0,5.95-.57,11.2.46,17.54,1.72,5.98,1.18,7.03,2.28,12.53,4.01,4.52,1.42,11.68,3.16,22.56,4.01-.88.95-2.43,2.42-5.01,4.01-3.53,2.18-5.69,2.55-6.27,4.01-.64,1.65,1.7,2.19,2.51,4.58.77,2.31-.89,3.33-1.25,5.16-.86,4.28,6.39,7.96,8.77,9.17,7.01,3.56,15.49,4.45,27.57,5.73,9.12.96,16.77,1.77,26.32.57,2.04-.26,9.26-1.24,16.29-4.01,6.12-2.41,8.81-4.87,10.03-5.73,4.7-3.3,20.33-5.65,68.92-1.15-.95.61-2.55,1.51-5.01,2.29-8.74,2.79-17.77.81-32.58,1.72-5.07.31-9.23.97-17.54,2.29-13.27,2.11-14.62,3.19-28.82,5.73-7.51,1.34-14.83,2.63-25.06,3.44-10.06.8-15.09,1.2-20.05.57-6.66-.84-11.8-2.74-17.54-1.72-1.75.31-2.99.79-3.76,1.15,2.92.68,7.25,1.68,12.53,2.86,10.56,2.36,15.83,3.55,18.8,4.01,6.1.96,17.27,2.71,28.82,1.15,7.54-1.02,6.88-2.32,18.8-4.58,4.66-.88,10.2-1.93,17.54-2.29,3.87-.19,8.56-.2,22.56,1.15,15.18,1.46,14.71,1.96,25.06,2.86,14.66,1.29,16.15.34,30.08,1.72,8.62.86,7.6,1.18,21.3,2.86,12,1.48,19.8,2.44,30.08,2.86,11.22.46,11.05-.31,25.06,0,17.94.4,28.34,1.89,28.82,1.15.37-.57-5.39-2.05-11.28-2.86ZM-44.13,104.01c-1.55.27-10.41,1.84-20.05,5.16-6.13,2.11-9.82,3.41-11.28,5.73-1.76,2.79,1.46,4.31-1.25,5.73-3.13,1.64-10.61,1.28-15.04.57-2.78-.44-2.15-.67-5.01-1.15-7.37-1.22-11.81.27-15.04-1.15-1.56-.68-.55-1.04-2.51-2.29-3.05-1.96-6.56-1.79-7.52-2.86-1.41-1.58,3.97-4.46,10.03-6.3,8.19-2.5,13.94-1.99,26.32-3.44,12.75-1.49,10.56-2.49,22.56-4.01,8.54-1.08,19.18-1.31,40.1-1.72,13.04-.26,18.75-.22,18.8-.57.07-.5-11.28-1.36-21.3-1.72-9.28-.33-16.22-.18-23.81,0-12.66.3-20.74.49-31.33,1.72-6.02.7-12.32,1.68-16.29,2.29-7.79,1.21-11.69,1.81-13.78,2.29-6.56,1.51-9.35,2.84-12.53,2.29-2.04-.35-3.51-1.35-3.76-2.29-.38-1.43,2.02-2.87,8.77-5.16,7.41-2.5,12.71-4.3,22.56-5.73,14.92-2.17,27.78-1.69,42.61-1.15,7.89.29,14.64.77,20.05,1.15,19.62,1.38,29.64,1.68,33.84,1.72,8.74.08,20.74.19,35.09-1.72,10.17-1.36,15.17-2.11,21.3-3.44,9.3-2.01,12.31-3.36,17.54-2.86,2.49.24,5,.92,10.03,2.29,4.16,1.13,6.21,1.72,6.27,2.29.16,1.71-10.76,3.99-21.3,4.01-4.63.01-4.31-.42-11.28-.57-4.55-.1-10.47-.22-17.54.57-3.3.37-7.21,1.01-15.04,2.29-2.63.43-2.88.49-3.76.57-7.07.69-12.76-.81-13.78,0-.24.19-.14.43,0,.57.57.57,2.99.51,3.76.57,13.72,1.05,26.32.57,26.32.57,17.82-.68,15.73.84,31.33,0,4.43-.24,10.47-.73,22.56-1.72,13.48-1.1,16.07-1.43,16.29-1.15.58.74-15.46,5.19-35.09,6.88-12.98,1.11-24.57.76-30.08.57-7.96-.27-9.43-.65-20.05-1.15-5.3-.25-15.53-.71-27.57-.57-12.58.14-25.21.28-40.1,2.86Z"/>
    <path class="cls-1" d="M144.76,41.58c-1.03.29-2.03.48-3.42.55-3.18.17-5.94-.36-10.03-1.15-4.69-.9-5.35-1.47-8.77-1.72-2.95-.22-7-.13-7.52.57-.33.44.79,1.01,2.51,1.72,4.71,1.95,7.97,3.3,13.78,4.01,1.66.2,7.42.91,13.45.17v-4.16Z"/>
    <path class="cls-1" d="M-106.79,29.52c10.18-1.12,19-1.24,25.06-1.15-5.06,2.16-12.13,4.71-21.3,6.88-8.54,2.02-12.82,3.03-18.27,3.27-3.15.14-6.27.07-6.79.74-.62.79,2.65,2.32,6.27,2.86,4.66.7,9.23-.35,12.53-1.15,14.36-3.44,18.72-5.36,27.57-7.45,3.99-.94,11.33-2.64,21.3-3.44,6.28-.5,10.08-.37,23.81,0,21.18.57,31.84.85,35.09.57,12.64-1.07,22.43-3.89,28.82-5.73,10.27-2.96,10.28-4.13,20.05-6.3,5.71-1.27,9.32-1.67,20.05-4.01,8.02-1.75,6.94-1.73,10.03-2.29,11.64-2.12,22.69-1.6,31.33-1.15,7.46.39,13.29,1.05,22.56,2.29,26.2,3.51,39.78,5.33,50.21,8.26h34.98c-22.54-7.08-26.27-8.1-33.8-9.4-15.08-2.6-14.57-.99-41.35-4.58-26.76-3.59-31.28-5.74-46.37-5.73-15.7,0-28.13,2.34-33.84,3.44-16,3.08-16.66,5.55-32.58,9.17-14.38,3.27-26.66,4.17-40.1,5.16-18.7,1.37-20.39.24-48.87,1.15-24.5.78-36.75,1.17-50.13,3.44-3.79.64-14.23,3.1-35.09,8.02-14.48,3.41-20.63,4.98-31.33,6.3-6.48.8-13.85,1.71-23.81,1.72-11.5.01-14.77-1.19-25.06-.57-9.01.54-19.01,2.21-18.8,3.44.16.94,6.24,1.7,11.28,1.72,7.92.03,10.43-1.81,17.54-1.72,5.35.07,8.81,1.16,11.28,1.72,14.56,3.3,38.29-2.15,58.9-6.88,20.42-4.69,23.74-6.93,38.85-8.59Z"/>
    <path class="cls-1" d="M752.88,79.37c-19.77-.62-20.73,2.94-35.09,1.72-10.2-.87-12.63-2.91-31.33-5.16-4.7-.56-8.64-.93-11.28-1.15,6.92-1.72,10.53-3.7,12.53-5.16,3.75-2.73,2.79-4.28,7.52-6.88,2.02-1.11,5.47-3,11.28-3.44.83-.06,7.43-.56,11.28,1.15,1.47.65,1.77,1.29,5.01,2.86,1.97.96,2.89,1.22,3.76,1.15,1.4-.12,2.32-1.07,2.51-1.72.64-2.22-6.26-4.65-11.28-5.73-6.98-1.5-17.91-2.01-25.06.57-5.29,1.91-3.12,3.57-10.03,7.45-1.98,1.11-6.52,3.61-13.78,5.16-3.59.76-8.67,1.47-22.56,1.15-12.94-.3-22.87-1.25-27.57-1.72-17.76-1.79-38.1-3.9-61.41-9.74-5.52-1.38-9.85-2.63-12.53-3.44,12.65.44,23.69.31,32.58,0,15.81-.55,23.72-.83,32.58-2.29,8.91-1.47,13.61-3.09,22.56-2.86,5.71.14,5.65.85,13.78,1.15,7.25.27,5.91-.34,20.05-.57,4.96-.08,8.67-.06,10.03-1.15.61-.49.81-1.27,0-1.72-1.73-.97-6.48.42-13.78.57-3.44.07-6.89-.33-13.78-1.15-11.78-1.39-11.06-1.96-16.29-2.29-6.85-.44-12.09.28-22.56,1.72-9.49,1.3-10.01,1.95-17.54,2.86-8.64,1.05-15.52,1.11-21.3,1.15-19.99.13-21.77-2.32-33.84-1.15-2.75.27-8.82,1-17.54,1.15,0,0-3.28.06-6.27,0-13.95-.26-34.86-6.1-37.6-6.88,2.82-.04,7.19-.08,12.53,0,15.86.22,17.43,1.1,25.06.57,9.1-.63,9.57-2.06,18.8-2.29,1.32-.03,2.09-.02,13.78.57,11.71.6,17.62.9,20.05,1.15,9.11.92,9.32,1.63,15.04,1.72,4.58.07,4.72-.37,15.04-1.15,10.76-.81,15.76-.71,16.29-1.72.33-.62-1.17-1.37-2.51-1.72-3.01-.79-6.75.06-10.03.57-4.31.67-8.72.64-17.54.57-10.74-.08-11.45-1.83-23.81-2.86-5.8-.49-13.05-.32-27.57,0-15.27.34-15.55.76-23.81.57-7.98-.18-7.19-.56-21.3-1.15-9.78-.41-14.75-.42-15.04-1.15-.34-.88,6.45-2.1,7.52-2.29,7.69-1.35,11.83-.73,18.8-1.15,1.81-.11,13.55-.87,22.56-4.58,6.87-2.83,5.75-4.74,12.53-6.3,4.84-1.12,6.77-.46,13.78-1.72,6.44-1.16,8.31-2.35,12.53-3.44,9.24-2.38,19.54-1.64,26.32-1.15,12.27.89,12.36,2.83,35.09,6.88,9.44,1.68,14.3,2.53,21.3,2.86,7.47.36,13.71,0,23.81-.57,12.36-.71,16.46-1.45,23.81-.57,2.89.35,10.4,1.24,11.28,3.44.63,1.58-2.41,3.21-5.01,4.01-2.44.75-5.63,1.12-15.04.57-11.44-.67-11.48-1.49-18.8-1.72-7.87-.24-14.46.51-20.05,1.15-9.01,1.03-7.88,1.6-12.53,1.72-8.72.23-12.97-1.76-20.05-.57-2.11.35-5.22,1.12-5.01,1.72.43,1.25,15.06,1.17,18.8,1.15,1.67,0,6.56-.05,16.29-.57,13.12-.7,12.27-1.04,17.54-1.15,11.96-.23,13.13,1.6,26.32,1.72,6.67.06,13.3.08,20.05-1.72,1.38-.37,12.2-3.32,11.28-6.3-1.54-5-35.06-6.7-38.85-6.88-16.73-.8-18.57.77-31.33-.57-4.2-.44-6.9-.92-30.08-6.3-24.87-5.78-26.67-6.37-32.58-6.88-14.75-1.27-27.15.39-32.58,1.15-12.98,1.81-22.05,4.85-26.32,6.3-12,4.09-11.82,6.07-21.3,8.02-2.91.6-13.9,2.85-25.06,1.15-8.68-1.33-8.99-3.76-18.8-6.88-12.63-4.02-26.15-4.46-30.08-4.58-13.27-.43-13.58,1.71-38.85,3.44-15.77,1.08-23.83,1.58-32.58,0-8.52-1.54-9.44-3.39-18.8-4.58-1.93-.25-6.21-.72-23.81,0-14.51.59-16.84,1.13-32.58,1.72-16.69.63-19.74.24-21.3,0-3.03-.46-7.15-1.33-8.77-.57-1.11.52-.68,1.63,0,2.29.93.92,4.07,2.72,22.56,2.86,14.31.11,16.59-.94,31.33-1.15,11.26-.16,18.11-.22,26.32,1.15,9.99,1.67,9.65,3.39,18.8,5.16,11.43,2.2,22.27,1.49,35.09.57,19.08-1.36,21.08-3.53,32.58-4.01,9.86-.41,24.15.52,42.61,6.88-6.78.27-17.06.95-28.82,2.86-14.89,2.43-14.67,3.99-26.32,5.73-20,2.98-24.01-1.13-47.62,1.72-10.34,1.25-15.05,2.7-26.32,2.86-8.41.12-15.38-.54-20.05-1.15,5.89-3.27,11.9-4.88,16.29-5.73,8.03-1.56,15.94-1.63,26.32-1.72,12.37-.11,20.57.54,21.3-.57.39-.59-1.49-1.39-2.51-1.72-2.94-.97-6.61-.7-8.77-.57-10.46.62-9.3-.67-22.56,0-6.55.33-9.82.49-13.78,1.15-9.27,1.52-10.9,3.6-20.05,5.73,0,0-6.6,1.54-16.29,2.29-9.79.76-20.08-1.2-35.22-5.54v18.17c13.99,1.01,25.11,1.09,32.72,1.12,17.48.08,31.12-.71,37.6-1.15,17.53-1.18,18.49-2.16,35.09-3.44,12.84-.99,28.86-2.22,47.62-1.15,7.59.43,6.53.72,45.11,6.3,25.52,3.69,29.99,4.14,42.61,6.3,14.02,2.4,25.22,4.71,32.58,6.3-21.79,2.13-38.14,1.2-48.87,0-9.94-1.11-19.16-3.03-37.6-6.88-26.23-5.47-28.16-6.97-38.85-7.45-17.25-.77-33.02,2.21-36.34,2.86-13.54,2.67-17.35,5.59-28.82,5.73-6.99.08-7.23-.98-20.05-2.29-6.54-.67-19.86-2.03-35.09-1.15-15.04.87-16.67,3.05-27.7,2.89v2.15c4.65-.24,9.7-.5,17.68-.46,22.2.14,21.23,2.41,47.62,3.44,19.99.78,33.21,1.29,50.13-.57,11.29-1.24,18.7-2.94,31.33-2.29,7.54.39,9.56,1.23,21.3,2.86,15.78,2.2,28.53,2.97,36.34,3.44,19.71,1.19,26.7.41,41.35,2.86,2.43.41,6.37,1.07,11.28,2.29,12.91,3.2,17.15,6.4,25.06,9.17,5.82,2.03,15.15,4.36,30.08,5.16-5.91.42-14.61.84-25.06.57-16.98-.44-29.11-2.46-38.85-4.01-30.35-4.84-45.52-7.26-60.15-8.59-29.97-2.73-28.46,1.32-66.42-1.15-13.77-.89-28.81-2.51-58.9-5.73-17.64-1.89-24.66-2.79-37.6-3.44-9.59-.48-17.56-.87-25.2-.79v7.84c7.18-.16,15.83-.05,26.45.4,30.37,1.29,30.66,3.36,65.16,5.73,14,.96,15.31.71,68.92,2.86,17.69.71,32.1,1.32,41.35,1.72-13.3,2.12-24.52,3.02-32.58,3.44-10.37.54-20.91.57-22.56.57-12.27.02-14.59-.45-22.56,0-9.71.55-9.38,1.43-20.05,2.29-8.76.71-18.3,1.48-28.82,0-7.18-1.01-7.35-2.02-17.54-3.44-6.03-.84-10.43-1.43-16.29-1.15-1.56.07-6.05.81-15.04,2.29-6.2,1.02-8.47,1.44-8.77,2.29-.31.88,1.57,1.96,3.76,2.29,3.25.49,5.72-.9,10.03-1.72,6.5-1.24,12.97-.37,20.05.57,10.53,1.41,9.94,3.01,18.8,4.01,6.7.76,8.11-.04,20.05,0,13.67.04,13.05,1.4,25.06,1.15,12.52-.26,18.74-1.68,27.57,0,5.92,1.12,12.04,3.45,11.28,5.16-.91,2.05-10.97,1.61-12.53,4.01-1.45,2.22,5.56,5.02,8.77,6.3,6.86,2.74,14.04,3.73,16.29,4.01,10.59,1.33,17.28.32,27.57,0,7.87-.24,19.38-.13,33.84,1.72-13.86.17-24.04,1.75-31.33,3.44-10.17,2.35-11,4.06-22.56,6.3-6.38,1.24-21.21,4.11-31.33,1.15-3.25-.95-2.55-1.49-6.27-2.86-9.05-3.35-20.98-3.04-27.57-2.86-3.56.09-15.86.55-31.33,4.58-16.44,4.28-14.9,6.99-28.82,10.89-15.89,4.45-31.92,4.85-43.86,5.16-9.58.24-26.07.66-43.86-2.86-8.66-1.72-7.61-2.38-20.05-5.16-14.26-3.18-26.1-4.64-35.09-5.73-2.56-.31-5.36-.63-8.37-.93h-8.26v-.77c-5.25-.45-11-.85-17.2-1.16,3.55-1.07,6.66-1.51,8.77-1.72,3.14-.31,5.85-.28,8.43-.12v-3.59c-5.16-.25-12.31-.34-19.71.84-4.48.71-3.91,1.07-15.04,3.44-7.79,1.65-11.68,2.48-15.04,2.86-12.92,1.48-22.53-.34-23.81,1.15-.77.89,2.18,2.15,2.51,2.29,3.75,1.6,9.22,1.43,15.04,1.15,13.03-.63,17.36-1.31,25.06-1.72,9.74-.52,17.35-.22,22.56,0,4.84.2,14.04.73,25.06,2.29,12.78,1.81,16.99,3.47,30.08,6.3,6.73,1.46,20.69,4.45,37.6,6.3,14.57,1.6,30.19,3.31,48.87,1.15,16.31-1.89,28.27-5.95,32.58-7.45,11.74-4.07,11.01-5.75,21.3-8.59,4.01-1.11,18.11-4.88,35.09-4.01,6.79.35,6.19,1.04,27.57,5.16,25.77,4.97,32.7,5.14,38.85,4.58,3.45-.31,10.42-.94,16.29-3.44,6.7-2.85,5.68-5.46,13.78-8.02,4.71-1.49,9.82-2.12,11.28-2.29,4.07-.49,7.3-.54,10.03-.57,6.85-.09,8.87.41,15.04.57,3.1.08,7.54-.14,16.29-.57,9.97-.5,14.96-.75,18.8-1.15,11.75-1.22,11.11-2.39,18.8-2.86,12.71-.79,23.35,1.85,25.06,2.29,8.23,2.11,7.81,3.82,17.54,6.3,6.61,1.69,15.26,3.05,16.29,2.29,1.56-1.15-14.56-6.84-16.29-7.45-10.96-3.85-18.08-6.35-27.57-7.45-14.93-1.73-18.05,2.04-37.6,2.29-23.23.3-24.02-4.97-50.13-5.16-7.28-.05-17.39.35-37.6,1.15-9.22.36-18.35.79-26.32-1.72-1.04-.33-8.57-2.7-7.52-5.16.74-1.73,5.36-2.68,6.27-2.86,4.46-.92,6.22.05,11.28-.57.45-.05,8.29-1.07,11.28-4.01,1.59-1.56.34-2.23,2.51-4.58.82-.9,1.84-2,3.76-2.86,3.19-1.44,6.95-1.34,15.04-1.72,13.96-.65,12.91-1.41,18.8-1.15,3.22.15,4.18.4,16.29,2.29,1.15.18,11.23,1.75,15.04,2.29,2.55.36,11.46,1.56,30.08,1.72,6.84.06,15.22-.02,37.6-1.15,11.57-.58,36.64-1.93,56.39-1.72,3.06.03,9.93.15,17.54,1.72,6.1,1.26,10.08,2.92,11.28,3.44,3.87,1.68,3.35,2.14,6.27,3.44,5.16,2.3,14.16,4.12,22.56,3.44,6.76-.55,8.29-2.32,12.53-1.72,4.75.67,5.14,3.21,10.03,3.44,2.27.1,4.78-.33,6.27-1.15.97-.54,1.99-1.51,1.25-2.29-.55-.58-1.8-.75-3.76-1.15-5.6-1.14-5.26-1.81-8.77-2.29-1.91-.26-4.22-.18-8.77,0-8.54.34-9,.77-11.28.57-5.36-.47-6.53-3.24-11.28-6.3-8.79-5.68-22.5-7.65-25.06-8.02-5.53-.79-12.46-.72-26.32-.57-12.76.14-14.21.56-23.81.57-6.97,0-16.29.02-27.57-1.15-15.64-1.61-26.84-4.62-35.09-6.88-6.99-1.91-12.48-3.77-16.29-5.16,5.72-.21,14.98-.42,26.32,0,16.1.6,21.09,1.9,46.37,4.01,11.32.94,20.73,1.73,33.84,2.29,9.86.42,14.65.42,30.08,1.15,16.8.79,21.3,1.29,26.32,2.29,5.08,1.02,7.03,1.83,13.78,2.86,9.58,1.47,15.12,1.29,17.54,1.15,3.58-.21,5.03-.6,8.77-1.15,6.07-.89,18.56-2.72,30.08-1.15,8.94,1.22,12.7,3.87,17.54,2.86,1.95-.4,3.97-1.37,3.76-2.29-.53-2.3-14.95-3.69-25.06-4.01Z"/>
    <path class="cls-1" d="M113.77,51.87c-9.87,1.2-18.8,6.88-18.8,6.88-2.09-.19,4.17.41,6.27.57,6.95.55,11.45-3.01,18.8-3.44,7.39-.43,9.5,2.78,21.3,5.16,1.16.23,2.29.44,3.42.61v-5.23c-17.98-1.7-21.28-5.73-30.99-4.55Z"/>
    <path class="cls-1" d="M269.16,134.38c6.27-1.78,4.36-3.73,11.28-6.3,4.62-1.72,11.08-2.31,23.81-3.44,17.41-1.54,22.86-1.2,26.32-3.44,3.7-2.4,1.75-5.58,1.25-6.3-3.01-4.35-13.32-6-18.8-6.88-3.78-.61-13.85-1.94-25.06-.57-6.26.76-8.5,1.83-16.29,2.29-3.09.18-5.25.17-12.53,0-1.4-.03-2.69-.06-3.89-.09v8.78c7.85.43,18.22.35,27.7-1.82,6.9-1.58,6.5-2.7,12.53-3.44,11-1.34,24.39.92,25.06,3.44.52,1.94-6.61,3.78-7.52,4.01-6.1,1.54-9.33.46-20.05,1.15-7.62.49-14.89.95-20.05,3.44-2.68,1.29-2.64,2.09-6.27,3.44-1.51.56-5.48,1.99-11.28,2.29-4.63.24-8.08-.37-12.53-1.15-1.87-.33-4.22-.81-6.83-1.51h-14.42c-.06.2-.06.34-.06.36,4.47,1.94,11.52,4.37,21.3,5.73,6.5.9,17.69,2.45,26.32,0Z"/>
  </g>
</svg>