<?xml version="1.0" encoding="UTF-8"?>
<svg id="Layer_1" data-name="Layer 1" xmlns="http://www.w3.org/2000/svg" viewBox="0 0 442.9 214.77">
  <defs>
    <style>
      .cls-1 {
        fill: none;
        stroke: #f1f0ef;
        stroke-miterlimit: 10;
        stroke-width: .25px;
      }
    </style>
  </defs>
  <path class="cls-1" d="M4.24,44.29c20.42,7.6,52.4,16.98,92.07,17.6,76.45,1.19,110.89-31.26,186.65-39.22,35.41-3.72,88.01-2.95,158.29,19.94"/>
  <path class="cls-1" d="M1.64,70.22c12.85,2.95,33.32,8.42,54.87,18.3,45.62,20.91,46.18,38.68,67.8,41.35,43.12,5.32,68.58-61.96,148.45-81.14,55.41-13.3,118.31,1.03,168.49,18.42"/>
  <path class="cls-1" d="M1.64,40.13c21.99,6.85,55.19,14.77,95.55,14.61,74.05-.29,106.84-27.55,175.57-36.1,37.92-4.72,93.51-4.59,168.49,18.42"/>
  <path class="cls-1" d="M1.64,62.88c12.85,2.95,33.32,8.42,54.87,18.3,45.62,20.91,46.18,38.68,67.8,41.35,43.12,5.32,68.58-61.96,148.45-81.14,55.41-13.3,118.31,1.03,168.49,18.42"/>
  <path class="cls-1" d="M1.64,60.84c13.14,3.15,32.61,8.3,54.87,16.13,48.46,17.05,50.77,25.96,69.83,28.03,47.5,5.16,71.49-46.01,141.68-63.87,33.14-8.44,86.72-12.03,173.24,14.47"/>
  <path class="cls-1" d="M1.64,55.83c12.45,5.1,30.88,11.5,54.87,16.13,0,0,32.94,6.37,65.21,6.12,64.78-.49,91.5-29.7,146.3-41.96,33.71-7.55,88.11-10.94,173.24,14.47"/>
  <path class="cls-1" d="M4.44,9.59c20.42,2.56,52.4,5.72,92.07,5.93,76.45.4,110.89-10.53,186.65-13.21,35.41-1.25,88.01-.99,158.29,6.71"/>
  <path class="cls-1" d="M1.83,18.32c12.85.99,33.32,2.84,54.87,6.16,45.62,7.04,46.18,13.03,67.8,13.92,43.12,1.79,68.58-20.86,148.45-27.32,55.41-4.48,118.31.35,168.49,6.2"/>
  <path class="cls-1" d="M1.83,8.19c21.99,2.31,55.19,4.97,95.55,4.92,74.05-.1,106.84-9.28,175.57-12.16,37.92-1.59,93.51-1.55,168.49,6.2"/>
  <path class="cls-1" d="M1.83,15.85c12.85.99,33.32,2.84,54.87,6.16,45.62,7.04,46.18,13.03,67.8,13.92,43.12,1.79,68.58-20.86,148.45-27.32,55.41-4.48,118.31.35,168.49,6.2"/>
  <path class="cls-1" d="M1.83,15.16c13.14,1.06,32.61,2.79,54.87,5.43,48.46,5.74,50.77,8.74,69.83,9.44,47.5,1.74,71.49-15.49,141.68-21.51,33.14-2.84,86.72-4.05,173.24,4.87"/>
  <path class="cls-1" d="M1.83,13.47c12.45,1.72,30.88,3.87,54.87,5.43,0,0,32.94,2.14,65.21,2.06,64.78-.17,91.5-10,146.3-14.13,33.71-2.54,88.11-3.68,173.24,4.87"/>
  <path class="cls-1" d="M440.24,181.35c-20.44-9-52.44-20.12-92.15-20.85-76.52-1.41-110.99,37.04-186.81,46.48-35.44,4.41-88.09,3.5-158.43-23.62"/>
  <path class="cls-1" d="M440.05,149.12c-12.86-3.49-33.35-9.98-54.91-21.68-45.66-24.78-46.22-45.83-67.86-48.99-43.16-6.3-68.64,73.41-148.58,96.14-55.46,15.76-118.41-1.22-168.64-21.83"/>
  <path class="cls-1" d="M442.85,186.28c-22.01-8.11-55.24-17.5-95.63-17.31-74.12.35-106.93,32.64-175.73,42.78-37.95,5.59-93.59,5.44-168.64-21.83"/>
  <path class="cls-1" d="M442.85,159.33c-12.86-3.49-33.35-9.98-54.91-21.68-45.66-24.78-46.22-45.83-67.86-48.99-43.16-6.3-68.64,73.41-148.58,96.14-55.46,15.76-118.41-1.22-168.64-21.83"/>
  <path class="cls-1" d="M442.85,161.74c-13.15-3.74-32.64-9.83-54.91-19.11-48.5-20.21-50.81-30.76-69.89-33.21-47.54-6.11-71.56,54.51-141.8,75.68-33.17,10-86.8,14.26-173.39-17.15"/>
  <path class="cls-1" d="M442.85,167.68c-12.46-6.04-30.91-13.62-54.91-19.11,0,0-32.96-7.54-65.27-7.25-64.83.58-91.58,35.19-146.42,49.72-33.74,8.94-88.19,12.96-173.39-17.15"/>
</svg>