<?xml version="1.0" encoding="UTF-8"?>
<svg id="Layer_1" data-name="Layer 1" xmlns="http://www.w3.org/2000/svg" viewBox="0 0 400 150">
  <defs>
    <style>
      .cls-1 {
        fill: none;
        stroke: #f1f0ef;
        stroke-miterlimit: 10;
        stroke-width: .5px;
      }
    </style>
  </defs>
  <path class="cls-1" d="M226.01,89.87c-14.24-.39-14.93,1.85-25.27,1.08-7.35-.55-9.1-1.83-22.56-3.24-3.39-.36-6.22-.58-8.12-.72,4.99-1.09,7.58-2.33,9.03-3.24,2.7-1.72,2.01-2.69,5.42-4.32,1.46-.7,3.94-1.89,8.12-2.16.6-.04,5.35-.35,8.12.72,1.06.41,1.27.81,3.61,1.8,1.42.6,2.08.77,2.71.72,1.01-.07,1.67-.67,1.81-1.08.46-1.4-4.5-2.93-8.12-3.6-5.03-.94-12.9-1.26-18.05.36-3.81,1.2-2.25,2.24-7.22,4.69-1.43.7-4.7,2.27-9.93,3.24-2.58.48-6.25.92-16.25.72-9.32-.19-16.47-.78-19.86-1.08-12.79-1.12-27.44-2.45-44.22-6.13-3.97-.87-7.09-1.66-9.03-2.16,9.11.28,17.06.19,23.47,0,11.39-.35,17.08-.52,23.47-1.44,6.42-.93,9.8-1.94,16.25-1.8,4.12.09,4.07.53,9.93.72,5.22.17,4.26-.22,14.44-.36,3.57-.05,6.25-.04,7.22-.72.44-.31.58-.8,0-1.08-1.25-.61-4.67.27-9.93.36-2.48.04-4.96-.21-9.93-.72-8.49-.87-7.97-1.23-11.73-1.44-4.93-.28-8.71.18-16.25,1.08-6.83.82-7.21,1.23-12.64,1.8-6.22.66-11.18.7-15.34.72-14.4.08-15.68-1.46-24.37-.72-1.98.17-6.35.63-12.64.72,0,0-2.36.04-4.51,0-10.05-.16-25.11-3.84-27.08-4.32,2.03-.03,5.18-.05,9.03,0,11.42.14,12.55.69,18.05.36,6.55-.4,6.89-1.3,13.54-1.44.95-.02,1.51-.01,9.93.36,8.43.38,12.69.57,14.44.72,6.56.58,6.71,1.02,10.83,1.08,3.3.05,3.4-.23,10.83-.72,7.75-.51,11.35-.45,11.73-1.08.23-.39-.85-.86-1.81-1.08-2.17-.5-4.86.04-7.22.36-3.1.42-6.28.4-12.64.36-7.73-.05-8.25-1.15-17.15-1.8-4.17-.31-9.4-.2-19.86,0-11,.21-11.2.48-17.15.36-5.75-.11-5.18-.35-15.34-.72-7.04-.26-10.62-.26-10.83-.72-.25-.55,4.64-1.32,5.42-1.44,5.54-.85,8.52-.46,13.54-.72,1.31-.07,9.76-.55,16.25-2.88,4.95-1.78,4.14-2.98,9.03-3.96,3.49-.7,4.88-.29,9.93-1.08,4.64-.73,5.99-1.48,9.03-2.16,6.66-1.5,14.08-1.03,18.95-.72,8.83.56,8.9,1.78,25.27,4.32,6.8,1.06,10.3,1.59,15.34,1.8,5.38.23,9.87,0,17.15-.36,8.9-.44,11.86-.91,17.15-.36,2.08.22,7.49.78,8.12,2.16.46.99-1.74,2.02-3.61,2.52-1.76.47-4.06.71-10.83.36-8.24-.42-8.27-.94-13.54-1.08-5.67-.15-10.41.32-14.44.72-6.49.65-5.68,1-9.03,1.08-6.28.15-9.34-1.11-14.44-.36-1.52.22-3.76.7-3.61,1.08.31.79,10.84.73,13.54.72,1.2,0,4.72-.03,11.73-.36,9.45-.44,8.84-.66,12.64-.72,8.61-.15,9.45,1.01,18.95,1.08,4.8.04,9.58.05,14.44-1.08.99-.23,8.78-2.09,8.12-3.96-1.11-3.14-25.25-4.21-27.98-4.32-12.05-.5-13.37.49-22.56-.36-3.02-.28-4.97-.58-21.66-3.96-17.91-3.63-19.21-4.01-23.47-4.32-10.62-.8-19.55.25-23.47.72-9.35,1.14-15.88,3.05-18.95,3.96-8.64,2.58-8.51,3.82-15.34,5.05-2.1.38-10.01,1.8-18.05.72-6.25-.84-6.48-2.36-13.54-4.32-9.1-2.53-18.84-2.8-21.66-2.88-9.55-.27-9.78,1.08-27.98,2.16-11.35.68-17.16,1-23.47,0-6.14-.97-6.8-2.13-13.54-2.88-1.39-.16-4.47-.45-17.15,0-10.45.37-12.13.71-23.47,1.08-12.02.39-14.21.15-15.34,0-2.18-.29-5.15-.83-6.32-.36-.8.32-.49,1.02,0,1.44.67.58,2.93,1.71,16.25,1.8,10.3.07,11.95-.59,22.56-.72,8.11-.1,13.04-.14,18.95.72,7.2,1.05,6.95,2.14,13.54,3.24,8.23,1.38,16.04.94,25.27.36,13.74-.86,15.19-2.22,23.47-2.52,7.1-.26,17.39.33,30.69,4.32-4.89.17-12.29.6-20.76,1.8-10.72,1.53-10.57,2.51-18.95,3.6-14.4,1.88-17.29-.71-34.3,1.08-7.45.79-10.84,1.7-18.95,1.8-6.06.08-11.08-.34-14.44-.72,4.24-2.05,8.57-3.07,11.73-3.6,5.78-.98,11.48-1.02,18.95-1.08,8.91-.07,14.81.34,15.34-.36.28-.37-1.08-.87-1.81-1.08-2.11-.61-4.76-.44-6.32-.36-7.53.39-6.7-.42-16.25,0-4.72.21-7.07.31-9.93.72-6.68.96-7.85,2.26-14.44,3.6,0,0-4.75.97-11.73,1.44-7.05.48-14.46-.75-25.37-3.48v11.43c10.07.63,18.08.68,23.56.7,12.59.05,22.41-.45,27.08-.72,12.62-.74,13.32-1.36,25.27-2.16,9.25-.62,20.78-1.4,34.3-.72,5.47.27,4.7.46,32.49,3.96,18.38,2.32,21.6,2.6,30.69,3.96,10.1,1.51,18.16,2.96,23.47,3.96-15.7,1.34-27.47.75-35.2,0-7.16-.7-13.8-1.91-27.08-4.32-18.89-3.44-20.28-4.38-27.98-4.69-12.42-.49-23.78,1.39-26.17,1.8-9.75,1.68-12.49,3.52-20.76,3.6-5.03.05-5.21-.62-14.44-1.44-4.71-.42-14.3-1.28-25.27-.72-10.83.55-12.01,1.92-19.95,1.82v1.35c3.35-.15,6.99-.32,12.73-.29,15.99.09,15.29,1.52,34.3,2.16,14.4.49,23.92.81,36.1-.36,8.13-.78,13.47-1.85,22.56-1.44,5.43.24,6.89.77,15.34,1.8,11.36,1.38,20.55,1.87,26.17,2.16,14.2.75,19.23.26,29.78,1.8,1.75.26,4.59.68,8.12,1.44,9.3,2.01,12.35,4.03,18.05,5.77,4.19,1.28,10.91,2.74,21.66,3.24-4.26.27-10.52.53-18.05.36-12.23-.28-20.97-1.55-27.98-2.52-21.85-3.04-32.78-4.57-43.32-5.41-21.58-1.72-20.5.83-47.83-.72-9.92-.56-20.75-1.58-42.42-3.6-12.71-1.19-17.76-1.76-27.08-2.16-6.9-.3-12.65-.55-18.15-.5v4.93c5.17-.1,11.4-.03,19.05.25,21.87.81,22.08,2.11,46.93,3.6,10.09.61,11.02.45,49.64,1.8,12.74.45,23.12.83,29.78,1.08-9.58,1.33-17.66,1.9-23.47,2.16-7.47.34-15.06.36-16.25.36-8.84.01-10.5-.28-16.25,0-6.99.35-6.76.9-14.44,1.44-6.31.45-13.18.93-20.76,0-5.17-.64-5.3-1.27-12.64-2.16-4.34-.53-7.51-.9-11.73-.72-1.12.05-4.36.51-10.83,1.44-4.46.64-6.1.91-6.32,1.44-.22.55,1.13,1.23,2.71,1.44,2.34.31,4.12-.57,7.22-1.08,4.68-.78,9.34-.23,14.44.36,7.58.88,7.16,1.89,13.54,2.52,4.82.48,5.84-.02,14.44,0,9.85.03,9.4.88,18.05.72,9.02-.17,13.49-1.05,19.86,0,4.26.71,8.67,2.17,8.12,3.24-.66,1.29-7.9,1.01-9.03,2.52-1.04,1.4,4.01,3.16,6.32,3.96,4.94,1.72,10.11,2.35,11.73,2.52,7.62.84,12.45.2,19.86,0,5.67-.15,13.95-.08,24.37,1.08-9.98.11-17.32,1.1-22.56,2.16-7.33,1.48-7.92,2.56-16.25,3.96-4.59.78-15.27,2.58-22.56.72-2.34-.6-1.83-.94-4.51-1.8-6.52-2.11-15.11-1.91-19.86-1.8-2.56.06-11.43.35-22.56,2.88-11.84,2.7-10.73,4.4-20.76,6.85-11.44,2.8-22.99,3.05-31.59,3.24-6.9.15-18.78.41-31.59-1.8-6.24-1.08-5.48-1.5-14.44-3.24-10.27-2-18.8-2.92-25.27-3.6-1.84-.19-3.86-.39-6.03-.59h-5.95v-.49c-3.78-.28-7.92-.53-12.39-.73,2.56-.67,4.79-.95,6.32-1.08,2.26-.2,4.21-.18,6.07-.07v-2.26c-3.72-.16-8.86-.22-14.2.53-3.23.45-2.81.68-10.83,2.16-5.61,1.04-8.41,1.56-10.83,1.8-9.31.93-16.23-.21-17.15.72-.55.56,1.57,1.35,1.81,1.44,2.7,1.01,6.64.9,10.83.72,9.38-.4,12.5-.82,18.05-1.08,7.02-.33,12.5-.14,16.25,0,3.48.13,10.11.46,18.05,1.44,9.2,1.14,12.24,2.18,21.66,3.96,4.84.92,14.9,2.8,27.08,3.96,10.49,1,21.74,2.08,35.2.72,11.74-1.19,20.36-3.74,23.47-4.69,8.46-2.56,7.93-3.62,15.34-5.41,2.89-.7,13.04-3.07,25.27-2.52,4.89.22,4.46.65,19.86,3.24,18.56,3.12,23.55,3.23,27.98,2.88,2.48-.2,7.5-.59,11.73-2.16,4.82-1.79,4.09-3.43,9.93-5.05,3.39-.94,7.07-1.33,8.12-1.44,2.93-.31,5.26-.34,7.22-.36,4.93-.06,6.38.26,10.83.36,2.23.05,5.43-.09,11.73-.36,7.18-.31,10.77-.47,13.54-.72,8.46-.77,8-1.5,13.54-1.8,9.15-.49,16.82,1.17,18.05,1.44,5.93,1.32,5.63,2.4,12.64,3.96,4.76,1.06,10.99,1.92,11.73,1.44,1.12-.72-10.48-4.3-11.73-4.69-7.89-2.42-13.02-3.99-19.86-4.69-10.76-1.09-13,1.28-27.08,1.44-16.73.19-17.3-3.13-36.1-3.24-5.25-.03-12.52.22-27.08.72-6.64.23-13.21.5-18.95-1.08-.75-.21-6.17-1.7-5.42-3.24.53-1.09,3.86-1.68,4.51-1.8,3.21-.58,4.48.03,8.12-.36.32-.03,5.97-.67,8.12-2.52,1.14-.98.25-1.4,1.81-2.88.59-.56,1.32-1.26,2.71-1.8,2.3-.91,5-.84,10.83-1.08,10.05-.41,9.29-.89,13.54-.72,2.32.09,3.01.25,11.73,1.44.83.11,8.09,1.1,10.83,1.44,1.83.23,8.26.98,21.66,1.08,4.93.04,10.96-.01,27.08-.72,8.33-.37,26.39-1.22,40.61-1.08,2.2.02,7.15.09,12.64,1.08,4.39.79,7.26,1.83,8.12,2.16,2.79,1.06,2.41,1.35,4.51,2.16,3.72,1.45,10.2,2.59,16.25,2.16,4.87-.34,5.97-1.46,9.03-1.08,3.42.42,3.7,2.02,7.22,2.16,1.64.07,3.44-.21,4.51-.72.7-.34,1.44-.95.9-1.44-.4-.37-1.3-.47-2.71-.72-4.04-.72-3.79-1.14-6.32-1.44-1.37-.17-3.04-.11-6.32,0-6.15.21-6.48.49-8.12.36-3.86-.3-4.71-2.04-8.12-3.96-6.33-3.57-16.21-4.81-18.05-5.05-3.98-.5-8.97-.45-18.95-.36-9.19.09-10.23.35-17.15.36-5.02,0-11.73,0-19.86-.72-11.26-1.01-19.33-2.91-25.27-4.32-5.04-1.2-8.99-2.37-11.73-3.24,4.12-.14,10.79-.27,18.95,0,11.6.38,15.19,1.2,33.39,2.52,8.15.59,14.93,1.09,24.37,1.44,7.1.27,10.55.26,21.66.72,12.1.5,15.34.81,18.95,1.44,3.66.64,5.06,1.15,9.93,1.8,6.9.92,10.89.81,12.64.72,2.58-.13,3.62-.38,6.32-.72,4.37-.56,13.37-1.71,21.66-.72,6.44.77,9.14,2.43,12.64,1.8,1.4-.25,2.86-.86,2.71-1.44-.38-1.45-10.77-2.32-18.05-2.52Z"/>
  <g>
    <path class="cls-1" d="M407,56.02h5.69c-5.52-.74-11.17-1.43-18.24-1.46-3.07-.01-7.63.26-16.75.81-7.72.47-6.3.53-8.04.54-1.27,0-4.06-.02-6.7.54-.72.15-1.37.34-1.34.54.04.29,1.47.47,2.01.54,5.03.64,16.34.06,16.75.54.27.31-3.74,1.33-9.38,2.16-5.61.83-10.77,1.18-16.08,1.35-5.53.18-13.34.26-22.78-.27-1.23-.12-2.4.16-2.68.54-.32.44.53,1.01,2.01,1.08,2.51.05,6.48.14,11.39.27,9.4.25,10.71.34,14.07.27,7.43-.15,11.85-.8,12.06-.54.22.27-4.34,1.28-9.38,1.89-6.88.84-12.07.64-18.09.54-9.21-.15-19.72-.33-29.48.54-4.37.39-10.73,1.18-18.09,2.97-.57.52-.22,1.1.67,1.35,1.13.33,3.17.15,4.02-.54,2.98-.53,7.58-1.24,13.4-1.62,8.6-.57,13.6-.03,24.79.27,12.67.35,19.01.52,24.12,0,11.37-1.15,11.03-3.3,26.8-5.41,2.69-.36,9.12-1.15,17.42-1.08.61,0,1.22.02,1.83.03v-5.87Z"/>
    <path class="cls-1" d="M407.19,112.7c-4.25-.52-7.57-.33-10.05-.27-5.47.14-9.45-.27-17.42-1.08-2.81-.29-9.17-.99-16.75-2.43-1.65-.31-3.02-.6-4.02-.81.88-1.23,2.58-2.79,6.03-4.06,3.53-1.29,7.27-1.67,14.74-2.43,5.31-.54,8.32-.85,12.73-.81,5.71.05,9.86.64,14.56,1.33v-2.45c-1.55-.2-3.27-.37-5.18-.5-6.15-.42-10.94-.19-14.74,0-6.85.35-11.75,1.07-15.41,1.62-4.44.67-8.08,1.23-11.39,2.43-1.76.64-3.32,1.21-4.69,2.16-.89.62-1,.92-2.01,1.35-1.67.71-3.77.93-5.36,1.08-2.17.21-4.35.14-8.71,0-4.35-.14-5.6-.31-6.7-.54-1.6-.34-2.69-.77-3.35-1.08,1.59-.29,4.13-.71,7.37-1.08,6.39-.73,8.46-.47,11.39-1.35,2.72-.82,2.03-1.38,5.36-2.43,2.7-.85,5.35-1.19,6.7-1.35,6.13-.74,7.97.19,13.4-.27,6.27-.53,5.26-1.89,11.39-2.43,5.05-.45,6.46.41,14.74,0,2.54-.13,6.3-.33,7.19-.91v-.59c-.34-.29-1.06-.56-1.83-.67-1.18-.17-1.96.13-4.02.27-1.65.12-2.73.04-4.02,0-3.89-.12-11.16.07-16.08.54-5.44.52-6.03,1.2-10.72,1.89-10.05,1.49-13.39-.72-33.5-.81-5.55-.03-8.54.13-17.42,0-4.83-.07-8.79-.18-11.39-.27,8.41-1.59,14.94-1.77,19.43-1.62,2.88.1,4.29.31,10.05.54,3.55.14,5.63.17,13.4.27,16.48.21,17.53.23,20.1,0,2.4-.22,5.4-.69,11.39-1.62,7.35-1.15,9.15-1.63,10.05-1.89,4.02-1.16,3.77-1.74,6.7-2.16,2.27-.33,3.74-.17,7.86-.05v-6.67c-2.34-.46-5.39-1.41-10.54-3.01-8.46-2.63-7.99-2.91-10.72-3.24-4.19-.51-6.57,0-14.74-.54-.39-.03-3.29-.23-6.03-1.08-.72-.22-2.27-.71-2.01-1.08.12-.17.63-.32,3.35-.54,2.87-.23,3.28-.14,4.69-.27,2.99-.28,5.86-1.11,6.7-2.16.06-.08.52-.65,0-.81-.5-.15-1.55.2-3.35.54-.93.18-1.96.3-4.02.54-4.57.54-6.58.23-12.06.81-2.68.28-3.5.49-4.02.81-1.09.67-.44,1.56,0,2.16.33.45,1.1,1.5,3.35,2.16,1.72.51,3.01.4,8.04.54,0,0,5.01.14,10.72.54,4.51.31,6.77.47,8.04.81,1.61.43,2.02.8,7.37,2.97.56.23,1.03.42,1.34.54-2.04.02-5.09,0-8.71-.27-6.02-.44-9.19-1.21-13.4-1.89-.45-.07-10.15-1.61-21.44-1.62-4.23,0-9.07.36-18.76,1.08-4.79.36-12.43.99-18.76.27-.47-.05-3.32-.39-6.03-1.35-1.16-.41-3.07-1.09-2.68-1.62.28-.39,1.71-.64,6.03-.81,5.83-.23,10.39-.07,12.06,0,11.01.43,10.61.69,14.07.54,5.11-.22,5.31-.75,10.05-.81.97-.01,2.95-.02,4.69-.54.46-.14,1.74-.52,2.01-1.08.58-1.22-4.11-2.47-6.03-2.97-2.11-.56-5.09-1.35-9.38-1.35-3.12,0-5.23.41-8.71,1.08-2.55.5-2.71.7-2.68.81.11.34,2.55.59,4.69.54,3.01-.07,3.22-.69,6.03-.81,3.73-.16,6.47.77,7.37,1.08,1.39.48,1.37.73,1.34.81-.17.5-2.54.73-3.35.81-4.76.47-9.42-.23-12.06-.54-.86-.1-6.84-.16-18.76-.27-10.83-.1-13.07-.1-16.08.54-1.44.31-6.12,1.3-6.7,2.97-.79,2.29,6.63,4.3,10.72,5.41,5.81,1.58,11.46,2.18,14.74,2.43,7.73.6,14.13.17,20.77-.27,7.02-.47,8.63-.93,14.74-1.08,5.31-.14,9.74.07,12.73.27-3.59.57-8.6,1.29-14.74,1.89-5.35.53-10.42,1.03-16.75,1.08-4.67.04-5.51-.21-18.76-1.08-11.97-.79-17.96-1.19-20.77-1.08-7.84.29-10.6,1.31-19.43,1.08-4.19-.11-7.78-.45-8.71-.54-5.91-.58-6.36-1.07-13.4-1.89,0,0-5.74-.67-12.73-.54-1.86.04-3.63.13-4.02.54-.32.35.38.86,1.34,1.08,1.11.26,2.36.08,3.35,0,3.18-.27,5.99.22,9.38.81,3.2.56,3.76,1.08,6.7,1.89,2.42.67,6.25,1.49,12.06,1.89-.47.45-1.3,1.14-2.68,1.89-1.89,1.03-3.04,1.2-3.35,1.89-.34.78.91,1.03,1.34,2.16.41,1.09-.47,1.57-.67,2.43-.46,2.02,3.42,3.76,4.69,4.33,3.75,1.68,8.28,2.1,14.74,2.7,4.88.46,8.96.84,14.07.27,1.09-.12,4.95-.59,8.71-1.89,3.27-1.14,4.71-2.3,5.36-2.7,2.51-1.56,10.87-2.67,36.85-.54-.51.29-1.37.71-2.68,1.08-4.67,1.32-9.5.38-17.42.81-2.71.15-4.93.46-9.38,1.08-7.1.99-7.82,1.51-15.41,2.7-4.02.63-7.93,1.24-13.4,1.62-5.38.38-8.07.56-10.72.27-3.56-.4-6.31-1.29-9.38-.81-.94.15-1.6.37-2.01.54,1.56.32,3.88.79,6.7,1.35,5.64,1.12,8.47,1.67,10.05,1.89,3.26.45,9.23,1.28,15.41.54,4.03-.48,3.68-1.1,10.05-2.16,2.49-.42,5.45-.91,9.38-1.08,2.07-.09,4.57-.09,12.06.54,8.12.69,7.87.92,13.4,1.35,7.84.61,8.63.16,16.08.81,4.61.4,4.06.55,11.39,1.35,6.41.7,10.59,1.15,16.08,1.35,6,.22,5.91-.15,13.4,0,9.59.19,15.15.89,15.41.54.2-.27-2.88-.97-6.03-1.35ZM306.01,94.85c-.83.13-5.56.87-10.72,2.43-3.28.99-5.25,1.61-6.03,2.7-.94,1.32.78,2.03-.67,2.7-1.67.77-5.68.6-8.04.27-1.49-.21-1.15-.32-2.68-.54-3.94-.57-6.31.13-8.04-.54-.83-.32-.3-.49-1.34-1.08-1.63-.93-3.51-.84-4.02-1.35-.75-.75,2.12-2.1,5.36-2.97,4.38-1.18,7.45-.94,14.07-1.62,6.81-.71,5.65-1.18,12.06-1.89,4.57-.51,10.25-.62,21.44-.81,6.97-.12,10.02-.11,10.05-.27.04-.23-6.03-.64-11.39-.81-4.96-.16-8.67-.08-12.73,0-6.77.14-11.09.23-16.75.81-3.22.33-6.59.79-8.71,1.08-4.17.57-6.25.85-7.37,1.08-3.51.71-5,1.34-6.7,1.08-1.09-.17-1.88-.64-2.01-1.08-.2-.67,1.08-1.36,4.69-2.43,3.96-1.18,6.8-2.03,12.06-2.7,7.98-1.02,14.85-.8,22.78-.54,4.22.14,7.83.36,10.72.54,10.49.65,15.85.79,18.09.81,4.67.04,11.09.09,18.76-.81,5.44-.64,8.11-1,11.39-1.62,4.97-.95,6.58-1.59,9.38-1.35,1.33.11,2.67.43,5.36,1.08,2.22.53,3.32.81,3.35,1.08.09.81-5.75,1.88-11.39,1.89-2.48,0-2.31-.2-6.03-.27-2.43-.05-5.6-.11-9.38.27-1.77.18-3.86.48-8.04,1.08-1.41.2-1.54.23-2.01.27-3.78.33-6.82-.38-7.37,0-.13.09-.08.2,0,.27.3.27,1.6.24,2.01.27,7.33.5,14.07.27,14.07.27,9.53-.32,8.41.4,16.75,0,2.37-.11,5.6-.35,12.06-.81,7.21-.52,8.59-.67,8.71-.54.31.35-8.26,2.45-18.76,3.24-6.94.52-13.14.36-16.08.27-4.26-.13-5.04-.31-10.72-.54-2.83-.12-8.3-.33-14.74-.27-6.73.07-13.48.13-21.44,1.35Z"/>
    <path class="cls-1" d="M407,65.39c-.55.14-1.09.22-1.83.26-1.7.08-3.18-.17-5.36-.54-2.51-.43-2.86-.69-4.69-.81-1.58-.1-3.74-.06-4.02.27-.17.21.42.48,1.34.81,2.52.92,4.26,1.56,7.37,1.89.89.1,3.97.43,7.19.08v-1.96Z"/>
    <path class="cls-1" d="M272.51,59.7c5.44-.53,10.16-.58,13.4-.54-2.71,1.02-6.48,2.22-11.39,3.24-4.57.95-6.85,1.43-9.77,1.54-1.68.07-3.35.03-3.63.35-.33.37,1.42,1.1,3.35,1.35,2.49.33,4.94-.17,6.7-.54,7.68-1.62,10.01-2.53,14.74-3.52,2.14-.44,6.06-1.25,11.39-1.62,3.36-.24,5.39-.17,12.73,0,11.33.27,17.02.4,18.76.27,6.76-.5,11.99-1.84,15.41-2.7,5.49-1.4,5.5-1.95,10.72-2.97,3.05-.6,4.98-.79,10.72-1.89,4.29-.83,3.71-.82,5.36-1.08,6.23-1,12.13-.75,16.75-.54,3.99.18,7.11.5,12.06,1.08,14.01,1.66,21.27,2.51,26.84,3.9h18.7c-12.05-3.34-14.04-3.82-18.07-4.44-8.07-1.23-7.79-.47-22.11-2.16-14.31-1.69-16.72-2.71-24.79-2.7-8.4,0-15.04,1.1-18.09,1.62-8.55,1.45-8.91,2.62-17.42,4.33-7.69,1.54-14.25,1.97-21.44,2.43-10,.65-10.9.11-26.13.54-13.1.37-19.65.55-26.8,1.62-2.03.3-7.61,1.46-18.76,3.79-7.74,1.61-11.03,2.35-16.75,2.97-3.46.38-7.4.81-12.73.81-6.15,0-7.9-.56-13.4-.27-4.82.25-10.16,1.04-10.05,1.62.08.44,3.34.8,6.03.81,4.23.01,5.58-.85,9.38-.81,2.86.03,4.71.55,6.03.81,7.78,1.56,20.47-1.01,31.49-3.24,10.92-2.21,12.69-3.27,20.77-4.06Z"/>
    <path class="cls-1" d="M732.16,83.22c-10.57-.29-11.08,1.39-18.76.81-5.45-.41-6.75-1.37-16.75-2.43-2.51-.27-4.62-.44-6.03-.54,3.7-.81,5.63-1.75,6.7-2.43,2.01-1.29,1.49-2.02,4.02-3.24,1.08-.52,2.93-1.42,6.03-1.62.44-.03,3.97-.26,6.03.54.79.31.94.61,2.68,1.35,1.05.45,1.54.58,2.01.54.75-.06,1.24-.51,1.34-.81.34-1.05-3.34-2.2-6.03-2.7-3.73-.71-9.58-.95-13.4.27-2.83.9-1.67,1.68-5.36,3.52-1.06.53-3.49,1.71-7.37,2.43-1.92.36-4.64.69-12.06.54-6.92-.14-12.23-.59-14.74-.81-9.49-.84-20.37-1.84-32.83-4.6-2.95-.65-5.27-1.24-6.7-1.62,6.77.21,12.67.15,17.42,0,8.46-.26,12.68-.39,17.42-1.08,4.76-.7,7.28-1.46,12.06-1.35,3.06.07,3.02.4,7.37.54,3.88.13,3.16-.16,10.72-.27,2.65-.04,4.64-.03,5.36-.54.33-.23.43-.6,0-.81-.93-.46-3.47.2-7.37.27-1.84.03-3.68-.16-7.37-.54-6.3-.65-5.92-.92-8.71-1.08-3.66-.21-6.46.13-12.06.81-5.07.62-5.35.92-9.38,1.35-4.62.49-8.3.52-11.39.54-10.69.06-11.64-1.1-18.09-.54-1.47.13-4.72.47-9.38.54,0,0-1.75.03-3.35,0-7.46-.12-18.64-2.88-20.1-3.24,1.51-.02,3.84-.04,6.7,0,8.48.11,9.32.52,13.4.27,4.86-.3,5.12-.97,10.05-1.08.71-.02,1.12-.01,7.37.27,6.26.28,9.42.42,10.72.54,4.87.44,4.98.77,8.04.81,2.45.04,2.52-.18,8.04-.54,5.75-.38,8.43-.33,8.71-.81.17-.29-.63-.65-1.34-.81-1.61-.37-3.61.03-5.36.27-2.3.32-4.66.3-9.38.27-5.74-.04-6.12-.86-12.73-1.35-3.1-.23-6.98-.15-14.74,0-8.17.16-8.32.36-12.73.27-4.27-.08-3.85-.26-11.39-.54-5.23-.19-7.89-.2-8.04-.54-.18-.42,3.45-.99,4.02-1.08,4.11-.64,6.32-.34,10.05-.54.97-.05,7.25-.41,12.06-2.16,3.67-1.34,3.08-2.24,6.7-2.97,2.59-.53,3.62-.21,7.37-.81,3.45-.55,4.45-1.11,6.7-1.62,4.94-1.12,10.45-.77,14.07-.54,6.56.42,6.61,1.34,18.76,3.24,5.05.79,7.65,1.19,11.39,1.35,3.99.17,7.33,0,12.73-.27,6.61-.33,8.8-.69,12.73-.27,1.55.16,5.56.59,6.03,1.62.34.74-1.29,1.51-2.68,1.89-1.31.36-3.01.53-8.04.27-6.12-.32-6.14-.71-10.05-.81-4.21-.11-7.73.24-10.72.54-4.82.48-4.21.75-6.7.81-4.66.11-6.94-.83-10.72-.27-1.13.17-2.79.53-2.68.81.23.59,8.05.55,10.05.54.89,0,3.5-.03,8.71-.27,7.02-.33,6.56-.49,9.38-.54,6.39-.11,7.02.76,14.07.81,3.57.03,7.11.04,10.72-.81.74-.17,6.52-1.57,6.03-2.97-.82-2.36-18.74-3.16-20.77-3.24-8.95-.38-9.93.36-16.75-.27-2.24-.21-3.69-.43-16.08-2.97-13.3-2.73-14.26-3.01-17.42-3.24-7.89-.6-14.52.18-17.42.54-6.94.85-11.79,2.29-14.07,2.97-6.41,1.93-6.32,2.87-11.39,3.79-1.56.28-7.43,1.35-13.4.54-4.64-.63-4.81-1.77-10.05-3.24-6.75-1.9-13.98-2.1-16.08-2.16-7.09-.2-7.26.81-20.77,1.62-8.43.51-12.74.75-17.42,0-4.55-.73-5.05-1.6-10.05-2.16-1.03-.12-3.32-.34-12.73,0-7.76.28-9,.53-17.42.81-8.92.3-10.55.11-11.39,0-1.62-.21-3.82-.63-4.69-.27-.59.24-.36.77,0,1.08.5.43,2.17,1.29,12.06,1.35,7.65.05,8.87-.44,16.75-.54,6.02-.07,9.68-.1,14.07.54,5.34.79,5.16,1.6,10.05,2.43,6.11,1.04,11.91.7,18.76.27,10.2-.64,11.27-1.67,17.42-1.89,5.27-.2,12.91.24,22.78,3.24-3.63.13-9.12.45-15.41,1.35-7.96,1.15-7.84,1.88-14.07,2.7-10.69,1.41-12.84-.53-25.46.81-5.53.59-8.04,1.27-14.07,1.35-4.5.06-8.23-.26-10.72-.54,3.15-1.54,6.36-2.3,8.71-2.7,4.29-.74,8.52-.77,14.07-.81,6.61-.05,11,.25,11.39-.27.21-.28-.8-.65-1.34-.81-1.57-.46-3.53-.33-4.69-.27-5.59.29-4.97-.31-12.06,0-3.5.16-5.25.23-7.37.54-4.96.72-5.83,1.7-10.72,2.7,0,0-3.53.73-8.71,1.08-5.23.36-10.74-.57-18.83-2.61v8.58c7.48.48,13.43.51,17.49.53,9.35.04,16.64-.34,20.1-.54,9.37-.56,9.89-1.02,18.76-1.62,6.87-.47,15.43-1.05,25.46-.54,4.06.2,3.49.34,24.12,2.97,13.64,1.74,16.03,1.95,22.78,2.97,7.5,1.13,13.48,2.22,17.42,2.97-11.65,1-20.39.57-26.13,0-5.31-.52-10.24-1.43-20.1-3.24-14.02-2.58-15.06-3.29-20.77-3.52-9.22-.36-17.65,1.04-19.43,1.35-7.24,1.26-9.28,2.64-15.41,2.7-3.74.04-3.87-.46-10.72-1.08-3.5-.32-10.62-.96-18.76-.54-8.04.41-8.92,1.44-14.81,1.36v1.02c2.49-.11,5.19-.24,9.45-.21,11.87.06,11.35,1.14,25.46,1.62,10.69.37,17.76.61,26.8-.27,6.04-.59,10-1.39,16.75-1.08,4.03.18,5.11.58,11.39,1.35,8.44,1.04,15.25,1.4,19.43,1.62,10.54.56,14.28.19,22.11,1.35,1.3.19,3.41.51,6.03,1.08,6.9,1.51,9.17,3.02,13.4,4.33,3.11.96,8.1,2.06,16.08,2.43-3.16.2-7.81.4-13.4.27-9.08-.21-15.57-1.16-20.77-1.89-16.23-2.28-24.34-3.43-32.16-4.06-16.02-1.29-15.22.62-35.51-.54-7.36-.42-15.41-1.18-31.49-2.7-9.43-.89-13.19-1.32-20.1-1.62-5.13-.22-9.39-.41-13.47-.37v3.7c3.84-.08,8.47-.02,14.14.19,16.24.61,16.4,1.59,34.84,2.7,7.49.45,8.18.34,36.85,1.35,9.46.33,17.17.62,22.11.81-7.11,1-13.11,1.42-17.42,1.62-5.54.26-11.18.27-12.06.27-6.56,0-7.8-.21-12.06,0-5.19.26-5.02.67-10.72,1.08-4.68.33-9.79.7-15.41,0-3.84-.48-3.93-.95-9.38-1.62-3.22-.4-5.58-.67-8.71-.54-.83.04-3.24.38-8.04,1.08-3.31.48-4.53.68-4.69,1.08-.17.41.84.93,2.01,1.08,1.74.23,3.06-.42,5.36-.81,3.47-.58,6.94-.18,10.72.27,5.63.66,5.31,1.42,10.05,1.89,3.58.36,4.34-.02,10.72,0,7.31.02,6.98.66,13.4.54,6.7-.12,10.02-.79,14.74,0,3.17.53,6.44,1.63,6.03,2.43-.49.97-5.86.76-6.7,1.89-.77,1.05,2.97,2.37,4.69,2.97,3.67,1.29,7.51,1.76,8.71,1.89,5.66.63,9.24.15,14.74,0,4.21-.12,10.36-.06,18.09.81-7.41.08-12.86.83-16.75,1.62-5.44,1.11-5.88,1.92-12.06,2.97-3.41.58-11.34,1.94-16.75.54-1.74-.45-1.36-.7-3.35-1.35-4.84-1.58-11.22-1.43-14.74-1.35-1.9.04-8.48.26-16.75,2.16-8.79,2.02-7.97,3.3-15.41,5.14-8.5,2.1-17.07,2.29-23.45,2.43-5.12.11-13.94.31-23.45-1.35-4.63-.81-4.07-1.12-10.72-2.43-7.62-1.5-13.96-2.19-18.76-2.7-1.37-.15-2.87-.3-4.48-.44h-4.42v-.37c-2.81-.21-5.88-.4-9.2-.55,1.9-.5,3.56-.71,4.69-.81,1.68-.15,3.13-.13,4.51-.05v-1.69c-2.76-.12-6.58-.16-10.54.39-2.4.34-2.09.51-8.04,1.62-4.16.78-6.25,1.17-8.04,1.35-6.91.7-12.05-.16-12.73.54-.41.42,1.16,1.01,1.34,1.08,2,.76,4.93.67,8.04.54,6.97-.3,9.28-.62,13.4-.81,5.21-.25,9.28-.1,12.06,0,2.59.1,7.51.34,13.4,1.08,6.83.86,9.08,1.64,16.08,2.97,3.6.69,11.06,2.1,20.1,2.97,7.79.75,16.14,1.56,26.13.54,8.72-.89,15.11-2.81,17.42-3.52,6.28-1.92,5.89-2.72,11.39-4.06,2.15-.52,9.68-2.3,18.76-1.89,3.63.16,3.31.49,14.74,2.43,13.78,2.34,17.49,2.42,20.77,2.16,1.84-.15,5.57-.44,8.71-1.62,3.58-1.34,3.04-2.58,7.37-3.79,2.52-.7,5.25-1,6.03-1.08,2.18-.23,3.9-.25,5.36-.27,3.66-.04,4.74.2,8.04.27,1.66.04,4.03-.06,8.71-.27,5.33-.23,8-.35,10.05-.54,6.28-.58,5.94-1.13,10.05-1.35,6.8-.37,12.49.88,13.4,1.08,4.4.99,4.18,1.8,9.38,2.97,3.54.8,8.16,1.44,8.71,1.08.83-.54-7.78-3.23-8.71-3.52-5.86-1.82-9.66-3-14.74-3.52-7.99-.82-9.65.96-20.1,1.08-12.42.14-12.84-2.34-26.8-2.43-3.89-.02-9.3.16-20.1.54-4.93.17-9.81.37-14.07-.81-.56-.15-4.58-1.27-4.02-2.43.39-.82,2.87-1.26,3.35-1.35,2.39-.43,3.32.02,6.03-.27.24-.03,4.43-.51,6.03-1.89.85-.74.18-1.05,1.34-2.16.44-.42.98-.94,2.01-1.35,1.71-.68,3.71-.63,8.04-.81,7.46-.31,6.9-.67,10.05-.54,1.72.07,2.23.19,8.71,1.08.62.08,6,.83,8.04,1.08,1.36.17,6.13.74,16.08.81,3.66.03,8.14,0,20.1-.54,6.19-.27,19.59-.91,30.15-.81,1.64.02,5.31.07,9.38.81,3.26.59,5.39,1.38,6.03,1.62,2.07.79,1.79,1.01,3.35,1.62,2.76,1.08,7.57,1.94,12.06,1.62,3.62-.26,4.43-1.09,6.7-.81,2.54.32,2.75,1.52,5.36,1.62,1.21.05,2.56-.15,3.35-.54.52-.25,1.07-.71.67-1.08-.3-.28-.96-.35-2.01-.54-3-.54-2.81-.85-4.69-1.08-1.02-.12-2.26-.08-4.69,0-4.57.16-4.81.37-6.03.27-2.87-.22-3.49-1.53-6.03-2.97-4.7-2.68-12.03-3.61-13.4-3.79-2.96-.38-6.66-.34-14.07-.27-6.82.06-7.6.27-12.73.27-3.73,0-8.71,0-14.74-.54-8.36-.76-14.35-2.18-18.76-3.24-3.74-.9-6.67-1.78-8.71-2.43,3.06-.1,8.01-.2,14.07,0,8.61.28,11.27.9,24.79,1.89,6.05.45,11.08.82,18.09,1.08,5.27.2,7.83.2,16.08.54,8.98.38,11.39.61,14.07,1.08,2.72.48,3.76.86,7.37,1.35,5.12.69,8.08.61,9.38.54,1.92-.1,2.69-.28,4.69-.54,3.24-.42,9.93-1.28,16.08-.54,4.78.58,6.79,1.83,9.38,1.35,1.04-.19,2.12-.65,2.01-1.08-.28-1.09-7.99-1.74-13.4-1.89Z"/>
    <path class="cls-1" d="M390.43,70.24c-5.28.57-10.05,3.24-10.05,3.24-1.12-.09,2.23.19,3.35.27,3.72.26,6.12-1.42,10.05-1.62,3.95-.2,5.08,1.31,11.39,2.43.62.11,1.23.21,1.83.29v-2.47c-9.61-.8-11.38-2.7-16.57-2.15Z"/>
  </g>
</svg>